{"glyphs":{"0":{"ha":713,"x_min":41,"x_max":672,"o":"m 361 789 q 240 399 240 789 q 241 330 240 357 q 244 255 241 302 q 255 176 248 208 q 274 111 262 144 q 307 61 286 78 q 355 45 328 45 q 475 454 475 45 q 457 649 475 570 q 414 758 439 728 q 361 789 390 789 m 354 -14 q 125 110 208 -14 q 41 414 41 233 q 132 732 41 616 q 361 847 222 847 q 469 826 418 847 q 568 761 521 806 q 644 629 615 715 q 672 427 672 543 q 642 219 672 309 q 564 81 612 129 q 463 10 515 33 q 354 -14 410 -14 z "},"1":{"ha":713,"x_min":127,"x_max":664,"o":"m 510 170 q 520 102 510 128 q 554 65 530 77 q 597 50 578 53 q 653 45 616 46 q 664 22 664 39 q 653 -3 664 4 q 421 0 425 0 l 186 -3 q 175 21 175 3 q 186 45 175 39 q 241 50 222 46 q 285 65 261 53 q 319 102 309 77 q 329 170 329 127 l 329 604 q 323 666 329 653 q 302 679 318 679 q 158 644 240 679 q 127 704 129 665 q 273 763 168 721 q 428 827 379 804 q 497 847 471 848 q 521 823 521 847 q 510 671 510 744 l 510 170 z "},"2":{"ha":713,"x_min":54,"x_max":639,"o":"m 69 631 q 149 777 69 707 q 364 847 228 847 q 570 773 492 847 q 629 624 629 716 q 626 578 629 599 q 619 542 623 557 q 601 506 615 526 q 581 476 587 486 q 550 440 575 465 q 514 405 525 415 q 465 360 503 395 q 408 309 427 325 l 327 233 q 262 110 269 180 l 443 110 q 522 140 490 110 q 576 241 554 171 q 639 228 608 241 q 596 0 621 78 l 60 0 l 54 45 q 95 122 57 75 q 254 285 134 170 l 372 397 q 438 493 424 446 q 452 619 452 541 q 415 742 452 695 q 332 790 377 791 q 251 756 286 790 q 216 694 216 722 q 225 659 216 677 q 232 629 232 637 q 208 576 232 597 q 151 555 183 555 q 92 579 115 555 q 69 631 69 603 z "},"3":{"ha":713,"x_min":64,"x_max":648,"o":"m 345 789 q 307 787 322 789 q 273 777 292 785 q 242 749 254 768 q 224 700 229 730 q 199 643 217 663 q 138 624 180 624 q 85 675 85 624 q 123 758 85 722 q 176 801 153 785 q 252 832 199 817 q 371 847 304 847 q 547 801 498 847 q 596 693 596 754 q 537 558 596 625 q 467 504 508 525 q 600 442 551 498 q 648 309 648 386 q 578 115 648 200 q 451 20 528 54 q 301 -14 375 -14 q 110 29 195 -14 q 64 94 64 53 q 83 135 64 115 q 132 154 103 154 q 222 103 185 154 q 323 45 267 45 q 423 89 376 45 q 469 239 469 134 q 296 427 469 426 q 229 415 268 427 q 218 456 218 427 q 220 471 218 465 q 374 552 317 492 q 432 690 432 612 q 345 789 432 789 z "},"4":{"ha":713,"x_min":31,"x_max":692,"o":"m 363 696 q 107 290 295 603 l 363 290 l 363 696 m 671 290 q 692 268 692 290 q 679 240 692 256 q 652 225 665 225 l 534 225 l 534 170 q 543 102 534 128 q 571 65 551 77 q 610 50 591 53 q 664 45 628 46 q 675 22 675 39 q 664 -3 675 4 q 573 -2 619 -3 q 501 -1 528 -1 q 450 0 475 0 l 233 -3 q 222 21 222 3 q 233 45 222 39 q 288 50 269 46 q 326 65 306 53 q 354 102 346 77 q 363 170 363 127 l 363 225 l 117 225 q 71 235 81 225 l 50 260 q 42 273 47 265 q 33 285 36 281 q 31 292 31 289 q 40 310 31 296 q 129 445 68 353 q 230 598 191 538 q 321 731 269 659 q 410 847 372 803 l 534 847 l 534 290 l 671 290 z "},"5":{"ha":713,"x_min":72,"x_max":637,"o":"m 449 261 q 417 415 449 361 q 334 469 385 469 q 253 461 285 469 q 138 422 221 453 l 120 433 l 175 847 q 261 840 200 846 q 355 833 322 833 q 591 851 403 833 l 624 833 l 597 714 q 437 705 471 706 q 236 713 310 705 q 210 529 231 681 q 374 547 281 547 q 566 479 494 547 q 637 304 637 411 q 552 81 637 176 q 332 -14 467 -14 q 127 25 201 -14 q 72 98 72 54 q 90 144 72 125 q 143 164 109 164 q 248 110 212 164 q 323 47 288 47 q 415 103 382 47 q 449 261 449 159 z "},"6":{"ha":713,"x_min":61,"x_max":663,"o":"m 237 401 q 236 336 236 386 q 382 40 236 41 q 449 96 422 40 q 476 258 476 151 q 437 381 476 325 q 340 437 397 437 q 237 401 297 437 m 625 790 q 368 707 460 782 q 286 600 319 667 q 245 459 253 534 q 387 507 319 498 q 525 481 467 506 q 611 418 583 456 q 651 347 639 380 q 663 283 663 314 q 646 185 663 235 q 596 89 629 135 q 503 15 562 43 q 366 -14 443 -14 q 61 342 61 -14 q 99 548 61 449 q 211 713 136 647 q 382 812 292 782 q 616 847 472 843 q 625 790 635 826 z "},"7":{"ha":713,"x_min":83,"x_max":665,"o":"m 256 692 q 209 685 228 692 q 168 651 191 679 q 132 571 146 624 l 83 575 q 111 848 109 742 q 117 852 111 852 q 142 842 119 851 q 192 833 164 833 l 657 833 l 665 821 q 572 619 614 712 q 490 430 530 526 q 431 288 450 334 q 369 131 412 241 q 318 -3 326 21 l 176 -17 l 168 0 q 526 692 381 393 l 256 692 z "},"8":{"ha":713,"x_min":47,"x_max":667,"o":"m 361 799 q 280 768 300 799 q 261 679 261 737 q 342 551 261 593 l 411 515 q 465 665 465 549 q 463 711 465 692 q 450 753 460 730 q 418 787 440 775 q 361 799 395 799 m 627 663 q 582 550 627 599 q 471 482 536 501 l 549 436 q 667 227 667 367 q 582 61 667 136 q 347 -14 497 -14 q 129 42 211 -14 q 47 204 47 98 q 98 336 47 281 q 253 443 149 392 l 224 458 q 119 537 149 497 q 90 639 90 578 q 161 787 90 728 q 371 847 232 847 q 563 796 500 847 q 627 663 627 745 m 350 41 q 451 76 408 41 q 494 199 494 110 q 474 296 494 257 q 385 371 453 335 l 310 411 q 256 359 277 387 q 228 296 235 330 q 220 247 221 261 q 218 204 218 232 q 350 41 218 41 z "},"9":{"ha":713,"x_min":62,"x_max":664,"o":"m 488 432 q 489 497 489 448 q 343 793 489 793 q 276 738 303 793 q 249 575 249 682 q 288 452 249 509 q 385 396 328 396 q 488 432 428 396 m 100 43 q 357 126 265 51 q 415 192 389 153 q 458 278 441 231 q 480 374 475 325 q 338 326 406 335 q 200 353 258 328 q 114 415 142 378 q 74 486 86 453 q 62 550 62 519 q 79 649 62 599 q 129 744 96 699 q 222 819 163 790 q 359 847 282 847 q 664 492 664 847 q 626 285 664 385 q 514 121 589 186 q 343 21 433 52 q 109 -14 253 -9 q 100 43 90 7 z "}," ":{"ha":347,"x_min":0,"x_max":0,"o":""},"!":{"ha":369,"x_min":83,"x_max":286,"o":"m 184 914 q 255 887 226 914 q 285 810 285 860 q 265 663 285 770 q 224 319 227 425 q 184 261 222 261 q 152 278 159 261 q 143 336 144 296 q 104 667 139 474 q 85 810 85 764 q 115 888 85 863 q 184 914 146 914 m 83 81 q 114 150 83 121 q 186 179 144 179 q 257 151 228 179 q 286 83 286 123 q 256 16 286 45 q 183 -14 225 -14 q 113 14 142 -14 q 83 81 83 42 z "},"\"":{"ha":522,"x_min":87,"x_max":436,"o":"m 153 571 l 132 576 q 87 821 87 812 q 112 872 87 848 q 178 896 136 896 q 220 887 205 896 q 237 869 235 879 q 240 844 240 860 l 189 579 l 153 571 m 349 571 l 328 576 q 283 821 283 812 q 308 872 283 848 q 374 896 332 896 q 416 887 401 896 q 433 869 431 879 q 436 844 436 860 l 385 579 l 349 571 z "},"#":{"ha":713,"x_min":39,"x_max":674,"o":"m 401 351 l 425 500 l 294 500 q 280 426 290 474 q 267 351 271 377 l 401 351 m 498 500 l 474 351 l 638 351 l 627 260 l 462 260 q 443 144 456 224 q 423 20 431 64 l 349 20 l 389 260 l 256 260 q 236 142 250 222 q 214 20 222 62 l 138 20 l 177 260 l 39 260 l 52 351 l 191 351 q 214 500 212 482 l 76 500 l 88 591 l 227 591 q 235 639 231 614 q 243 688 239 665 q 251 735 248 712 q 259 784 255 759 q 267 832 264 810 l 345 832 l 303 591 l 438 591 q 457 711 445 631 q 477 832 470 791 l 549 832 l 512 591 l 674 591 l 662 500 l 498 500 z "},"$":{"ha":713,"x_min":81,"x_max":648,"o":"m 342 545 l 356 794 q 282 759 311 790 q 253 679 253 728 q 278 610 253 644 q 342 545 304 575 m 385 300 l 371 43 q 454 78 422 50 q 486 149 486 106 q 459 229 486 192 q 385 300 431 266 m 587 812 q 602 616 601 688 q 538 610 578 597 q 527 647 532 631 q 513 683 522 663 q 496 718 505 703 q 474 748 486 733 q 447 773 463 763 q 412 789 431 783 l 397 509 l 403 505 q 582 385 538 435 q 648 237 648 311 q 561 57 648 134 q 368 -12 486 -10 l 362 -130 q 305 -136 350 -136 l 312 -12 q 186 1 240 -9 q 106 12 133 12 q 81 225 81 97 q 144 229 125 236 q 262 64 170 114 q 315 45 288 50 l 331 336 q 294 357 324 340 q 249 384 264 374 q 210 409 234 393 q 167 443 185 426 q 135 479 149 460 q 92 625 92 536 q 175 786 92 720 q 217 812 193 800 q 264 831 240 824 q 313 842 289 838 q 359 847 336 846 l 365 958 q 422 964 383 964 l 416 846 q 481 837 452 844 q 537 823 510 831 q 587 812 564 816 z "},"%":{"ha":884,"x_min":71,"x_max":839,"o":"m 643 74 q 671 28 643 28 q 746 83 713 28 q 781 218 781 143 q 726 297 781 298 q 687 277 705 297 q 660 225 669 257 q 643 74 643 174 m 514 126 q 568 281 514 215 q 711 347 623 347 q 839 221 839 347 q 787 45 839 117 q 654 -26 734 -26 q 546 15 578 -26 q 514 126 514 57 m 200 513 q 228 467 200 467 q 302 522 271 467 q 338 657 337 582 q 283 736 338 736 q 244 716 262 736 q 216 664 227 696 q 200 513 200 612 m 71 566 q 125 720 71 654 q 268 786 179 786 q 363 755 330 786 q 418 746 388 755 q 473 729 449 737 q 505 721 496 721 q 714 790 648 721 l 779 761 l 208 -22 l 134 -5 l 642 690 q 492 659 564 659 q 395 684 444 659 q 396 673 395 679 q 396 660 396 667 q 344 484 396 555 q 211 412 292 412 q 102 454 134 412 q 71 566 71 496 z "},"&":{"ha":1012,"x_min":54,"x_max":970,"o":"m 372 745 q 390 669 372 720 q 432 583 407 619 l 439 575 q 551 732 551 664 q 524 816 551 781 q 456 851 496 851 q 382 807 401 851 q 372 745 372 785 m 770 493 q 714 558 795 553 q 703 568 703 558 l 703 602 l 708 606 q 851 603 795 603 l 966 606 l 970 603 l 970 571 q 954 558 970 560 q 901 537 924 557 q 850 473 879 518 q 682 216 734 301 q 699 190 688 208 q 717 160 710 171 q 734 133 724 149 q 752 108 745 118 q 769 89 760 98 q 789 75 779 79 q 807 71 799 71 q 899 125 864 71 q 943 85 922 125 q 772 -14 869 -14 q 725 -10 746 -14 q 677 3 703 -7 q 627 34 652 13 q 580 88 602 56 q 329 -14 479 -14 q 129 36 198 -14 q 54 208 54 90 q 76 304 54 260 q 153 395 98 349 q 298 486 208 441 q 228 592 248 549 q 208 682 208 635 q 275 833 208 762 q 364 888 307 868 q 482 908 421 908 q 626 856 571 908 q 681 746 681 804 q 626 625 681 677 q 469 524 571 574 l 475 517 q 621 297 522 435 q 628 290 624 292 q 636 288 632 288 q 643 292 640 288 q 770 493 739 418 m 328 440 q 251 342 271 391 q 232 236 232 293 q 272 104 232 165 q 355 43 313 43 q 448 66 407 43 q 532 146 489 90 q 328 440 436 273 z "},"'":{"ha":298,"x_min":71,"x_max":224,"o":"m 136 571 l 115 576 q 71 821 71 812 q 95 872 71 848 q 161 896 119 896 q 204 887 189 896 q 221 869 218 879 q 224 844 224 860 l 172 579 l 136 571 z "},"(":{"ha":437,"x_min":50,"x_max":414,"o":"m 50 351 q 140 704 50 533 q 375 1000 231 875 l 414 953 q 210 351 210 714 q 414 -252 210 -22 l 372 -296 q 218 -129 283 -219 q 122 31 153 -39 q 74 176 92 100 q 53 286 56 252 q 50 351 50 319 z "},")":{"ha":437,"x_min":24,"x_max":387,"o":"m 387 349 q 297 -4 387 167 q 62 -300 207 -175 l 24 -253 q 228 349 228 -14 q 24 951 228 722 l 65 996 q 219 829 154 919 q 315 670 285 739 q 364 525 346 600 q 385 415 382 449 q 387 349 387 380 z "},"*":{"ha":601,"x_min":104,"x_max":492,"o":"m 273 786 q 216 793 223 794 q 137 791 169 781 q 104 844 104 802 q 116 875 104 861 q 150 889 127 889 q 217 859 176 889 q 282 817 257 828 q 260 886 279 846 q 240 943 240 926 q 257 981 240 964 q 293 997 273 997 q 331 985 314 997 q 349 949 349 972 q 332 883 349 929 q 314 817 315 838 q 377 860 342 829 q 437 892 412 892 q 478 876 465 892 q 492 844 492 860 q 396 789 492 789 q 321 785 346 789 q 370 750 338 766 q 421 716 403 733 q 439 667 439 699 q 425 637 439 648 q 395 627 411 627 q 348 648 364 627 q 319 709 332 669 q 296 766 307 749 q 275 705 285 745 q 250 646 265 665 q 199 627 235 627 q 169 638 180 627 q 158 665 158 650 q 176 716 158 699 q 225 750 195 733 q 273 786 256 766 z "},"+":{"ha":745,"x_min":85,"x_max":663,"o":"m 425 374 l 663 374 l 663 271 l 425 271 l 425 45 l 322 45 l 322 271 l 85 271 l 85 374 l 322 374 l 322 602 l 425 602 l 425 374 z "},",":{"ha":338,"x_min":40,"x_max":277,"o":"m 155 176 q 244 133 212 176 q 277 5 277 89 q 254 -74 277 -29 q 201 -150 232 -119 q 50 -232 134 -218 q 40 -189 29 -218 q 129 -123 85 -178 q 174 -37 174 -68 q 123 8 174 -7 q 85 39 102 15 q 68 89 68 64 q 98 144 68 113 q 155 176 129 176 z "},"-":{"ha":497,"x_min":53,"x_max":444,"o":"m 379 298 l 104 298 q 53 328 53 298 q 74 378 53 347 q 117 408 96 408 l 395 408 q 444 379 445 408 q 422 330 444 362 q 379 298 400 298 z "},".":{"ha":338,"x_min":68,"x_max":271,"o":"m 68 81 q 98 150 68 121 q 171 179 129 179 q 241 151 212 179 q 271 83 271 123 q 240 16 271 45 q 168 -14 210 -14 q 97 14 126 -14 q 68 81 68 42 z "},"/":{"ha":439,"x_min":3,"x_max":419,"o":"m 419 947 l 90 -29 l 3 -29 l 332 947 l 419 947 z "},":":{"ha":355,"x_min":83,"x_max":286,"o":"m 83 504 q 114 573 83 544 q 186 603 144 603 q 257 575 228 603 q 286 507 286 547 q 256 439 286 469 q 183 410 225 410 q 113 437 142 410 q 83 504 83 465 m 83 94 q 114 164 83 134 q 186 193 144 193 q 257 165 228 193 q 286 97 286 138 q 256 29 286 58 q 183 0 225 0 q 113 28 142 0 q 83 94 83 56 z "},";":{"ha":355,"x_min":56,"x_max":292,"o":"m 83 504 q 114 573 83 544 q 186 603 144 603 q 257 575 228 603 q 286 507 286 547 q 256 439 286 469 q 183 410 225 410 q 113 437 142 410 q 83 504 83 465 m 171 176 q 260 133 228 176 q 292 5 292 89 q 270 -74 292 -29 q 216 -150 248 -119 q 65 -232 149 -218 q 56 -189 44 -218 q 145 -123 100 -178 q 189 -37 189 -68 q 139 8 189 -7 q 101 39 118 15 q 83 89 83 64 q 114 144 83 113 q 171 176 144 176 z "},"<":{"ha":711,"x_min":58,"x_max":654,"o":"m 212 334 l 654 172 l 654 86 l 58 302 l 58 364 l 654 581 l 654 494 l 212 334 z "},"=":{"ha":765,"x_min":82,"x_max":685,"o":"m 685 275 l 685 197 l 82 197 l 82 275 l 685 275 m 685 449 l 685 370 l 82 370 l 82 449 l 685 449 z "},">":{"ha":711,"x_min":58,"x_max":654,"o":"m 498 330 l 58 492 l 58 578 l 654 359 l 654 298 l 58 83 l 58 170 l 498 330 z "},"?":{"ha":597,"x_min":36,"x_max":557,"o":"m 176 791 q 183 757 176 778 q 189 717 189 736 q 168 676 189 692 q 115 660 147 660 q 62 682 87 660 q 36 741 36 704 q 110 860 36 799 q 300 914 175 914 q 487 856 418 914 q 557 701 557 798 q 544 633 557 665 q 503 572 530 602 q 455 526 475 542 q 400 484 436 510 q 358 450 374 465 q 328 399 343 435 q 313 318 313 364 l 313 300 q 304 262 313 272 q 267 253 296 253 q 231 264 240 253 q 222 300 222 275 l 222 321 q 226 387 222 361 q 252 459 229 412 q 321 547 275 505 q 397 711 397 615 q 370 820 397 777 q 286 864 342 864 q 208 842 240 864 q 176 791 176 821 m 168 81 q 199 150 168 121 q 271 179 229 179 q 342 151 313 179 q 371 83 371 123 q 340 16 371 45 q 268 -14 310 -14 q 197 14 227 -14 q 168 81 168 42 z "},"@":{"ha":1372,"x_min":127,"x_max":1236,"o":"m 814 444 q 774 529 814 529 q 661 476 710 529 q 575 228 575 385 q 653 100 575 100 q 774 268 721 100 q 814 444 814 401 m 889 111 q 914 92 889 92 q 968 109 937 92 q 1035 159 1000 126 q 1094 251 1069 192 q 1118 379 1118 310 q 1090 541 1118 467 q 1018 664 1063 615 q 918 747 974 713 q 806 796 861 781 q 700 811 751 811 q 540 779 618 811 q 399 686 463 746 q 297 529 335 625 q 258 317 258 432 q 274 188 258 253 q 325 58 289 122 q 413 -57 361 -7 q 546 -138 465 -107 q 724 -168 627 -168 q 1015 -64 889 -168 l 1044 -104 q 891 -193 966 -164 q 697 -222 815 -222 q 288 -76 448 -222 q 127 307 127 71 q 199 578 127 452 q 407 783 271 704 q 713 863 543 863 q 1090 731 945 863 q 1236 399 1236 599 q 1131 143 1236 253 q 886 33 1026 33 q 778 54 800 33 q 750 119 750 79 q 675 58 718 79 q 603 36 632 36 q 467 75 511 36 q 412 220 412 123 q 530 464 412 351 q 770 576 647 576 q 900 524 857 576 l 951 570 l 989 554 l 907 203 q 889 111 889 125 z "},"A":{"ha":1027,"x_min":3,"x_max":1019,"o":"m 379 393 l 590 393 l 477 722 l 467 722 l 344 412 q 342 404 342 408 q 345 399 343 401 q 352 395 347 397 q 363 394 357 394 q 379 393 370 393 m 229 110 q 225 86 228 96 q 233 68 222 75 q 249 57 243 61 q 272 50 256 53 q 298 47 289 47 q 325 45 307 46 q 330 21 330 39 q 325 -3 330 3 q 140 0 222 0 q 9 -3 113 0 q 3 21 3 3 q 9 45 3 39 q 66 53 45 47 q 109 79 86 58 q 149 142 132 100 l 450 852 q 603 914 501 852 l 889 119 q 908 84 896 98 q 926 64 920 71 q 956 52 933 57 q 981 47 978 47 q 1014 45 985 47 q 1019 21 1019 39 q 1014 -3 1019 3 q 828 0 911 0 q 590 -3 693 0 q 583 21 583 3 q 590 45 583 39 q 612 45 598 45 q 633 47 625 46 q 651 48 640 47 q 667 51 661 49 q 679 55 672 53 q 690 61 686 57 q 695 71 693 65 q 696 83 697 77 q 693 100 696 90 l 615 326 l 351 326 q 317 321 326 326 q 302 302 309 317 l 229 110 z "},"B":{"ha":908,"x_min":17,"x_max":844,"o":"m 336 781 l 336 522 l 414 522 q 575 679 575 522 q 433 840 575 840 q 354 827 371 840 q 336 781 336 814 m 336 464 l 336 117 q 353 70 336 83 q 428 56 370 56 q 537 75 493 56 q 603 127 582 94 q 632 192 624 160 q 640 260 640 224 q 589 409 640 354 q 435 464 538 464 l 336 464 m 240 896 q 330 897 260 896 q 437 899 400 899 q 770 682 769 899 q 731 578 770 629 q 636 501 693 526 l 636 498 q 794 410 745 469 q 844 258 844 351 q 756 69 844 140 q 468 -3 668 -3 q 343 -1 422 -3 q 240 0 264 0 l 26 -3 q 17 21 17 3 q 26 45 17 39 q 78 50 61 46 q 112 65 94 53 q 135 102 129 77 q 142 170 142 127 l 142 726 q 135 793 142 768 q 112 831 129 819 q 78 846 94 843 q 26 851 61 850 q 17 876 17 858 q 26 899 17 893 q 240 896 184 896 z "},"C":{"ha":980,"x_min":52,"x_max":904,"o":"m 904 174 q 551 -14 761 -14 q 220 74 342 -14 q 95 232 139 131 q 52 437 52 334 q 195 786 52 659 q 553 914 339 914 q 748 883 652 914 q 857 851 843 852 q 888 636 881 705 q 828 629 857 619 q 732 796 796 736 q 538 856 668 856 q 338 743 416 856 q 261 464 261 629 q 346 179 261 300 q 550 58 431 58 q 859 203 726 58 q 884 193 869 203 q 904 174 899 183 z "},"D":{"ha":1019,"x_min":33,"x_max":953,"o":"m 353 165 q 381 77 353 99 q 486 56 410 56 q 571 74 529 56 q 653 129 614 92 q 718 236 693 167 q 743 395 743 304 q 738 522 743 467 q 714 640 733 578 q 665 744 696 703 q 576 812 633 785 q 439 839 518 839 q 353 734 353 839 l 353 165 m 257 0 l 43 -3 q 33 21 33 4 q 43 45 33 39 q 94 50 77 46 q 129 65 111 53 q 152 102 146 77 q 158 170 158 127 l 158 726 q 152 793 158 768 q 129 831 146 819 q 95 846 111 843 q 43 851 78 850 q 33 876 33 858 q 43 899 33 893 q 257 896 201 896 q 344 897 282 896 q 444 897 406 897 q 821 765 690 897 q 953 429 953 633 q 922 241 953 325 q 840 114 892 158 q 482 -3 707 -3 q 370 -1 454 -3 q 257 0 285 0 z "},"E":{"ha":838,"x_min":8,"x_max":785,"o":"m 441 507 q 539 524 513 507 q 568 596 566 541 q 599 603 575 603 q 628 596 623 603 q 625 476 625 513 q 628 354 625 451 q 599 347 623 347 q 568 354 575 347 q 538 423 566 403 q 441 443 511 443 l 329 443 l 329 125 q 346 78 329 97 q 386 58 363 58 l 526 58 q 722 236 672 58 q 785 229 757 244 q 776 158 782 208 q 763 67 770 107 q 747 -3 755 28 q 555 0 623 0 l 229 0 q 14 -3 82 -1 q 8 21 8 3 q 14 45 8 39 q 113 67 92 47 q 135 170 135 87 l 135 725 q 113 828 135 808 q 14 851 92 848 q 8 875 8 858 q 14 899 8 892 l 228 896 l 637 896 q 705 901 673 896 q 711 897 711 901 q 715 855 713 893 q 722 768 718 817 q 728 696 725 720 q 668 689 703 684 q 610 804 643 770 q 504 838 576 838 l 386 838 q 346 817 362 838 q 329 770 329 796 l 329 507 l 441 507 z "},"F":{"ha":749,"x_min":8,"x_max":734,"o":"m 329 170 q 337 102 329 128 q 366 65 346 77 q 404 50 386 53 q 458 45 422 46 q 469 21 469 38 q 458 -3 469 4 q 233 0 347 0 q 20 -3 130 0 q 8 21 9 3 q 20 45 8 39 q 71 50 54 46 q 105 65 87 53 q 129 102 122 77 q 135 170 135 127 l 135 725 q 113 828 135 808 q 14 851 92 848 q 8 875 8 858 q 14 899 8 892 l 228 896 l 644 896 q 713 901 680 896 q 718 897 718 901 q 722 853 720 893 q 728 763 725 814 q 734 689 732 713 q 675 682 709 677 q 616 801 648 764 q 511 838 583 838 l 386 838 q 346 817 362 838 q 329 770 329 796 l 329 479 l 441 479 q 539 496 513 479 q 568 568 566 513 q 599 575 575 575 q 628 568 623 575 q 625 449 625 485 q 628 326 625 424 q 599 319 623 319 q 568 326 575 319 q 538 395 566 375 q 441 415 511 415 l 329 415 l 329 170 z "},"G":{"ha":1048,"x_min":45,"x_max":1022,"o":"m 566 914 q 770 890 661 914 q 909 865 879 865 q 940 637 925 710 l 879 629 q 767 792 848 729 q 546 856 686 856 q 335 753 414 856 q 254 454 254 647 q 273 312 254 380 q 329 181 292 243 q 434 82 367 119 q 590 45 501 45 q 685 57 647 45 q 757 103 722 69 l 757 310 q 732 360 757 349 q 643 376 708 371 q 636 403 636 383 q 643 428 636 422 q 850 425 774 425 q 1015 428 932 425 q 1022 403 1022 422 q 1015 376 1022 383 q 967 359 983 374 q 951 310 951 345 l 951 147 q 974 109 951 126 q 793 19 905 52 q 558 -14 681 -14 q 197 92 328 -14 q 84 241 123 151 q 45 427 45 330 q 197 785 45 656 q 566 914 348 914 z "},"H":{"ha":1135,"x_min":33,"x_max":1103,"o":"m 783 726 q 777 793 783 768 q 753 831 771 819 q 719 846 736 843 q 668 851 703 850 q 659 876 659 858 q 668 899 659 893 q 882 896 779 896 q 1093 899 981 896 q 1103 876 1103 893 q 1093 851 1103 859 q 1042 846 1059 850 q 1007 831 1025 843 q 984 794 990 819 q 978 726 978 768 l 978 170 q 984 102 978 128 q 1007 65 990 77 q 1042 50 1025 53 q 1093 45 1059 46 q 1103 21 1103 39 q 1093 -3 1103 3 q 882 0 982 0 q 668 -3 779 0 q 659 21 659 4 q 668 45 659 37 q 719 50 703 46 q 753 65 736 53 q 777 102 771 77 q 783 170 783 127 l 783 443 l 353 443 l 353 170 q 359 102 353 128 q 383 65 366 77 q 417 50 400 53 q 468 45 433 46 q 478 21 477 38 q 468 -3 478 4 q 257 0 357 0 q 43 -3 154 0 q 33 21 33 4 q 43 45 33 39 q 94 50 77 46 q 129 65 111 53 q 152 102 146 77 q 158 170 158 127 l 158 726 q 152 793 158 768 q 129 831 146 819 q 95 846 111 843 q 43 851 78 850 q 33 876 33 858 q 43 899 33 893 q 257 896 154 896 q 468 899 357 896 q 478 876 477 893 q 468 851 478 859 q 417 846 433 850 q 383 831 400 843 q 359 794 366 819 q 353 726 353 768 l 353 510 l 783 510 l 783 726 z "},"I":{"ha":509,"x_min":33,"x_max":478,"o":"m 158 726 q 152 793 158 768 q 129 831 146 819 q 95 846 111 843 q 43 851 78 850 q 33 876 33 858 q 43 899 33 893 q 257 896 154 896 q 468 899 357 896 q 478 876 477 893 q 468 851 478 859 q 417 846 433 850 q 383 831 400 843 q 359 794 366 819 q 353 726 353 768 l 353 170 q 359 102 353 128 q 383 65 366 77 q 417 50 400 53 q 468 45 433 46 q 478 21 477 38 q 468 -3 478 4 q 257 0 357 0 q 43 -3 154 0 q 33 21 33 4 q 43 45 33 39 q 94 50 77 46 q 129 65 111 53 q 152 102 146 77 q 158 170 158 127 l 158 726 z "},"J":{"ha":517,"x_min":-97,"x_max":503,"o":"m 390 725 l 390 143 q 378 18 390 73 q 341 -75 366 -37 q 298 -133 317 -113 q 249 -179 279 -154 q 39 -260 155 -260 q -48 -232 0 -260 q -97 -161 -97 -204 q -68 -109 -97 -134 q -17 -83 -39 -83 q 17 -90 3 -83 q 37 -105 32 -97 q 51 -126 43 -113 q 64 -146 60 -140 q 127 -178 89 -178 q 164 -169 151 -178 q 184 -126 176 -160 q 194 -40 192 -92 q 196 113 196 12 l 196 725 q 172 828 196 808 q 61 851 149 848 q 56 875 56 858 q 61 899 56 892 q 292 896 200 896 q 497 899 361 896 q 503 875 503 892 q 497 851 503 859 q 410 828 431 848 q 390 725 390 807 z "},"K":{"ha":980,"x_min":33,"x_max":1008,"o":"m 158 726 q 152 793 158 768 q 129 831 146 819 q 95 846 111 843 q 43 851 78 850 q 33 876 33 858 q 43 899 33 893 q 257 896 154 896 q 468 899 357 896 q 478 876 477 893 q 468 851 478 859 q 417 846 433 850 q 383 831 400 843 q 359 794 366 819 q 353 726 353 768 l 353 490 q 397 505 374 493 q 444 537 419 517 q 514 597 469 557 q 663 729 620 685 q 656 851 771 840 q 650 875 650 858 q 656 899 650 892 q 827 896 787 896 q 958 899 828 896 q 964 875 964 892 q 958 851 964 859 q 903 840 928 847 q 851 812 879 832 q 811 784 823 793 q 763 742 800 776 q 717 700 726 708 l 566 566 q 555 555 559 560 q 550 545 551 550 q 548 537 549 541 q 548 530 547 534 q 549 525 549 526 q 590 463 549 513 l 895 103 q 1003 45 936 53 q 1008 21 1008 39 q 1003 -3 1008 3 q 848 0 872 0 q 696 -3 751 0 q 689 5 690 -3 q 639 103 685 44 l 429 376 q 393 415 408 404 q 353 429 378 426 l 353 170 q 359 102 353 128 q 383 65 366 77 q 417 50 400 53 q 468 45 433 46 q 478 21 477 38 q 468 -3 478 4 q 257 0 357 0 q 43 -3 154 0 q 33 21 33 4 q 43 45 33 39 q 94 50 77 46 q 129 65 111 53 q 152 102 146 77 q 158 170 158 127 l 158 726 z "},"L":{"ha":801,"x_min":33,"x_max":770,"o":"m 485 58 q 636 105 587 58 q 710 236 686 151 q 770 229 745 241 q 733 -3 756 109 q 567 0 607 0 l 256 0 q 43 -3 203 0 q 33 21 33 4 q 43 45 33 39 q 94 50 77 46 q 129 65 111 53 q 152 102 146 77 q 158 170 158 127 l 158 726 q 152 793 158 768 q 129 831 146 819 q 95 846 111 843 q 43 851 78 850 q 33 876 33 858 q 43 899 33 893 q 257 896 201 896 q 308 897 282 896 q 379 898 334 897 q 468 899 424 899 q 478 876 477 893 q 468 851 478 859 q 417 846 433 850 q 383 831 400 843 q 359 794 366 819 q 353 726 353 768 l 353 168 q 401 58 353 58 l 485 58 z "},"M":{"ha":1249,"x_min":8,"x_max":1222,"o":"m 920 161 l 885 742 l 882 742 l 570 7 q 543 -11 562 -12 q 515 7 522 -11 l 242 692 l 237 692 l 200 171 q 211 78 195 106 q 292 45 228 50 q 297 21 297 39 q 292 -3 297 3 q 134 0 208 0 q 14 -3 98 0 q 8 21 8 3 q 14 45 8 39 q 91 76 71 50 q 118 168 111 102 l 174 741 q 166 832 180 817 q 79 851 153 847 q 72 875 73 858 q 79 899 72 892 l 364 896 l 612 279 l 619 279 l 884 896 l 1162 899 q 1169 875 1169 892 q 1162 851 1169 859 q 1078 829 1094 847 q 1067 753 1063 811 l 1109 168 q 1112 119 1111 136 q 1119 86 1114 102 q 1129 64 1124 70 q 1148 53 1134 59 q 1175 46 1162 47 q 1215 45 1188 45 q 1222 21 1222 39 q 1215 -3 1222 3 q 1064 0 1124 0 q 832 -3 962 0 q 825 21 825 3 q 832 45 825 39 q 871 46 860 46 q 896 52 882 47 q 913 62 910 57 q 920 82 916 67 q 923 113 924 97 q 920 161 922 130 z "},"N":{"ha":1027,"x_min":28,"x_max":997,"o":"m 876 0 q 789 -17 842 -17 q 733 45 760 9 l 268 597 q 235 625 245 625 q 224 597 224 625 l 224 184 q 236 93 224 121 q 268 58 248 65 q 345 45 289 50 q 350 21 350 39 q 345 -3 350 3 q 189 0 205 0 q 33 -3 170 0 q 28 21 28 3 q 33 45 28 39 q 110 58 89 50 q 142 94 131 66 q 154 184 154 122 l 154 764 q 117 821 147 794 q 45 851 86 848 q 39 875 39 858 q 45 899 39 892 l 271 896 l 395 750 l 763 316 q 788 297 779 298 q 800 321 798 296 l 800 711 q 788 803 800 775 q 755 838 777 831 q 679 851 734 846 q 672 875 672 858 q 679 899 672 892 q 840 896 818 896 q 990 899 854 896 q 997 875 997 892 q 990 851 997 859 q 914 838 935 846 q 881 802 893 829 q 869 711 869 774 l 869 142 l 876 0 z "},"O":{"ha":1014,"x_min":52,"x_max":964,"o":"m 488 856 q 325 757 388 856 q 261 457 261 659 q 338 156 261 267 q 533 45 415 45 q 696 149 637 45 q 754 428 754 253 q 679 744 754 632 q 488 856 604 856 m 964 457 q 844 123 964 253 q 505 -14 717 -14 q 186 109 321 -14 q 52 429 52 231 q 164 758 52 625 q 314 873 226 831 q 504 914 401 914 q 831 787 699 914 q 964 457 964 660 z "},"P":{"ha":852,"x_min":33,"x_max":819,"o":"m 481 908 q 713 863 635 908 q 819 672 820 799 q 726 452 819 528 q 463 385 646 385 q 414 389 443 385 q 386 447 386 407 q 456 443 415 443 q 575 491 541 443 q 610 648 610 539 q 436 851 610 851 q 368 826 383 851 q 353 728 353 802 l 353 170 q 359 102 353 128 q 383 65 366 77 q 417 50 400 53 q 468 45 433 46 q 478 21 477 38 q 468 -3 478 4 q 257 0 357 0 q 43 -3 154 0 q 33 21 33 4 q 43 45 33 39 q 94 50 77 46 q 129 65 111 53 q 152 102 146 77 q 158 170 158 127 l 158 726 q 152 793 158 768 q 129 831 146 819 q 95 846 111 843 q 43 851 78 850 q 33 876 33 858 q 43 899 33 893 q 262 903 71 899 q 481 908 453 908 z "},"Q":{"ha":1014,"x_min":52,"x_max":974,"o":"m 488 856 q 325 757 388 856 q 261 457 261 659 q 338 156 261 267 q 533 45 415 45 q 696 149 637 45 q 754 428 754 253 q 679 744 754 632 q 488 856 604 856 m 964 457 q 844 123 964 253 q 738 41 798 74 q 604 -5 677 8 q 448 -83 534 -24 q 456 -83 453 -83 q 588 -115 519 -83 q 718 -179 656 -147 q 829 -211 779 -211 q 950 -160 909 -211 l 974 -191 q 774 -318 885 -318 q 654 -295 713 -318 q 556 -245 595 -272 q 468 -195 517 -218 q 376 -172 419 -172 q 326 -191 353 -172 q 275 -254 298 -222 l 221 -212 q 225 -206 223 -209 q 230 -199 227 -203 q 234 -193 232 -196 q 239 -187 237 -190 q 245 -180 242 -184 q 456 -12 332 -77 q 301 31 374 -3 q 173 121 229 66 q 84 256 117 176 q 52 429 52 336 q 164 758 52 625 q 314 873 226 831 q 504 914 401 914 q 831 787 699 914 q 964 457 964 660 z "},"R":{"ha":994,"x_min":33,"x_max":985,"o":"m 616 648 q 436 851 616 851 q 368 826 383 851 q 353 728 353 802 l 353 452 l 412 452 q 564 491 512 452 q 616 648 616 530 m 481 908 q 713 863 635 908 q 819 672 820 799 q 772 515 819 575 q 659 428 725 456 l 847 136 q 907 66 879 87 q 981 45 936 45 q 985 20 985 37 q 982 -3 986 4 q 840 -14 960 -14 q 657 110 742 -14 l 494 351 q 455 385 479 376 q 353 393 431 393 l 353 170 q 359 102 353 128 q 383 65 366 77 q 417 50 400 53 q 468 45 433 46 q 478 21 477 38 q 468 -3 478 4 q 257 0 357 0 q 43 -3 154 0 q 33 21 33 4 q 43 45 33 39 q 94 50 77 46 q 129 65 111 53 q 152 102 146 77 q 158 170 158 127 l 158 726 q 152 793 158 768 q 129 831 146 819 q 95 846 111 843 q 43 851 78 850 q 33 876 33 858 q 43 899 33 893 q 262 903 71 899 q 481 908 453 908 z "},"S":{"ha":700,"x_min":37,"x_max":643,"o":"m 585 876 q 600 665 600 750 q 530 659 576 646 q 508 729 519 700 q 475 791 496 758 q 422 840 454 823 q 349 857 390 857 q 262 824 294 857 q 231 732 231 790 q 280 630 231 679 q 385 553 329 581 q 571 422 511 488 q 643 256 643 343 q 549 62 643 146 q 339 -14 464 -14 q 159 0 229 -14 q 64 14 89 14 q 37 243 37 102 q 107 248 85 255 q 190 100 128 156 q 323 45 252 45 q 428 77 387 45 q 468 160 468 109 q 342 338 468 250 q 272 378 326 347 q 175 441 218 410 q 103 513 132 473 q 57 673 57 574 q 147 847 57 775 q 350 914 231 913 q 502 896 427 914 q 585 876 578 878 z "},"T":{"ha":905,"x_min":4,"x_max":897,"o":"m 562 171 q 586 67 562 87 q 697 45 610 47 q 703 21 703 39 q 697 -3 703 3 q 463 0 558 0 q 233 -3 370 0 q 228 21 228 3 q 233 45 228 39 q 345 67 321 47 q 368 171 368 87 l 368 703 q 354 805 368 770 q 302 840 339 840 l 235 840 q 122 807 164 840 q 58 693 79 774 q 4 700 22 693 q 39 903 32 819 q 45 907 39 907 q 368 896 185 896 l 564 896 q 875 907 748 896 q 879 903 879 907 q 897 704 880 810 q 843 697 882 697 q 782 808 826 775 q 657 840 737 840 l 627 840 q 576 805 591 840 q 562 699 562 770 l 562 171 z "},"U":{"ha":1017,"x_min":8,"x_max":1011,"o":"m 315 725 l 315 374 q 318 278 315 315 q 337 193 321 241 q 386 114 354 144 q 551 45 458 45 q 668 66 619 45 q 743 119 717 87 q 785 199 770 150 q 804 288 800 248 q 807 385 807 329 l 807 725 q 803 792 807 770 q 781 828 799 815 q 744 844 762 840 q 679 851 726 847 q 672 875 672 858 q 679 899 672 892 q 856 896 818 896 q 1004 899 868 896 q 1011 875 1011 892 q 1004 851 1011 859 q 937 840 954 846 q 908 808 920 833 q 897 725 897 782 l 897 410 q 810 98 897 210 q 522 -14 724 -14 q 241 45 332 -14 q 121 328 121 124 l 121 725 q 101 828 121 807 q 14 851 81 848 q 8 875 8 858 q 14 899 8 892 q 216 896 153 896 q 443 899 307 896 q 450 875 450 892 q 443 851 450 859 q 337 828 359 848 q 315 725 315 808 z "},"V":{"ha":972,"x_min":3,"x_max":970,"o":"m 825 754 q 879 829 849 811 q 964 851 909 847 q 969 875 969 858 q 964 899 970 892 q 833 896 861 896 q 648 899 751 896 q 642 875 642 892 q 648 851 642 859 q 703 844 682 848 q 739 826 724 840 q 745 786 754 811 l 553 292 l 530 237 l 509 300 l 336 796 q 336 823 331 813 q 358 839 340 833 q 392 847 375 844 q 439 851 410 850 q 444 875 444 858 q 439 899 444 892 q 195 896 336 896 q 8 899 111 896 q 3 875 3 892 q 8 851 3 859 q 60 844 43 847 q 99 824 78 840 q 134 777 121 807 l 436 16 q 482 -17 448 -16 q 529 16 517 -17 l 825 754 z "},"W":{"ha":1428,"x_min":8,"x_max":1419,"o":"m 798 851 l 993 300 l 1013 241 l 1031 292 l 1187 758 q 1171 820 1200 794 q 1099 851 1142 846 q 1092 875 1092 858 q 1099 899 1092 892 q 1283 896 1202 896 q 1414 899 1311 896 q 1419 875 1419 892 q 1414 851 1419 859 q 1370 841 1391 850 q 1329 818 1348 833 q 1295 780 1310 803 q 1268 726 1279 756 l 1007 16 q 960 -17 996 -16 q 933 -6 949 -17 q 914 16 918 4 l 701 569 l 493 16 q 446 -17 481 -16 q 400 16 411 -17 l 139 777 q 95 831 125 817 q 14 851 64 846 q 8 875 8 858 q 14 899 8 892 q 200 896 117 896 q 444 899 342 896 q 450 875 450 892 q 444 851 450 859 q 397 847 414 850 q 364 839 380 844 q 342 823 347 833 q 342 796 336 812 l 493 300 l 506 256 l 517 292 l 715 851 q 798 851 758 842 z "},"X":{"ha":997,"x_min":8,"x_max":989,"o":"m 603 123 l 475 342 q 452 369 461 366 q 433 358 443 372 q 277 114 385 290 q 338 46 246 52 q 345 22 345 39 q 338 -1 345 5 q 168 1 227 1 q 14 -1 98 1 q 8 22 8 5 q 14 46 8 39 q 73 55 49 50 q 121 75 96 60 q 163 113 145 89 l 392 404 q 408 438 409 427 q 386 478 407 449 l 186 760 q 120 831 147 813 q 49 851 94 848 q 42 875 42 858 q 47 899 41 892 q 262 896 131 896 q 467 899 355 896 q 472 875 472 892 q 467 851 472 859 q 402 830 411 848 q 418 774 393 812 l 525 595 q 539 574 534 581 q 551 568 545 568 q 565 576 557 568 q 636 671 604 621 q 704 783 669 722 q 643 851 734 846 q 636 875 636 858 q 643 899 636 892 q 804 896 754 896 q 946 899 863 896 q 953 875 953 892 q 946 851 953 859 q 862 833 895 846 q 803 785 830 819 l 615 540 q 598 503 597 517 q 622 454 600 488 l 837 138 q 903 67 873 85 q 982 46 934 50 q 989 22 989 39 q 983 -1 989 5 q 786 1 900 1 q 570 -1 680 1 q 564 22 564 5 q 570 46 564 39 q 629 68 624 49 q 603 123 633 87 z "},"Y":{"ha":866,"x_min":1,"x_max":867,"o":"m 538 170 q 561 66 538 86 q 672 43 585 46 q 677 19 677 36 q 672 -3 677 3 q 452 0 533 0 q 208 -3 345 0 q 203 19 203 3 q 208 43 203 36 q 319 66 296 45 q 343 170 343 86 l 343 359 q 338 413 343 397 q 315 461 334 429 l 138 760 q 80 831 106 815 q 8 851 55 848 q 1 875 1 858 q 7 899 1 892 q 204 896 90 896 q 376 899 265 896 q 383 875 383 892 q 376 851 383 859 q 312 830 321 848 q 328 774 302 812 l 473 518 q 504 514 490 488 l 647 783 q 645 831 664 814 q 576 851 625 848 q 570 875 570 858 q 576 899 570 892 q 730 896 688 896 q 860 899 777 896 q 867 875 867 892 q 860 851 867 859 q 786 834 810 846 q 739 785 762 823 l 561 488 q 538 372 537 448 l 538 170 z "},"Z":{"ha":866,"x_min":28,"x_max":836,"o":"m 596 61 q 712 111 664 61 q 782 245 761 161 q 836 239 819 245 q 799 -7 819 69 q 793 -11 799 -11 q 469 0 652 0 l 54 0 q 28 21 28 0 q 39 53 28 37 l 558 804 q 555 836 581 836 l 290 836 q 113 661 155 836 q 58 668 75 661 q 94 903 83 777 q 100 907 94 907 q 424 896 240 896 l 703 896 q 756 897 725 896 q 794 899 787 899 q 818 885 818 899 q 787 821 818 865 l 296 100 q 284 71 280 80 q 318 61 288 61 l 596 61 z "},"[":{"ha":551,"x_min":135,"x_max":481,"o":"m 135 -268 l 135 977 l 475 977 q 480 956 480 970 q 475 935 481 942 q 336 913 376 928 q 284 872 296 899 q 273 779 273 846 l 273 -69 q 278 -144 273 -121 q 303 -187 282 -167 q 362 -214 325 -207 q 475 -227 400 -221 q 480 -247 480 -233 q 475 -268 481 -261 l 135 -268 z "},"\\":{"ha":426,"x_min":16,"x_max":425,"o":"m 106 970 l 425 -66 l 335 -66 l 16 970 l 106 970 z "},"]":{"ha":551,"x_min":72,"x_max":419,"o":"m 419 974 l 419 -271 l 79 -271 q 72 -250 73 -264 q 79 -229 72 -236 q 218 -208 178 -222 q 270 -167 258 -193 q 281 -74 281 -140 l 281 775 q 276 849 281 827 q 251 892 272 872 q 192 920 229 913 q 79 932 154 926 q 72 952 73 939 q 79 974 72 966 l 419 974 z "},"^":{"ha":719,"x_min":155,"x_max":566,"o":"m 359 790 l 235 481 l 155 481 l 332 903 l 390 903 l 566 481 l 486 481 l 359 790 z "},"_":{"ha":675,"x_min":7,"x_max":669,"o":"m 669 -143 l 669 -214 l 7 -214 l 7 -143 l 669 -143 z "},"`":{"ha":544,"x_min":143,"x_max":383,"o":"m 275 936 l 371 764 q 383 728 383 741 q 376 712 383 718 q 359 705 370 705 q 311 733 342 705 l 143 879 l 146 895 q 186 923 158 908 q 248 939 214 939 q 275 936 264 939 z "},"a":{"ha":703,"x_min":61,"x_max":700,"o":"m 410 67 l 401 66 q 313 12 364 37 q 235 -14 262 -14 q 61 132 61 -14 q 121 248 61 208 q 310 328 180 288 l 403 357 q 375 518 403 477 q 296 558 347 558 q 237 527 241 558 q 237 509 236 519 q 239 492 238 499 q 242 476 241 484 q 243 461 243 467 q 218 416 243 435 q 157 397 193 397 q 102 416 119 397 q 85 467 85 435 q 129 546 85 510 q 231 599 173 581 q 343 616 290 616 q 581 376 581 616 l 578 176 q 586 103 578 123 q 616 83 595 83 q 675 103 650 83 q 700 64 700 82 q 518 -14 618 -14 q 410 67 424 -14 m 403 302 l 330 279 q 274 254 296 269 q 242 222 252 240 q 231 190 233 204 q 228 153 228 176 q 247 93 228 117 q 309 69 267 69 q 403 119 340 69 l 403 302 z "},"b":{"ha":753,"x_min":4,"x_max":705,"o":"m 103 176 l 103 785 q 89 869 103 854 q 8 889 75 884 q 4 933 -3 909 q 265 970 176 940 q 288 951 288 970 q 283 810 283 900 l 283 539 q 440 616 391 617 q 631 546 568 616 q 705 338 706 460 q 607 90 705 193 q 389 -14 509 -14 q 186 41 258 -14 q 142 -18 168 4 q 94 -8 123 -18 q 103 176 103 71 m 283 484 l 283 93 q 382 45 323 44 q 511 319 511 45 q 478 468 511 418 q 392 518 446 518 q 283 484 336 518 z "},"c":{"ha":633,"x_min":52,"x_max":586,"o":"m 586 121 q 480 24 546 62 q 354 -14 415 -14 q 138 58 214 -14 q 52 279 52 139 q 142 523 52 429 q 359 616 232 616 q 526 571 465 616 q 586 472 586 525 q 565 417 586 439 q 510 395 543 395 q 451 413 476 395 q 424 460 427 432 q 401 529 420 500 q 347 558 382 558 q 232 328 232 558 q 288 151 232 218 q 425 85 345 85 q 568 164 482 85 q 586 121 586 163 z "},"d":{"ha":779,"x_min":52,"x_max":761,"o":"m 488 132 q 488 143 488 138 q 488 155 488 149 q 488 167 488 161 l 488 509 q 440 549 465 540 q 383 558 416 558 q 281 498 317 558 q 245 318 246 441 q 280 140 245 201 q 370 78 315 78 q 391 83 376 78 q 424 96 406 88 q 460 114 441 104 q 488 132 478 123 m 492 66 l 481 66 q 391 15 446 43 q 311 -14 336 -14 q 224 -1 257 -14 q 149 45 191 12 q 76 145 100 82 q 52 275 52 208 q 152 515 52 413 q 387 616 253 616 q 488 601 443 616 l 488 782 q 474 866 488 852 q 393 886 460 880 q 389 933 382 906 q 650 970 561 940 q 672 951 672 970 q 668 810 668 900 l 668 184 q 685 103 668 125 q 758 77 703 82 q 761 32 766 50 q 530 -14 643 16 q 498 9 500 -14 q 492 66 495 34 z "},"e":{"ha":672,"x_min":52,"x_max":612,"o":"m 239 382 l 428 382 q 431 411 431 385 q 404 522 431 486 q 342 558 376 558 q 304 546 326 558 q 267 511 282 533 q 239 382 241 473 m 591 179 q 612 136 612 179 q 353 -14 509 -14 q 140 56 216 -14 q 52 275 52 136 q 145 522 52 427 q 357 616 239 616 q 482 595 431 616 q 559 536 533 574 q 596 458 585 498 q 607 370 607 418 q 567 326 607 327 l 233 326 q 233 317 233 323 q 232 304 232 310 q 278 155 232 205 q 407 106 323 106 q 591 179 519 105 z "},"f":{"ha":543,"x_min":25,"x_max":624,"o":"m 319 178 q 339 70 319 93 q 427 45 359 47 q 433 21 433 39 q 427 -3 433 3 q 229 0 307 0 q 32 -3 149 0 q 25 21 25 3 q 32 45 25 39 q 119 70 98 47 q 139 175 139 93 l 139 533 l 69 533 q 32 547 32 533 l 32 585 q 136 603 32 603 l 139 603 l 139 631 q 165 780 139 721 q 237 889 192 839 q 433 970 313 970 q 578 936 532 970 q 624 867 624 903 q 602 801 624 824 q 545 778 581 778 q 482 800 509 778 q 446 857 456 822 q 431 899 437 888 q 407 911 424 911 q 386 906 396 911 q 362 887 375 901 q 341 847 350 872 q 326 778 332 822 q 319 673 319 733 l 319 603 l 460 603 q 488 589 488 603 l 488 557 q 439 533 488 533 l 319 533 l 319 178 z "},"g":{"ha":724,"x_min":16,"x_max":710,"o":"m 403 400 q 310 564 403 564 q 250 532 269 564 q 231 424 231 500 q 328 250 231 250 q 382 280 361 250 q 403 400 403 310 m 243 -35 q 182 -26 203 -35 q 167 -134 166 -54 q 211 -231 167 -189 q 321 -272 254 -272 q 415 -267 372 -272 q 488 -245 458 -261 q 538 -190 520 -227 q 555 -113 555 -153 q 243 -35 555 -35 m 648 547 q 607 563 625 547 q 583 595 589 578 q 557 611 575 612 q 520 596 546 611 q 486 572 494 582 q 572 404 572 502 q 504 257 572 317 q 321 197 436 197 q 219 212 251 197 q 211 197 218 210 q 202 174 205 184 q 199 154 199 164 q 261 96 199 96 q 478 85 366 96 q 627 50 590 74 q 696 -77 696 3 q 566 -258 696 -185 q 282 -330 436 -330 q 69 -285 135 -330 q 16 -147 15 -248 q 55 -80 16 -127 q 136 -8 94 -33 q 79 31 96 4 q 61 94 61 58 q 97 157 61 114 q 171 233 134 201 q 93 309 122 260 q 64 411 64 359 q 158 572 64 511 q 322 616 226 617 q 439 600 408 616 q 526 656 473 631 q 621 682 578 682 q 684 660 658 682 q 710 615 710 637 q 648 547 709 547 z "},"h":{"ha":859,"x_min":25,"x_max":847,"o":"m 733 178 q 753 70 733 93 q 840 45 774 47 q 847 21 847 39 q 840 -3 847 3 q 643 0 721 0 q 473 -3 590 0 q 467 21 467 3 q 473 45 467 39 q 536 72 519 47 q 553 178 553 96 l 553 410 q 449 514 553 514 q 319 460 404 514 l 319 176 q 335 71 319 94 q 399 45 351 47 q 406 21 406 39 q 399 -3 406 3 q 229 0 279 0 q 32 -3 149 0 q 25 21 25 3 q 32 45 25 39 q 119 70 98 47 q 139 176 139 93 l 139 785 q 125 869 139 854 q 45 889 111 884 q 40 933 34 909 q 301 970 212 940 q 323 951 323 970 q 319 810 319 900 l 319 516 q 549 616 479 616 q 733 395 733 616 l 733 178 z "},"i":{"ha":447,"x_min":36,"x_max":428,"o":"m 322 170 q 339 67 322 86 q 422 45 355 49 q 428 21 428 39 q 422 -3 428 3 q 232 0 303 0 q 41 -3 158 0 q 36 21 36 3 q 41 45 36 39 q 125 68 108 50 q 142 170 142 86 l 142 436 q 126 511 142 494 q 52 533 110 528 q 49 578 43 559 q 296 616 270 607 q 328 593 328 616 q 328 588 328 591 q 327 576 328 585 q 326 557 326 567 q 324 533 325 547 q 323 506 323 519 q 322 476 323 492 q 322 446 322 460 l 322 170 m 135 828 q 160 888 135 863 q 232 914 186 914 q 297 886 272 914 q 322 822 322 857 q 294 764 322 791 q 224 736 267 736 q 159 764 184 736 q 135 828 135 792 z "},"j":{"ha":433,"x_min":-121,"x_max":328,"o":"m 142 436 q 126 511 142 494 q 52 533 110 528 q 49 578 43 559 q 296 616 270 607 q 328 593 328 616 q 322 446 322 515 l 322 153 q 294 -115 322 -29 q 210 -244 265 -200 q 118 -302 163 -283 q -1 -322 72 -322 q -80 -296 -40 -322 q -121 -229 -121 -271 q -96 -174 -121 -201 q -52 -146 -71 -146 q -30 -149 -41 -146 q -11 -155 -18 -151 q 6 -166 -3 -158 q 20 -178 16 -174 q 33 -192 24 -182 q 45 -203 43 -201 q 86 -228 70 -228 q 133 -197 115 -228 q 151 -127 151 -165 q 146 -6 151 -80 q 142 106 142 68 l 142 436 m 132 828 q 158 888 132 863 q 229 914 183 914 q 294 886 269 914 q 319 822 319 857 q 292 764 319 791 q 221 736 264 736 q 157 764 181 736 q 132 828 132 792 z "},"k":{"ha":851,"x_min":25,"x_max":839,"o":"m 139 176 l 139 785 q 125 869 139 854 q 45 889 111 884 q 40 933 34 909 q 301 970 212 940 q 323 951 323 970 q 319 810 319 900 l 319 346 q 389 359 349 346 q 443 385 429 372 q 472 412 457 397 q 502 446 486 427 q 532 485 517 464 q 546 540 559 526 q 475 558 533 554 q 469 582 469 564 q 475 606 469 600 q 643 603 578 603 q 798 606 736 603 q 803 582 803 600 q 798 558 803 564 q 751 551 772 555 q 710 535 730 546 q 682 519 691 524 q 653 496 672 515 q 632 475 635 477 q 609 450 630 473 l 541 374 q 545 346 532 364 l 705 109 q 719 91 712 99 q 733 76 725 82 q 745 65 741 69 q 758 58 750 61 q 771 53 766 54 q 786 50 775 52 q 799 47 796 47 q 815 46 802 47 q 832 45 828 45 q 839 21 839 39 q 832 -3 839 3 q 646 0 729 0 l 534 -3 l 532 0 l 532 36 q 510 109 532 61 q 415 264 486 159 q 319 290 397 290 l 319 176 q 334 72 319 96 q 385 45 349 49 q 392 21 391 39 q 385 -3 392 3 q 229 0 318 0 q 32 -3 149 0 q 25 21 25 3 q 32 45 25 39 q 119 70 98 47 q 139 176 139 93 z "},"l":{"ha":451,"x_min":25,"x_max":433,"o":"m 139 176 l 139 785 q 125 869 139 854 q 45 889 111 884 q 40 933 34 909 q 301 970 212 940 q 323 951 323 970 q 319 810 319 900 l 319 176 q 339 70 319 93 q 427 45 359 47 q 433 21 433 39 q 427 -3 433 3 q 229 0 307 0 q 32 -3 149 0 q 25 21 25 3 q 32 45 25 39 q 119 70 98 47 q 139 176 139 93 z "},"m":{"ha":1257,"x_min":31,"x_max":1239,"o":"m 317 170 q 329 68 317 87 q 389 45 342 49 q 394 21 394 39 q 389 -3 395 3 q 227 0 269 0 q 36 -3 153 0 q 31 21 31 3 q 36 45 31 39 q 119 68 102 50 q 136 170 136 86 l 136 429 q 120 504 136 488 q 46 526 104 521 q 43 571 38 553 q 273 616 161 587 q 306 593 304 616 q 313 519 311 561 q 449 589 388 562 q 543 616 509 616 q 576 614 560 616 q 606 607 592 612 q 633 596 621 603 q 655 581 645 589 q 675 562 666 572 q 690 541 684 552 q 701 516 696 529 q 843 586 771 555 q 950 616 915 616 q 1083 563 1040 616 q 1125 395 1125 509 l 1125 178 q 1145 70 1125 93 q 1232 45 1165 47 q 1239 21 1239 39 q 1232 -3 1239 3 q 1035 0 1113 0 q 865 -3 982 0 q 859 21 859 3 q 865 45 859 39 q 928 72 911 47 q 945 178 945 96 l 945 410 q 850 514 945 514 q 826 511 841 514 q 794 503 812 508 q 755 489 777 497 q 716 471 734 480 q 720 439 718 460 q 721 395 721 419 l 721 178 q 738 72 721 96 q 800 45 754 47 q 806 21 806 39 q 800 -3 806 3 q 631 0 681 0 q 461 -3 578 0 q 456 21 456 3 q 461 45 456 39 q 524 72 507 47 q 541 178 541 96 l 541 410 q 443 514 541 514 q 389 502 423 514 q 317 467 354 490 q 317 446 317 453 l 317 170 z "},"n":{"ha":855,"x_min":31,"x_max":844,"o":"m 317 170 q 329 68 317 87 q 389 45 342 49 q 394 21 394 39 q 389 -3 395 3 q 227 0 269 0 q 36 -3 153 0 q 31 21 31 3 q 36 45 31 39 q 119 68 102 50 q 136 170 136 86 l 136 429 q 120 504 136 488 q 46 526 104 521 q 43 571 38 553 q 273 616 161 587 q 306 593 304 616 q 315 503 312 551 q 546 616 480 617 q 730 395 730 616 l 730 178 q 751 70 730 93 q 838 45 771 47 q 844 21 844 39 q 838 -3 844 3 q 640 0 718 0 q 471 -3 587 0 q 464 21 464 3 q 471 45 464 39 q 533 72 517 47 q 550 178 550 96 l 550 410 q 453 514 550 514 q 317 449 412 514 l 317 446 l 317 170 z "},"o":{"ha":765,"x_min":52,"x_max":714,"o":"m 361 558 q 245 318 245 558 q 287 134 245 222 q 404 45 328 45 q 485 94 450 45 q 519 256 519 143 q 476 478 519 397 q 361 558 433 558 m 52 288 q 127 514 52 427 q 383 616 217 617 q 624 528 534 616 q 714 300 714 439 q 619 65 714 150 q 382 -14 530 -14 q 146 70 240 -14 q 52 288 52 153 z "},"p":{"ha":806,"x_min":25,"x_max":754,"o":"m 132 429 q 116 504 132 488 q 41 526 100 521 q 39 571 33 553 q 269 616 157 587 q 301 593 300 616 q 309 524 305 562 l 317 524 q 405 588 357 559 q 481 616 453 616 q 671 547 602 616 q 732 449 709 509 q 754 329 754 389 q 659 81 754 175 q 406 -14 564 -14 q 313 9 358 -14 l 313 -153 q 329 -255 313 -236 q 412 -278 346 -273 q 419 -301 419 -283 q 412 -325 419 -319 q 222 -322 293 -322 q 32 -325 149 -322 q 25 -301 25 -319 q 32 -278 25 -283 q 115 -254 98 -273 q 132 -153 132 -236 l 132 429 m 313 90 q 397 45 355 44 q 520 118 481 45 q 559 292 559 191 q 522 464 559 404 q 436 524 485 524 q 375 509 410 524 q 312 469 340 494 q 313 446 313 457 l 313 90 z "},"q":{"ha":795,"x_min":50,"x_max":778,"o":"m 671 -153 q 687 -255 671 -236 q 771 -278 704 -273 q 778 -301 778 -283 q 771 -325 778 -319 q 581 -322 652 -322 q 390 -325 507 -322 q 383 -301 383 -319 q 390 -278 383 -283 q 473 -254 456 -273 q 490 -153 490 -236 l 490 39 l 484 39 q 335 -14 371 -14 q 161 39 235 -14 q 50 289 50 118 q 155 521 50 425 q 400 616 260 616 q 544 566 478 616 q 598 601 567 585 q 644 616 630 616 q 676 593 676 616 q 675 569 675 584 q 672 516 674 555 q 671 446 671 477 l 671 -153 m 490 98 l 490 508 q 396 558 449 559 q 287 491 330 558 q 244 318 244 424 q 290 121 244 179 q 400 64 336 64 q 443 74 414 64 q 490 98 472 85 z "},"r":{"ha":594,"x_min":31,"x_max":578,"o":"m 317 372 l 317 170 q 333 67 317 86 q 416 45 350 49 q 422 21 422 39 q 416 -3 422 3 q 227 0 297 0 q 36 -3 153 0 q 31 21 31 3 q 36 45 31 39 q 119 68 102 50 q 136 170 136 86 l 136 429 q 120 505 136 488 q 46 528 103 522 q 43 571 38 553 q 273 616 123 579 q 306 593 302 616 q 315 484 313 525 l 321 484 q 486 616 414 617 q 550 592 522 616 q 578 539 578 567 q 553 467 578 496 q 498 438 529 438 q 431 461 454 438 q 423 469 428 464 q 416 476 418 473 q 409 482 413 479 q 401 486 405 485 q 394 488 398 488 q 350 464 374 488 q 325 428 334 448 q 317 372 317 407 z "},"s":{"ha":593,"x_min":66,"x_max":524,"o":"m 66 203 q 122 205 97 210 q 188 85 143 130 q 281 40 232 40 q 337 58 311 40 q 363 109 363 77 q 292 216 363 185 q 131 332 197 259 q 87 436 88 379 q 135 545 87 496 q 322 616 205 616 q 478 583 401 616 q 496 436 496 519 q 441 429 477 424 q 311 558 389 558 q 263 542 282 558 q 244 500 244 525 q 319 392 244 423 q 481 285 427 345 q 524 165 524 237 q 449 34 524 81 q 283 -14 374 -14 q 90 17 178 -14 q 66 203 76 75 z "},"t":{"ha":497,"x_min":29,"x_max":475,"o":"m 87 603 l 126 603 q 142 764 126 743 q 158 774 146 769 q 189 786 171 780 q 215 795 208 791 q 261 810 231 802 q 299 819 292 819 q 310 807 310 819 q 302 650 306 742 l 301 603 l 464 603 q 475 595 475 603 l 475 551 q 441 533 475 533 l 301 533 q 302 329 301 455 q 302 176 302 203 q 320 105 302 127 q 364 83 338 83 q 443 103 418 83 q 468 64 468 82 q 390 10 446 33 q 279 -14 335 -14 q 164 25 210 -14 q 122 146 123 61 q 126 533 122 351 l 36 533 q 29 542 29 533 l 29 582 q 87 603 53 603 z "},"u":{"ha":830,"x_min":25,"x_max":802,"o":"m 708 184 q 726 103 708 125 q 799 77 743 82 q 802 32 807 50 q 571 -14 684 16 q 539 9 541 -14 q 532 71 536 36 q 404 11 469 35 q 301 -14 338 -14 q 123 208 123 -14 l 123 425 q 103 531 123 507 q 31 558 83 555 q 25 582 25 564 q 31 606 25 600 q 214 603 150 603 q 293 606 243 603 q 307 558 307 592 q 306 524 307 553 q 304 425 304 494 l 304 193 q 328 108 304 127 q 401 89 351 89 q 529 126 469 89 q 528 148 528 137 q 528 168 528 158 l 528 425 q 510 531 528 509 q 435 558 492 553 q 428 582 428 564 q 435 606 428 600 q 618 603 554 603 q 697 606 644 603 q 711 558 711 592 q 710 524 711 553 q 708 425 708 494 l 708 184 z "},"v":{"ha":734,"x_min":8,"x_max":728,"o":"m 475 558 q 469 582 469 564 q 475 606 469 600 q 629 603 578 603 q 721 606 660 603 q 728 582 728 600 q 721 558 728 564 q 675 548 694 555 q 644 524 657 541 q 623 494 630 508 q 602 450 615 479 l 411 16 q 357 -17 397 -16 q 307 12 318 -17 l 125 452 q 117 473 123 458 q 109 492 111 488 q 102 508 107 496 q 93 522 96 519 q 84 532 90 525 q 72 542 78 540 q 57 549 66 545 q 38 555 48 553 q 14 558 27 557 q 8 582 8 564 q 14 606 8 600 q 184 603 117 603 q 359 606 256 603 q 367 582 366 600 q 359 558 367 564 q 332 554 343 557 q 313 550 321 551 q 302 541 305 548 q 297 532 299 534 q 297 518 294 529 q 301 503 300 507 q 308 483 302 499 q 317 460 314 466 l 404 212 q 411 200 408 203 q 419 205 414 198 l 529 460 q 542 533 553 513 q 475 558 530 554 z "},"w":{"ha":1079,"x_min":14,"x_max":1067,"o":"m 669 460 l 761 227 q 771 217 765 217 q 781 229 777 217 l 861 448 q 871 527 882 499 q 806 558 859 554 q 800 582 800 564 q 806 606 800 600 q 968 603 909 603 q 1060 606 998 603 q 1067 582 1067 600 q 1060 558 1067 564 q 1025 552 1041 557 q 998 537 1010 547 q 977 519 986 528 q 960 495 968 510 q 947 468 951 479 q 934 438 942 457 l 764 16 q 715 -17 751 -16 q 661 12 673 -17 l 528 358 l 397 16 q 346 -17 385 -16 q 300 12 311 -17 l 131 452 q 126 465 129 456 q 89 534 106 517 q 20 558 71 552 q 14 582 14 564 q 20 606 14 600 q 191 603 123 603 q 372 606 270 603 q 378 582 378 600 q 372 558 378 564 q 307 534 315 553 q 318 471 299 514 q 322 460 321 464 l 401 224 q 410 214 406 214 q 416 222 414 214 l 549 588 q 627 587 583 584 q 669 460 644 526 z "},"x":{"ha":779,"x_min":17,"x_max":764,"o":"m 254 102 q 244 79 246 90 q 247 64 243 69 q 259 54 250 58 q 274 48 268 50 q 292 45 281 46 q 297 21 297 39 q 292 -3 297 3 q 139 0 236 0 q 24 -3 79 0 q 17 21 17 3 q 24 45 17 39 q 161 110 119 57 l 289 268 q 293 289 298 280 l 170 465 q 109 537 135 515 q 40 558 83 558 q 33 582 33 564 q 40 606 33 600 q 215 603 96 603 q 410 606 354 603 q 416 582 416 600 q 410 558 416 564 q 358 546 367 554 q 368 500 350 538 l 430 395 q 448 392 439 380 l 522 498 q 535 542 543 528 q 489 558 526 555 q 484 582 484 564 q 489 606 484 600 q 628 603 545 603 q 745 606 689 603 q 750 582 750 600 q 745 558 750 564 q 612 490 661 549 l 489 340 q 492 319 484 332 l 614 138 q 757 45 668 58 q 764 21 764 39 q 757 -3 764 3 q 571 0 701 0 q 382 -3 437 0 q 375 21 375 3 q 382 45 375 39 q 428 58 420 50 q 421 100 436 65 l 354 226 q 340 222 349 235 l 254 102 z "},"y":{"ha":774,"x_min":8,"x_max":766,"o":"m 336 -233 q 253 -309 309 -282 q 174 -322 224 -322 q 119 -297 140 -322 q 103 -241 102 -277 q 126 -198 103 -218 q 186 -178 149 -178 q 208 -180 194 -178 q 235 -183 222 -183 q 278 -167 262 -183 q 309 -115 294 -151 l 342 -39 q 345 -24 343 -28 q 340 -8 346 -20 q 330 7 334 3 q 317 25 326 12 q 302 45 307 37 l 123 456 q 77 537 94 521 q 14 558 60 554 q 8 582 8 564 q 14 606 8 600 q 168 603 69 603 q 353 606 250 603 q 358 582 358 600 q 353 558 358 564 q 289 533 294 554 q 307 469 283 511 l 436 179 q 438 174 438 176 q 439 176 438 175 l 582 497 q 588 522 591 511 q 581 539 585 533 q 565 550 578 546 q 542 555 551 554 q 515 558 532 557 q 509 582 509 564 q 515 606 509 600 q 663 603 618 603 q 761 606 692 603 q 766 582 766 600 q 761 558 766 564 q 695 530 725 555 q 648 471 665 504 q 396 -103 528 215 q 336 -233 363 -187 z "},"z":{"ha":627,"x_min":24,"x_max":593,"o":"m 85 619 q 105 614 92 618 q 133 608 118 610 q 167 606 147 606 l 435 606 q 486 606 453 606 q 547 608 519 607 q 576 608 575 608 q 593 598 593 608 q 568 547 593 589 q 401 282 490 418 q 243 58 313 147 l 244 54 l 378 54 q 458 75 431 54 q 514 153 486 96 l 533 193 q 589 184 573 193 q 545 -4 573 80 l 56 0 q 24 17 24 0 q 36 45 24 28 q 372 549 207 275 l 370 551 l 228 547 q 115 414 151 545 q 56 418 83 407 q 77 611 75 534 q 85 619 77 619 z "},"{":{"ha":426,"x_min":10,"x_max":406,"o":"m 289 766 l 300 536 q 268 409 304 450 q 154 346 232 368 l 154 340 q 268 260 231 309 q 300 132 304 212 l 289 -75 q 318 -210 285 -159 q 400 -261 351 -261 q 406 -278 406 -267 q 400 -294 406 -289 q 212 -244 281 -294 q 147 -68 143 -193 l 155 168 q 20 321 159 304 q 11 342 12 329 q 20 366 9 355 q 123 414 90 372 q 155 514 155 456 l 147 770 q 218 930 143 878 q 400 982 293 982 q 406 965 406 975 q 400 949 406 956 q 359 933 375 942 q 323 906 343 925 q 294 853 302 888 q 289 766 286 818 z "},"|":{"ha":305,"x_min":111,"x_max":195,"o":"m 195 -323 l 111 -323 l 111 970 l 195 970 l 195 -323 z "},"}":{"ha":426,"x_min":20,"x_max":416,"o":"m 138 -78 l 126 153 q 158 280 122 239 q 272 343 195 321 l 272 349 q 159 428 195 380 q 126 557 122 476 l 138 764 q 109 899 142 847 q 26 950 75 950 q 20 967 20 956 q 26 983 20 978 q 215 932 146 983 q 279 757 283 882 l 271 521 q 407 368 267 385 q 416 347 415 360 q 407 323 416 334 q 303 275 336 317 q 271 175 271 233 l 279 -81 q 209 -241 283 -189 q 26 -293 134 -293 q 20 -276 20 -286 q 26 -260 20 -267 q 67 -244 52 -253 q 103 -217 83 -236 q 132 -164 123 -199 q 138 -78 140 -130 z "},"~":{"ha":656,"x_min":28,"x_max":625,"o":"m 211 372 q 64 283 101 372 l 50 288 q 28 328 37 303 q 87 419 46 383 q 163 464 127 454 q 232 473 199 473 q 366 429 321 473 q 441 389 406 389 q 589 478 551 389 l 603 473 q 625 433 616 458 q 538 320 599 353 q 421 288 478 288 q 356 301 393 288 q 293 339 318 315 q 211 372 257 372 z "},"":{"ha":347,"x_min":0,"x_max":0,"o":""},"":{"ha":369,"x_min":83,"x_max":286,"o":"m 184 -311 q 114 -284 143 -311 q 85 -207 85 -257 q 104 -60 85 -167 q 146 283 143 178 q 184 342 147 342 q 217 325 210 342 q 227 267 225 307 q 265 -64 231 129 q 285 -207 285 -161 q 254 -286 285 -260 q 184 -311 223 -311 m 286 522 q 256 453 286 482 q 183 424 225 424 q 113 452 142 424 q 83 519 83 479 q 114 587 83 558 q 186 616 144 616 q 257 589 228 616 q 286 522 286 561 z "},"":{"ha":749,"x_min":83,"x_max":618,"o":"m 364 811 l 411 811 l 411 715 q 563 666 507 710 q 618 571 618 621 q 596 515 618 538 q 542 493 575 493 q 484 512 509 493 q 456 558 458 530 q 411 648 450 626 l 411 190 q 457 183 433 184 q 600 262 514 183 q 618 220 618 262 q 525 131 582 168 q 411 86 469 94 l 411 -17 l 364 -17 l 364 85 q 170 157 241 90 q 83 378 83 237 q 164 611 83 519 q 364 714 245 703 l 364 811 m 364 211 l 364 656 q 264 427 264 640 q 291 297 264 353 q 364 211 318 241 z "},"":{"ha":749,"x_min":39,"x_max":650,"o":"m 114 406 q 75 421 75 406 l 75 443 q 140 471 75 471 l 183 471 l 183 504 q 214 659 183 597 q 302 778 244 721 q 513 852 386 853 q 563 849 538 852 q 615 828 587 846 q 643 781 643 810 q 622 723 643 745 q 564 701 600 701 q 497 737 533 701 q 482 762 489 745 q 467 788 475 779 q 446 798 460 798 q 364 575 363 798 l 364 471 l 489 471 q 532 456 532 471 l 532 433 q 511 413 532 420 q 465 406 490 406 l 363 406 q 241 140 357 236 q 334 130 294 140 q 393 109 374 120 q 434 87 412 97 q 479 78 456 78 q 551 99 513 78 q 616 155 590 121 l 650 135 q 577 27 627 73 q 454 -18 526 -18 q 311 25 395 -18 q 203 68 228 68 q 160 58 170 68 q 150 31 150 47 q 130 -13 150 3 q 86 -28 110 -28 q 54 -16 69 -28 q 39 9 39 -4 q 111 106 39 65 q 144 142 131 121 q 171 228 158 163 q 183 395 183 294 l 183 406 l 114 406 z "},"":{"ha":643,"x_min":32,"x_max":611,"o":"m 158 416 q 204 295 158 345 q 319 245 250 245 q 435 295 389 245 q 481 415 481 345 q 433 536 481 487 q 322 586 385 586 q 206 536 254 586 q 158 416 158 487 m 463 207 q 319 170 396 170 q 180 204 243 170 q 146 161 170 191 q 117 123 122 131 l 32 205 l 106 265 q 46 415 46 340 q 107 568 46 494 q 35 625 58 604 l 111 704 l 180 628 q 322 663 245 663 q 460 627 394 663 q 530 711 524 702 l 611 627 l 534 564 q 593 415 593 493 q 536 268 593 345 q 608 207 564 245 l 533 126 l 463 207 z "},"":{"ha":749,"x_min":12,"x_max":745,"o":"m 664 245 l 664 187 l 485 187 l 485 170 q 508 67 485 86 q 619 45 532 47 q 625 21 625 39 q 619 -3 625 3 q 406 0 480 0 q 170 -3 306 0 q 164 21 164 3 q 170 45 164 39 q 281 67 257 47 q 304 170 304 86 l 304 187 l 136 187 l 136 245 l 304 245 l 304 340 l 136 340 l 136 399 l 300 399 q 271 461 296 416 l 150 684 q 92 762 122 737 q 20 789 62 786 q 13 812 13 795 q 18 836 12 829 q 208 833 102 833 q 374 836 262 833 q 380 812 380 831 q 374 789 380 794 q 306 774 318 786 q 310 737 294 762 l 414 518 q 436 491 427 492 q 456 514 446 490 l 553 737 q 548 776 564 766 q 484 789 533 786 q 478 812 478 794 q 484 836 478 831 q 624 833 595 833 q 739 836 656 833 q 745 812 745 831 q 739 789 745 794 q 664 766 692 784 q 618 708 637 749 l 510 488 q 485 399 486 440 l 664 399 l 664 340 l 485 340 l 485 245 l 664 245 z "},"":{"ha":305,"x_min":111,"x_max":195,"o":"m 195 936 l 195 433 l 111 433 l 111 936 l 195 936 m 195 224 l 195 -279 l 111 -279 l 111 224 l 195 224 z "},"":{"ha":647,"x_min":41,"x_max":607,"o":"m 505 123 q 568 -36 568 45 q 505 -176 568 -118 q 310 -235 441 -235 q 148 -185 224 -235 q 72 -52 72 -136 q 96 -4 72 -25 q 146 17 121 17 q 210 -10 184 17 q 235 -54 235 -37 q 223 -95 235 -75 q 212 -121 212 -114 q 218 -142 212 -129 q 247 -171 224 -155 q 307 -186 271 -186 q 386 -150 356 -186 q 415 -46 415 -114 q 401 3 415 -21 q 358 48 387 26 q 308 82 329 69 q 252 115 288 96 q 89 240 136 179 q 41 383 41 301 q 137 559 41 473 q 89 700 89 621 q 108 778 89 736 q 161 851 127 821 q 339 914 231 913 q 511 867 445 914 q 576 733 576 819 q 551 685 576 705 q 498 664 525 664 q 437 690 460 664 q 415 734 415 717 q 425 775 415 758 q 435 802 435 793 q 345 865 435 865 q 261 826 289 865 q 233 728 233 787 q 258 658 233 683 q 339 607 283 633 q 450 550 414 571 q 529 492 485 529 q 590 411 572 456 q 607 304 607 366 q 505 123 607 209 m 164 529 q 152 493 155 513 q 149 450 149 473 q 192 346 149 395 q 343 244 235 297 q 476 154 420 208 q 500 237 500 186 q 439 368 500 318 q 224 489 379 418 q 194 506 209 496 q 164 529 178 516 z "},"":{"ha":569,"x_min":79,"x_max":490,"o":"m 360 742 q 349 753 360 742 q 338 796 338 764 q 360 850 338 828 q 414 872 382 872 q 468 850 446 872 q 490 796 490 828 q 468 743 490 766 q 414 721 446 721 q 360 742 382 721 m 79 796 q 101 850 79 828 q 155 872 123 872 q 210 850 187 872 q 232 796 232 828 q 210 742 232 764 q 155 721 187 721 q 101 743 123 721 q 79 796 79 766 z "},"":{"ha":890,"x_min":45,"x_max":846,"o":"m 610 302 q 550 244 589 268 q 464 220 511 220 q 315 278 370 220 q 260 425 260 338 q 317 568 260 510 q 456 625 374 625 q 510 622 486 625 q 546 614 534 618 q 571 605 557 611 q 590 597 586 599 q 603 500 601 531 q 578 496 597 496 q 533 563 553 546 q 469 579 513 579 q 406 543 432 579 q 380 424 380 507 q 482 275 380 275 q 586 323 554 275 q 610 302 599 319 m 446 24 q 162 142 279 24 q 45 425 45 260 q 163 708 45 590 q 446 825 281 825 q 728 708 611 825 q 846 425 846 590 q 728 142 846 260 q 446 24 611 24 m 446 757 q 213 659 309 757 q 117 425 117 561 q 213 191 117 289 q 446 93 310 93 q 677 191 581 93 q 774 425 774 289 q 677 659 774 561 q 446 757 581 757 z "},"":{"ha":412,"x_min":21,"x_max":389,"o":"m 231 730 q 221 825 232 801 q 183 848 210 848 q 122 819 122 848 q 125 803 122 811 q 129 785 129 794 q 112 758 129 769 q 75 746 96 746 q 42 757 57 746 q 28 790 28 768 q 83 860 28 829 q 186 890 138 890 q 288 864 256 890 q 336 728 339 823 l 334 616 q 335 573 332 587 q 342 555 338 558 q 353 551 346 551 q 375 559 362 551 l 389 538 q 294 498 344 499 q 232 545 237 498 q 127 498 186 498 q 52 519 79 498 q 21 596 21 542 q 178 717 21 675 l 231 730 m 228 582 l 231 693 q 123 600 123 659 q 170 550 123 550 q 228 582 195 550 z "},"":{"ha":770,"x_min":103,"x_max":660,"o":"m 103 288 l 103 310 q 315 516 247 439 q 358 566 336 539 q 399 534 387 556 q 254 298 315 374 q 399 62 315 222 q 358 32 388 41 q 264 135 312 86 q 194 205 216 183 q 103 288 171 227 m 364 288 l 364 310 q 576 516 508 439 q 619 566 597 539 q 660 534 648 556 q 515 298 576 374 q 660 62 576 222 q 619 32 649 41 q 526 135 573 86 q 455 205 478 183 q 364 288 432 227 z "},"":{"ha":777,"x_min":33,"x_max":746,"o":"m 643 184 l 643 482 l 33 482 l 33 557 l 746 557 l 746 184 l 643 184 z "},"":{"ha":486,"x_min":53,"x_max":444,"o":"m 379 298 l 104 298 q 53 328 53 298 q 74 378 53 347 q 117 408 96 408 l 395 408 q 444 379 445 408 q 422 330 444 362 q 379 298 400 298 z "},"":{"ha":890,"x_min":45,"x_max":846,"o":"m 587 517 q 567 458 587 485 q 528 422 547 432 l 509 411 l 575 297 q 631 254 600 254 l 631 236 q 599 231 612 231 q 504 283 530 231 l 437 392 q 400 396 429 396 l 400 269 q 410 260 400 260 l 427 260 q 441 252 442 260 l 441 232 q 347 235 366 235 l 269 232 l 269 252 q 285 260 269 260 l 301 260 q 313 271 312 260 l 313 574 q 307 589 313 589 l 285 587 q 271 596 271 587 l 271 614 q 456 621 319 621 q 556 589 525 621 q 587 517 587 557 m 501 517 q 439 593 501 593 q 400 589 411 593 l 400 429 q 436 431 422 429 q 466 440 449 433 q 492 467 484 447 q 501 517 501 486 m 446 24 q 162 142 279 24 q 45 425 45 260 q 163 708 45 590 q 446 825 281 825 q 728 708 611 825 q 846 425 846 590 q 728 142 846 260 q 446 24 611 24 m 446 757 q 213 659 309 757 q 117 425 117 561 q 213 191 117 289 q 446 93 310 93 q 677 191 581 93 q 774 425 774 289 q 677 659 774 561 q 446 757 581 757 z "},"":{"ha":551,"x_min":82,"x_max":471,"o":"m 437 721 l 98 721 q 82 749 81 721 q 92 779 82 762 q 113 796 102 796 l 452 796 q 471 770 471 796 q 460 739 471 756 q 437 721 450 721 z "},"":{"ha":370,"x_min":39,"x_max":332,"o":"m 249 664 q 260 678 249 664 q 272 728 272 692 q 249 793 272 764 q 186 823 227 823 q 122 794 146 823 q 98 728 98 765 q 123 664 98 692 q 186 636 147 636 q 249 664 225 636 m 39 729 q 82 833 39 790 q 186 876 125 876 q 290 833 248 876 q 332 729 332 790 q 290 626 332 669 q 186 583 248 583 q 82 626 125 583 q 39 729 39 669 z "},"":{"ha":732,"x_min":85,"x_max":663,"o":"m 425 492 l 663 492 l 663 389 l 425 389 l 425 163 l 322 163 l 322 389 l 85 389 l 85 492 l 322 492 l 322 720 l 425 720 l 425 492 m 657 107 l 643 24 l 89 24 l 103 107 l 657 107 z "},"":{"ha":472,"x_min":46,"x_max":416,"o":"m 46 869 q 99 944 46 904 q 228 985 153 985 q 347 956 311 985 q 387 864 387 925 q 347 772 387 815 q 269 699 319 743 l 210 646 q 172 585 176 619 l 286 585 q 341 610 317 585 q 378 671 366 636 q 416 663 406 671 q 376 505 412 623 l 49 505 q 131 665 49 585 l 212 740 q 264 844 264 787 q 248 922 264 895 q 208 943 235 943 q 155 918 165 943 q 153 886 153 912 q 153 881 153 884 q 154 875 153 878 q 154 870 154 873 q 154 865 154 867 q 154 857 154 861 q 153 850 153 852 q 132 821 149 833 q 94 810 115 810 q 46 869 46 810 z "},"":{"ha":472,"x_min":36,"x_max":429,"o":"m 273 882 q 257 927 273 911 q 215 943 240 943 q 171 928 191 943 q 150 889 151 913 q 135 852 150 871 q 94 833 121 833 q 49 872 48 833 q 59 901 49 883 q 90 938 69 918 q 150 971 110 957 q 239 985 189 985 q 350 958 307 985 q 393 889 393 932 q 328 793 393 836 q 328 787 323 789 q 429 669 429 757 q 359 546 429 593 q 192 498 289 498 q 36 555 54 498 q 44 598 29 579 q 85 618 58 618 q 110 611 98 618 q 126 597 121 604 q 139 579 132 590 q 147 567 146 568 q 205 541 171 541 q 266 571 235 541 q 297 659 297 602 q 193 736 297 736 q 146 730 170 736 l 146 772 q 235 810 196 779 q 273 882 273 840 z "},"":{"ha":473,"x_min":134,"x_max":375,"o":"m 260 936 q 282 939 268 939 q 361 905 335 939 l 375 873 l 208 724 q 155 701 182 701 q 140 708 147 701 q 134 721 134 714 q 144 754 134 738 l 260 936 z "},"":{"ha":776,"x_min":50,"x_max":772,"o":"m 477 67 l 465 66 q 363 -2 395 9 q 294 -14 332 -14 q 231 -4 253 -14 q 231 -60 231 -11 q 237 -134 232 -110 q 254 -233 254 -205 q 229 -298 254 -275 q 167 -322 203 -322 q 102 -294 139 -322 q 65 -227 65 -267 q 75 -127 65 -192 q 89 -5 89 -37 q 87 30 89 5 q 85 64 85 54 q 74 122 83 75 q 65 191 65 170 l 65 449 l 50 603 l 241 621 q 245 476 245 521 l 245 222 q 306 74 245 74 q 397 91 352 74 q 464 136 441 107 l 464 603 l 644 623 l 644 176 q 689 83 644 83 q 747 103 722 83 q 772 64 772 82 q 585 -14 690 -14 q 477 67 490 -14 z "},"":{"ha":836,"x_min":37,"x_max":796,"o":"m 692 -200 q 702 -270 692 -256 q 747 -286 713 -285 l 787 -286 q 796 -296 795 -286 l 796 -325 l 339 -325 l 339 -296 q 347 -286 339 -286 l 387 -286 q 432 -269 422 -285 q 441 -199 441 -253 l 441 315 q 335 298 408 298 q 259 307 298 298 q 181 337 221 315 q 109 393 140 359 q 58 483 78 427 q 37 610 37 539 q 111 819 37 741 q 319 897 184 897 q 458 894 380 897 q 546 890 536 890 l 642 895 l 796 897 l 796 868 q 787 859 796 859 l 747 859 q 702 841 711 859 q 692 772 692 823 l 692 -200 m 566 -288 q 602 -269 593 -288 q 610 -201 610 -250 l 610 772 q 604 829 610 810 q 590 851 597 848 q 570 856 583 854 q 538 841 549 856 q 526 811 528 827 q 524 768 524 796 l 524 -199 q 566 -288 524 -288 z "},"":{"ha":447,"x_min":110,"x_max":338,"o":"m 224 245 q 142 279 174 245 q 110 358 110 313 q 144 437 110 403 q 224 471 178 471 q 303 438 269 471 q 338 358 338 406 q 304 279 338 312 q 224 245 271 245 z "},"":{"ha":751,"x_min":288,"x_max":538,"o":"m 328 -140 l 319 -132 l 390 9 l 437 9 l 410 -57 q 538 -174 538 -83 q 491 -262 538 -226 q 376 -298 444 -298 q 354 -298 364 -298 q 335 -294 345 -297 q 321 -290 325 -292 q 305 -283 318 -289 q 288 -275 292 -277 q 301 -239 288 -246 q 382 -258 354 -258 q 452 -201 451 -258 q 328 -140 451 -147 z "},"":{"ha":472,"x_min":94,"x_max":406,"o":"m 187 889 q 109 868 166 889 q 94 914 95 879 q 285 991 225 962 q 307 996 292 996 q 329 991 322 996 l 329 624 q 334 582 329 597 q 351 559 339 567 q 374 549 363 551 q 406 546 385 547 q 406 504 416 524 q 268 505 364 505 q 109 504 150 505 q 104 524 104 511 q 109 546 103 538 q 160 551 143 547 q 192 573 178 555 q 207 624 207 590 l 207 832 q 203 878 207 867 q 187 889 199 889 z "},"":{"ha":511,"x_min":54,"x_max":458,"o":"m 54 596 q 114 734 54 682 q 258 786 174 786 q 364 762 322 786 q 433 693 407 737 q 458 604 458 650 q 404 474 458 528 q 252 421 350 421 q 108 470 161 421 q 54 596 54 519 m 250 746 q 190 712 203 746 q 176 610 176 679 q 179 558 176 579 q 190 513 182 536 q 218 478 199 490 q 267 467 237 467 q 319 490 300 467 q 338 582 338 514 q 319 708 338 669 q 250 746 300 746 z "},"":{"ha":770,"x_min":111,"x_max":668,"o":"m 668 310 l 668 288 q 455 81 524 158 q 412 32 434 58 q 372 62 383 41 q 517 298 456 222 q 372 534 456 375 q 412 566 383 555 q 506 463 458 511 q 577 392 554 414 q 668 310 600 371 m 407 310 l 407 288 q 194 81 263 158 q 151 32 173 58 q 111 62 122 41 q 256 298 195 222 q 111 534 195 375 q 151 566 122 555 q 245 463 197 511 q 316 392 293 414 q 407 310 339 371 z "},"":{"ha":972,"x_min":90,"x_max":925,"o":"m 794 835 l 852 823 l 215 -86 l 158 -75 l 794 835 m 842 -69 l 842 -40 l 921 -40 l 925 18 l 842 18 l 842 290 q 825 304 842 304 l 755 304 q 637 151 733 274 q 507 -24 542 28 l 524 -40 l 726 -40 l 726 -69 q 712 -120 726 -102 q 680 -142 697 -138 q 628 -147 663 -146 q 623 -169 623 -155 q 628 -189 624 -182 q 761 -187 669 -188 q 911 -189 869 -187 q 911 -147 922 -170 q 871 -142 883 -146 q 850 -121 859 -138 q 842 -69 842 -104 m 183 821 q 104 800 162 821 q 90 846 91 811 q 281 924 221 893 q 303 928 288 928 q 325 924 318 928 l 325 555 q 330 514 325 529 q 347 491 335 498 q 369 481 358 484 q 401 478 380 479 q 401 436 412 456 q 264 437 360 437 q 104 436 146 437 q 99 456 100 443 q 104 478 98 469 q 156 484 139 479 q 188 505 174 488 q 203 555 203 522 l 203 764 q 199 809 203 798 q 183 821 195 821 m 726 194 l 726 18 l 595 18 l 726 194 z "},"":{"ha":972,"x_min":93,"x_max":914,"o":"m 766 835 l 825 823 l 187 -86 l 131 -75 l 766 835 m 543 254 q 596 329 543 289 q 725 370 650 370 q 844 341 808 370 q 885 249 884 310 q 844 157 885 200 q 766 83 817 127 l 707 31 q 681 1 690 17 q 669 -31 671 -15 l 783 -31 q 838 -5 814 -31 q 875 56 863 21 q 914 47 903 56 q 873 -110 910 7 l 546 -110 q 568 -28 546 -68 q 628 50 589 12 l 709 124 q 748 176 735 148 q 761 229 761 204 q 745 307 761 279 q 705 328 732 328 q 653 302 663 328 q 650 271 651 296 q 651 260 650 267 q 651 250 651 253 q 650 235 651 240 q 629 206 646 218 q 591 195 612 195 q 562 202 572 195 q 547 223 551 210 q 543 254 543 235 m 186 821 q 107 800 165 821 q 93 846 94 811 q 283 924 224 893 q 306 928 290 928 q 328 924 321 928 l 328 555 q 333 514 328 529 q 349 491 338 498 q 372 481 361 484 q 404 478 383 479 q 404 436 415 456 q 267 437 363 437 q 107 436 149 437 q 102 456 103 443 q 107 478 102 469 q 159 484 142 479 q 191 505 176 488 q 205 555 205 522 l 205 764 q 202 809 205 798 q 186 821 198 821 z "},"":{"ha":972,"x_min":33,"x_max":930,"o":"m 808 835 l 867 823 l 229 -86 l 172 -75 l 808 835 m 271 811 q 254 856 271 840 q 212 872 237 872 q 169 857 189 872 q 147 818 149 842 q 133 781 147 800 q 92 762 118 762 q 46 802 45 762 q 56 830 46 812 q 87 867 66 847 q 146 900 107 886 q 236 914 186 914 q 347 888 304 914 q 390 818 390 861 q 325 722 390 765 q 325 717 321 718 q 427 599 427 686 q 356 475 427 522 q 189 428 286 428 q 33 485 52 428 q 41 528 26 509 q 82 547 56 547 q 107 540 96 547 q 123 526 118 533 q 136 508 129 519 q 144 496 143 497 q 203 469 168 469 q 263 500 232 469 q 294 587 294 530 q 191 665 294 665 q 143 660 167 665 l 143 701 q 232 739 193 708 q 271 811 271 770 m 847 -66 l 847 -37 l 926 -37 l 930 21 l 847 21 l 847 293 q 831 307 847 307 l 761 307 q 643 154 739 277 q 513 -21 547 31 l 529 -37 l 732 -37 l 732 -66 q 717 -117 732 -100 q 685 -139 703 -135 q 633 -144 668 -143 q 629 -166 628 -153 q 633 -186 629 -179 q 766 -184 675 -184 q 917 -186 875 -184 q 917 -144 928 -166 q 877 -139 889 -143 q 856 -118 864 -135 q 847 -66 847 -101 m 732 197 l 732 21 l 600 21 l 732 197 z "},"":{"ha":597,"x_min":7,"x_max":528,"o":"m 387 -195 q 381 -160 387 -181 q 375 -119 375 -139 q 396 -78 375 -94 q 449 -62 416 -62 q 502 -85 477 -62 q 528 -143 528 -107 q 454 -262 528 -201 q 264 -317 389 -317 q 76 -258 146 -317 q 7 -104 7 -200 q 20 -36 7 -68 q 61 26 33 -4 q 108 72 89 56 q 164 114 127 87 q 206 148 191 132 q 236 198 221 163 q 252 279 252 233 l 252 297 q 260 335 252 325 q 297 345 268 345 q 333 333 323 345 q 342 297 342 322 l 342 277 q 338 211 342 237 q 312 138 335 184 q 243 50 289 92 q 167 -114 166 -18 q 195 -223 167 -179 q 278 -267 222 -267 q 356 -245 324 -267 q 387 -195 387 -224 m 396 517 q 366 447 396 477 q 293 418 335 418 q 222 446 252 418 q 193 514 193 473 q 224 582 193 553 q 296 611 254 611 q 367 583 338 611 q 396 517 396 555 z "},"":{"ha":1027,"x_min":3,"x_max":1019,"o":"m 379 393 l 590 393 l 477 722 l 467 722 l 344 412 q 342 404 342 408 q 345 399 343 401 q 352 395 347 397 q 363 394 357 394 q 379 393 370 393 m 229 110 q 225 86 228 96 q 233 68 222 75 q 249 57 243 61 q 272 50 256 53 q 298 47 289 47 q 325 45 307 46 q 330 21 330 39 q 325 -3 330 3 q 140 0 222 0 q 9 -3 113 0 q 3 21 3 3 q 9 45 3 39 q 66 53 45 47 q 109 79 86 58 q 149 142 132 100 l 450 852 q 603 914 501 852 l 889 119 q 908 84 896 98 q 926 64 920 71 q 956 52 933 57 q 981 47 978 47 q 1014 45 985 47 q 1019 21 1019 39 q 1014 -3 1019 3 q 828 0 911 0 q 590 -3 693 0 q 583 21 583 3 q 590 45 583 39 q 612 45 598 45 q 633 47 625 46 q 651 48 640 47 q 667 51 661 49 q 679 55 672 53 q 690 61 686 57 q 695 71 693 65 q 696 83 697 77 q 693 100 696 90 l 615 326 l 351 326 q 317 321 326 326 q 302 302 309 317 l 229 110 m 378 1153 q 288 1076 317 1124 l 292 1060 l 492 979 q 541 970 514 970 q 559 976 550 970 q 568 990 568 982 q 554 1019 568 1008 q 378 1153 492 1074 z "},"":{"ha":1027,"x_min":3,"x_max":1019,"o":"m 379 393 l 590 393 l 477 722 l 467 722 l 344 412 q 342 404 342 408 q 345 399 343 401 q 352 395 347 397 q 363 394 357 394 q 379 393 370 393 m 229 110 q 225 86 228 96 q 233 68 222 75 q 249 57 243 61 q 272 50 256 53 q 298 47 289 47 q 325 45 307 46 q 330 21 330 39 q 325 -3 330 3 q 140 0 222 0 q 9 -3 113 0 q 3 21 3 3 q 9 45 3 39 q 66 53 45 47 q 109 79 86 58 q 149 142 132 100 l 450 852 q 603 914 501 852 l 889 119 q 908 84 896 98 q 926 64 920 71 q 956 52 933 57 q 981 47 978 47 q 1014 45 985 47 q 1019 21 1019 39 q 1014 -3 1019 3 q 828 0 911 0 q 590 -3 693 0 q 583 21 583 3 q 590 45 583 39 q 612 45 598 45 q 633 47 625 46 q 651 48 640 47 q 667 51 661 49 q 679 55 672 53 q 690 61 686 57 q 695 71 693 65 q 696 83 697 77 q 693 100 696 90 l 615 326 l 351 326 q 317 321 326 326 q 302 302 309 317 l 229 110 m 579 1157 q 669 1080 639 1129 l 665 1064 l 465 983 q 416 974 440 974 q 398 980 407 974 q 389 994 389 986 q 403 1023 389 1011 q 579 1157 465 1078 z "},"":{"ha":1027,"x_min":3,"x_max":1019,"o":"m 720 1006 q 697 970 720 979 q 525 1047 578 1006 q 354 970 463 1001 q 335 1007 334 978 q 511 1152 424 1064 l 530 1158 q 720 1006 616 1072 m 379 393 l 590 393 l 477 722 l 467 722 l 344 412 q 342 404 342 408 q 345 399 343 401 q 352 395 347 397 q 363 394 357 394 q 379 393 370 393 m 229 110 q 225 86 228 96 q 233 68 222 75 q 249 57 243 61 q 272 50 256 53 q 298 47 289 47 q 325 45 307 46 q 330 21 330 39 q 325 -3 330 3 q 140 0 222 0 q 9 -3 113 0 q 3 21 3 3 q 9 45 3 39 q 66 53 45 47 q 109 79 86 58 q 149 142 132 100 l 450 852 q 603 914 501 852 l 889 119 q 908 84 896 98 q 926 64 920 71 q 956 52 933 57 q 981 47 978 47 q 1014 45 985 47 q 1019 21 1019 39 q 1014 -3 1019 3 q 828 0 911 0 q 590 -3 693 0 q 583 21 583 3 q 590 45 583 39 q 612 45 598 45 q 633 47 625 46 q 651 48 640 47 q 667 51 661 49 q 679 55 672 53 q 690 61 686 57 q 695 71 693 65 q 696 83 697 77 q 693 100 696 90 l 615 326 l 351 326 q 317 321 326 326 q 302 302 309 317 l 229 110 z "},"":{"ha":1027,"x_min":3,"x_max":1019,"o":"m 379 393 l 590 393 l 477 722 l 467 722 l 344 412 q 342 404 342 408 q 345 399 343 401 q 352 395 347 397 q 363 394 357 394 q 379 393 370 393 m 229 110 q 225 86 228 96 q 233 68 222 75 q 249 57 243 61 q 272 50 256 53 q 298 47 289 47 q 325 45 307 46 q 330 21 330 39 q 325 -3 330 3 q 140 0 222 0 q 9 -3 113 0 q 3 21 3 3 q 9 45 3 39 q 66 53 45 47 q 109 79 86 58 q 149 142 132 100 l 450 852 q 603 914 501 852 l 889 119 q 908 84 896 98 q 926 64 920 71 q 956 52 933 57 q 981 47 978 47 q 1014 45 985 47 q 1019 21 1019 39 q 1014 -3 1019 3 q 828 0 911 0 q 590 -3 693 0 q 583 21 583 3 q 590 45 583 39 q 612 45 598 45 q 633 47 625 46 q 651 48 640 47 q 667 51 661 49 q 679 55 672 53 q 690 61 686 57 q 695 71 693 65 q 696 83 697 77 q 693 100 696 90 l 615 326 l 351 326 q 317 321 326 326 q 302 302 309 317 l 229 110 m 607 1059 q 675 1118 652 1059 q 702 1111 690 1118 q 714 1090 714 1103 q 661 996 696 1031 q 587 961 627 961 q 497 990 536 961 q 416 1014 461 1014 q 388 1011 398 1014 q 367 996 378 1008 q 349 958 355 983 q 313 983 313 958 q 362 1076 331 1039 q 428 1112 393 1112 q 530 1078 488 1112 q 607 1059 555 1059 z "},"":{"ha":1027,"x_min":3,"x_max":1019,"o":"m 254 912 q 243 923 254 912 q 232 968 232 935 q 254 1024 232 1002 q 310 1047 277 1047 q 365 1024 343 1047 q 387 968 387 1002 q 365 912 387 935 q 310 890 343 890 q 254 912 277 890 m 695 912 q 684 923 695 912 q 672 968 672 935 q 695 1024 672 1002 q 751 1047 718 1047 q 806 1024 785 1047 q 828 968 828 1002 q 806 912 828 935 q 751 890 785 890 q 695 912 718 890 m 379 393 l 590 393 l 477 722 l 467 722 l 344 412 q 342 404 342 408 q 345 399 343 401 q 352 395 347 397 q 363 394 357 394 q 379 393 370 393 m 229 110 q 225 86 228 96 q 233 68 222 75 q 249 57 243 61 q 272 50 256 53 q 298 47 289 47 q 325 45 307 46 q 330 21 330 39 q 325 -3 330 3 q 140 0 222 0 q 9 -3 113 0 q 3 21 3 3 q 9 45 3 39 q 66 53 45 47 q 109 79 86 58 q 149 142 132 100 l 450 852 q 603 914 501 852 l 889 119 q 908 84 896 98 q 926 64 920 71 q 956 52 933 57 q 981 47 978 47 q 1014 45 985 47 q 1019 21 1019 39 q 1014 -3 1019 3 q 828 0 911 0 q 590 -3 693 0 q 583 21 583 3 q 590 45 583 39 q 612 45 598 45 q 633 47 625 46 q 651 48 640 47 q 667 51 661 49 q 679 55 672 53 q 690 61 686 57 q 695 71 693 65 q 696 83 697 77 q 693 100 696 90 l 615 326 l 351 326 q 317 321 326 326 q 302 302 309 317 l 229 110 z "},"":{"ha":1027,"x_min":3,"x_max":1019,"o":"m 511 1107 q 464 1087 482 1107 q 446 1039 446 1068 q 464 991 446 1011 q 511 971 482 971 q 559 991 541 971 q 578 1039 578 1011 q 558 1088 578 1069 q 511 1107 539 1107 m 428 958 q 411 975 428 958 q 393 1039 393 991 q 428 1120 393 1086 q 511 1154 463 1154 q 595 1121 559 1154 q 631 1039 631 1088 q 595 958 631 991 q 511 924 559 924 q 428 958 463 924 m 379 393 l 590 393 l 477 722 l 467 722 l 344 412 q 342 404 342 408 q 345 399 343 401 q 352 395 347 397 q 363 394 357 394 q 379 393 370 393 m 229 110 q 225 86 228 96 q 233 68 222 75 q 249 57 243 61 q 272 50 256 53 q 298 47 289 47 q 325 45 307 46 q 330 21 330 39 q 325 -3 330 3 q 140 0 222 0 q 9 -3 113 0 q 3 21 3 3 q 9 45 3 39 q 66 53 45 47 q 109 79 86 58 q 149 142 132 100 l 450 852 q 603 914 501 852 l 889 119 q 908 84 896 98 q 926 64 920 71 q 956 52 933 57 q 981 47 978 47 q 1014 45 985 47 q 1019 21 1019 39 q 1014 -3 1019 3 q 828 0 911 0 q 590 -3 693 0 q 583 21 583 3 q 590 45 583 39 q 612 45 598 45 q 633 47 625 46 q 651 48 640 47 q 667 51 661 49 q 679 55 672 53 q 690 61 686 57 q 695 71 693 65 q 696 83 697 77 q 693 100 696 90 l 615 326 l 351 326 q 317 321 326 326 q 302 302 309 317 l 229 110 z "},"":{"ha":1327,"x_min":11,"x_max":1274,"o":"m 155 142 l 505 781 q 505 834 525 817 q 433 851 485 851 q 422 861 422 851 l 422 896 l 425 899 l 713 896 l 1126 896 q 1194 901 1162 896 q 1200 897 1200 901 q 1204 855 1201 893 q 1211 768 1207 817 q 1217 696 1214 720 q 1157 689 1192 684 q 1099 804 1132 770 q 993 838 1065 838 l 875 838 q 834 817 851 838 q 818 770 818 796 l 818 510 l 930 510 q 1029 525 1004 510 q 1057 596 1054 541 q 1087 603 1064 603 q 1117 596 1111 603 q 1114 476 1114 513 q 1117 354 1114 451 q 1088 347 1112 347 q 1057 354 1064 347 q 1028 421 1055 403 q 930 440 1002 440 l 818 440 l 818 125 q 834 78 818 97 q 875 58 851 58 l 1015 58 q 1211 236 1161 58 q 1274 229 1246 244 q 1264 158 1271 208 q 1251 67 1258 107 q 1236 -3 1244 28 q 1044 0 1112 0 l 717 0 q 503 -3 571 -1 q 497 21 497 3 q 503 45 497 39 q 602 67 581 47 q 624 170 624 87 l 624 370 l 376 370 l 236 110 q 229 86 232 96 q 236 70 227 77 q 253 58 245 62 q 277 52 261 54 q 304 47 293 49 q 332 45 315 46 q 339 21 338 39 q 332 -3 339 3 q 147 0 229 0 q 17 -3 119 0 q 11 21 12 3 q 17 45 11 39 q 96 66 67 47 q 155 142 125 85 m 412 439 l 624 439 l 624 757 q 619 783 624 775 q 604 785 614 791 q 583 758 595 779 l 412 439 z "},"":{"ha":980,"x_min":52,"x_max":904,"o":"m 418 -146 l 410 -138 l 473 -11 q 220 74 319 2 q 95 232 139 131 q 52 437 52 334 q 195 786 52 659 q 553 914 339 914 q 748 883 652 914 q 857 851 843 852 q 888 636 881 705 q 828 629 857 619 q 732 796 796 736 q 538 856 668 856 q 338 743 416 856 q 261 464 261 629 q 346 179 261 300 q 550 58 431 58 q 859 203 726 58 q 884 193 869 203 q 904 174 899 183 q 551 -14 761 -14 q 520 -14 536 -14 l 500 -62 q 629 -179 629 -88 q 582 -268 629 -231 q 467 -304 534 -304 q 445 -303 454 -304 q 425 -300 435 -302 q 412 -296 415 -297 q 395 -288 408 -294 q 378 -281 382 -282 q 392 -244 378 -252 q 472 -264 445 -264 q 542 -207 541 -264 q 418 -146 541 -153 z "},"":{"ha":838,"x_min":8,"x_max":785,"o":"m 441 507 q 539 524 513 507 q 568 596 566 541 q 599 603 575 603 q 628 596 623 603 q 625 476 625 513 q 628 354 625 451 q 599 347 623 347 q 568 354 575 347 q 538 423 566 403 q 441 443 511 443 l 329 443 l 329 125 q 346 78 329 97 q 386 58 363 58 l 526 58 q 722 236 672 58 q 785 229 758 244 q 776 158 782 208 q 763 67 770 107 q 747 -3 755 28 q 555 0 623 0 l 229 0 q 14 -3 82 -1 q 8 21 8 3 q 14 45 8 39 q 113 67 92 47 q 135 170 135 87 l 135 725 q 113 828 135 808 q 14 851 92 848 q 8 875 8 858 q 14 899 8 892 l 228 896 l 637 896 q 705 901 673 896 q 711 897 711 901 q 715 855 713 893 q 722 768 718 817 q 728 696 725 720 q 668 689 703 684 q 610 804 643 770 q 504 838 576 838 l 386 838 q 346 817 362 838 q 329 770 329 796 l 329 507 l 441 507 m 307 1153 q 216 1076 246 1124 l 221 1060 l 421 979 q 469 970 444 970 q 488 976 479 970 q 497 990 497 982 q 484 1019 497 1008 q 307 1153 421 1074 z "},"":{"ha":838,"x_min":8,"x_max":785,"o":"m 441 507 q 539 524 513 507 q 568 596 566 541 q 599 603 575 603 q 628 596 623 603 q 625 476 625 513 q 628 354 625 451 q 599 347 623 347 q 568 354 575 347 q 538 423 566 403 q 441 443 511 443 l 329 443 l 329 125 q 346 78 329 97 q 386 58 363 58 l 526 58 q 722 236 672 58 q 785 229 758 244 q 776 158 782 208 q 763 67 770 107 q 747 -3 755 28 q 555 0 623 0 l 229 0 q 14 -3 82 -1 q 8 21 8 3 q 14 45 8 39 q 113 67 92 47 q 135 170 135 87 l 135 725 q 113 828 135 808 q 14 851 92 848 q 8 875 8 858 q 14 899 8 892 l 228 896 l 637 896 q 705 901 673 896 q 711 897 711 901 q 715 855 713 893 q 722 768 718 817 q 728 696 725 720 q 668 689 703 684 q 610 804 643 770 q 504 838 576 838 l 386 838 q 346 817 362 838 q 329 770 329 796 l 329 507 l 441 507 m 476 1157 q 567 1080 536 1129 l 562 1064 l 363 983 q 314 974 338 974 q 295 980 304 974 q 286 994 286 986 q 300 1023 286 1011 q 476 1157 362 1078 z "},"":{"ha":838,"x_min":8,"x_max":785,"o":"m 441 507 q 539 524 513 507 q 568 596 566 541 q 599 603 575 603 q 628 596 623 603 q 625 476 625 513 q 628 354 625 451 q 599 347 623 347 q 568 354 575 347 q 538 423 566 403 q 441 443 511 443 l 329 443 l 329 125 q 346 78 329 97 q 386 58 363 58 l 526 58 q 722 236 672 58 q 785 229 758 244 q 776 158 782 208 q 763 67 770 107 q 747 -3 755 28 q 555 0 623 0 l 229 0 q 14 -3 82 -1 q 8 21 8 3 q 14 45 8 39 q 113 67 92 47 q 135 170 135 87 l 135 725 q 113 828 135 808 q 14 851 92 848 q 8 875 8 858 q 14 899 8 892 l 228 896 l 637 896 q 705 901 673 896 q 711 897 711 901 q 715 855 713 893 q 722 768 718 817 q 728 696 725 720 q 668 689 703 684 q 610 804 643 770 q 504 838 576 838 l 386 838 q 346 817 362 838 q 329 770 329 796 l 329 507 l 441 507 m 631 1006 q 608 970 631 979 q 436 1047 489 1006 q 265 970 374 1001 q 245 1007 245 978 q 422 1152 334 1064 l 441 1158 q 631 1006 528 1072 z "},"":{"ha":838,"x_min":8,"x_max":785,"o":"m 441 507 q 539 524 513 507 q 568 596 566 541 q 599 603 575 603 q 628 596 623 603 q 625 476 625 513 q 628 354 625 451 q 599 347 623 347 q 568 354 575 347 q 538 423 566 403 q 441 443 511 443 l 329 443 l 329 125 q 346 78 329 97 q 386 58 363 58 l 526 58 q 722 236 672 58 q 785 229 758 244 q 776 158 782 208 q 763 67 770 107 q 747 -3 755 28 q 555 0 623 0 l 229 0 q 14 -3 82 -1 q 8 21 8 3 q 14 45 8 39 q 113 67 92 47 q 135 170 135 87 l 135 725 q 113 828 135 808 q 14 851 92 848 q 8 875 8 858 q 14 899 8 892 l 228 896 l 637 896 q 705 901 673 896 q 711 897 711 901 q 715 855 713 893 q 722 768 718 817 q 728 696 725 720 q 668 689 703 684 q 610 804 643 770 q 504 838 576 838 l 386 838 q 346 817 362 838 q 329 770 329 796 l 329 507 l 441 507 m 231 1032 q 219 1043 231 1032 q 208 1087 208 1054 q 231 1144 208 1121 q 286 1166 253 1166 q 342 1144 319 1166 q 364 1087 364 1121 q 342 1032 364 1054 q 286 1010 319 1010 q 231 1032 253 1010 m 491 1032 q 479 1043 491 1032 q 468 1087 468 1054 q 491 1144 468 1121 q 547 1166 514 1166 q 602 1144 581 1166 q 624 1087 624 1121 q 602 1032 624 1054 q 547 1010 581 1010 q 491 1032 514 1010 z "},"":{"ha":509,"x_min":33,"x_max":478,"o":"m 158 726 q 152 793 158 768 q 129 831 146 819 q 95 846 111 843 q 43 851 78 850 q 33 876 33 858 q 43 899 33 893 q 257 896 154 896 q 468 899 357 896 q 478 876 477 893 q 468 851 478 859 q 417 846 433 850 q 383 831 400 843 q 359 794 366 819 q 353 726 353 768 l 353 170 q 359 102 353 128 q 383 65 366 77 q 417 50 400 53 q 468 45 433 46 q 478 21 477 38 q 468 -3 478 4 q 257 0 357 0 q 43 -3 154 0 q 33 21 33 4 q 43 45 33 39 q 94 50 77 46 q 129 65 111 53 q 152 102 146 77 q 158 170 158 127 l 158 726 m 182 1153 q 92 1076 121 1124 l 96 1060 l 296 979 q 345 970 318 970 q 363 976 354 970 q 372 990 372 982 q 358 1019 372 1008 q 182 1153 296 1074 z "},"":{"ha":509,"x_min":33,"x_max":478,"o":"m 158 726 q 152 793 158 768 q 129 831 146 819 q 95 846 111 843 q 43 851 78 850 q 33 876 33 858 q 43 899 33 893 q 257 896 154 896 q 468 899 357 896 q 478 876 477 893 q 468 851 478 859 q 417 846 433 850 q 383 831 400 843 q 359 794 366 819 q 353 726 353 768 l 353 170 q 359 102 353 128 q 383 65 366 77 q 417 50 400 53 q 468 45 433 46 q 478 21 477 38 q 468 -3 478 4 q 257 0 357 0 q 43 -3 154 0 q 33 21 33 4 q 43 45 33 39 q 94 50 77 46 q 129 65 111 53 q 152 102 146 77 q 158 170 158 127 l 158 726 m 310 1157 q 400 1080 370 1129 l 396 1064 l 196 983 q 147 974 171 974 q 129 980 138 974 q 119 994 119 986 q 134 1023 119 1011 q 310 1157 196 1078 z "},"":{"ha":509,"x_min":33,"x_max":478,"o":"m 158 726 q 152 793 158 768 q 129 831 146 819 q 95 846 111 843 q 43 851 78 850 q 33 876 33 858 q 43 899 33 893 q 257 896 154 896 q 468 899 357 896 q 478 876 477 893 q 468 851 478 859 q 417 846 433 850 q 383 831 400 843 q 359 794 366 819 q 353 726 353 768 l 353 170 q 359 102 353 128 q 383 65 366 77 q 417 50 400 53 q 468 45 433 46 q 478 21 477 38 q 468 -3 478 4 q 257 0 357 0 q 43 -3 154 0 q 33 21 33 4 q 43 45 33 39 q 94 50 77 46 q 129 65 111 53 q 152 102 146 77 q 158 170 158 127 l 158 726 m 440 1006 q 418 970 440 979 q 245 1047 298 1006 q 75 970 183 1001 q 56 1007 56 978 q 232 1152 144 1064 l 252 1158 q 440 1006 337 1072 z "},"":{"ha":509,"x_min":33,"x_max":478,"o":"m 158 726 q 152 793 158 768 q 129 831 146 819 q 95 846 111 843 q 43 851 78 850 q 33 876 33 858 q 43 899 33 893 q 257 896 154 896 q 468 899 357 896 q 478 876 477 893 q 468 851 478 859 q 417 846 433 850 q 383 831 400 843 q 359 794 366 819 q 353 726 353 768 l 353 170 q 359 102 353 128 q 383 65 366 77 q 417 50 400 53 q 468 45 433 46 q 478 21 477 38 q 468 -3 478 4 q 257 0 357 0 q 43 -3 154 0 q 33 21 33 4 q 43 45 33 39 q 94 50 77 46 q 129 65 111 53 q 152 102 146 77 q 158 170 158 127 l 158 726 m 71 1008 q 60 1020 71 1008 q 49 1064 49 1031 q 71 1120 49 1097 q 126 1143 93 1143 q 182 1120 160 1143 q 204 1064 204 1097 q 182 1008 204 1031 q 126 986 160 986 q 71 1008 93 986 m 331 1008 q 320 1020 331 1008 q 309 1064 309 1031 q 331 1120 309 1097 q 388 1143 354 1143 q 443 1120 421 1143 q 464 1064 464 1097 q 443 1008 464 1031 q 388 986 421 986 q 331 1008 354 986 z "},"":{"ha":1019,"x_min":24,"x_max":953,"o":"m 353 165 q 381 77 353 99 q 486 56 410 56 q 571 74 529 56 q 653 129 614 92 q 718 236 693 167 q 743 395 743 304 q 738 522 743 467 q 714 640 733 578 q 665 744 696 703 q 576 812 633 785 q 439 839 518 839 q 353 734 353 839 l 353 454 q 497 458 429 455 l 484 389 q 463 390 473 389 q 442 391 452 391 q 420 392 431 391 q 398 392 409 392 q 375 393 387 393 q 353 393 364 393 l 353 165 m 257 0 l 43 -3 q 33 21 33 4 q 43 45 33 39 q 94 50 77 46 q 129 65 111 53 q 152 102 146 77 q 158 170 158 127 l 158 393 q 24 389 90 392 l 37 458 q 96 456 66 457 q 158 454 127 454 l 158 726 q 152 793 158 768 q 129 831 146 819 q 95 846 111 843 q 43 851 78 850 q 33 876 33 858 q 43 899 33 893 q 257 896 201 896 q 344 897 282 896 q 444 897 406 897 q 821 765 690 897 q 953 429 953 633 q 922 241 953 325 q 840 114 892 158 q 482 -3 707 -3 q 370 -1 454 -3 q 257 0 285 0 z "},"":{"ha":1027,"x_min":28,"x_max":997,"o":"m 876 0 q 789 -17 842 -17 q 733 45 760 9 l 268 597 q 235 625 245 625 q 224 597 224 625 l 224 184 q 236 93 224 121 q 268 58 248 65 q 345 45 289 50 q 350 21 350 39 q 345 -3 350 3 q 189 0 205 0 q 33 -3 170 0 q 28 21 28 3 q 33 45 28 39 q 110 58 89 50 q 142 94 131 66 q 154 184 154 122 l 154 764 q 117 821 147 794 q 45 851 86 848 q 39 875 39 858 q 45 899 39 892 l 271 896 l 395 750 l 763 316 q 788 297 779 298 q 800 321 798 296 l 800 711 q 788 803 800 775 q 755 838 777 831 q 679 851 734 846 q 672 875 672 858 q 679 899 672 892 q 840 896 818 896 q 990 899 854 896 q 997 875 997 892 q 990 851 997 859 q 914 838 935 846 q 881 802 893 829 q 869 711 869 774 l 869 142 l 876 0 m 600 1088 q 668 1147 645 1088 q 695 1140 684 1147 q 707 1120 707 1132 q 654 1025 688 1060 q 581 990 619 990 q 490 1019 529 990 q 410 1043 454 1043 q 381 1040 391 1043 q 360 1025 371 1038 q 342 987 349 1013 q 306 1013 306 987 q 355 1105 324 1068 q 421 1141 386 1141 q 524 1107 481 1141 q 600 1088 549 1088 z "},"":{"ha":1014,"x_min":52,"x_max":964,"o":"m 488 856 q 325 757 388 856 q 261 457 261 659 q 338 156 261 267 q 533 45 415 45 q 696 149 637 45 q 754 428 754 253 q 679 744 754 632 q 488 856 604 856 m 964 457 q 844 123 964 253 q 505 -14 717 -14 q 186 109 321 -14 q 52 429 52 231 q 164 758 52 625 q 314 873 226 831 q 504 914 401 914 q 831 787 699 914 q 964 457 964 660 m 432 1153 q 342 1076 371 1124 l 346 1060 l 546 979 q 595 970 568 970 q 613 976 604 970 q 623 990 623 982 q 608 1019 623 1008 q 432 1153 546 1074 z "},"":{"ha":1014,"x_min":52,"x_max":964,"o":"m 488 856 q 325 757 388 856 q 261 457 261 659 q 338 156 261 267 q 533 45 415 45 q 696 149 637 45 q 754 428 754 253 q 679 744 754 632 q 488 856 604 856 m 964 457 q 844 123 964 253 q 505 -14 717 -14 q 186 109 321 -14 q 52 429 52 231 q 164 758 52 625 q 314 873 226 831 q 504 914 401 914 q 831 787 699 914 q 964 457 964 660 m 559 1157 q 650 1080 619 1129 l 646 1064 l 446 983 q 397 974 420 974 q 379 980 388 974 q 370 994 370 986 q 383 1023 370 1011 q 559 1157 446 1078 z "},"":{"ha":1014,"x_min":52,"x_max":964,"o":"m 488 856 q 325 757 388 856 q 261 457 261 659 q 338 156 261 267 q 533 45 415 45 q 696 149 637 45 q 754 428 754 253 q 679 744 754 632 q 488 856 604 856 m 964 457 q 844 123 964 253 q 505 -14 717 -14 q 186 109 321 -14 q 52 429 52 231 q 164 758 52 625 q 314 873 226 831 q 504 914 401 914 q 831 787 699 914 q 964 457 964 660 m 700 1006 q 677 970 700 979 q 505 1047 558 1006 q 335 970 443 1001 q 315 1007 315 978 q 492 1152 404 1064 l 511 1158 q 700 1006 597 1072 z "},"":{"ha":1014,"x_min":52,"x_max":964,"o":"m 590 1059 q 659 1118 635 1059 q 686 1111 674 1118 q 697 1090 697 1103 q 644 996 679 1031 q 571 961 610 961 q 481 990 519 961 q 400 1014 445 1014 q 371 1011 382 1014 q 350 996 361 1008 q 332 958 339 983 q 296 983 296 958 q 345 1076 314 1039 q 411 1112 376 1112 q 514 1078 471 1112 q 590 1059 538 1059 m 488 856 q 325 757 388 856 q 261 457 261 659 q 338 156 261 267 q 533 45 415 45 q 696 149 637 45 q 754 428 754 253 q 679 744 754 632 q 488 856 604 856 m 964 457 q 844 123 964 253 q 505 -14 717 -14 q 186 109 321 -14 q 52 429 52 231 q 164 758 52 625 q 314 873 226 831 q 504 914 401 914 q 831 787 699 914 q 964 457 964 660 z "},"":{"ha":1014,"x_min":52,"x_max":964,"o":"m 133 940 q 122 951 133 940 q 111 996 111 962 q 133 1052 111 1029 q 189 1075 155 1075 q 244 1052 222 1075 q 267 996 267 1029 q 244 940 267 962 q 189 918 222 918 q 133 940 155 918 m 771 940 q 760 951 771 940 q 749 996 749 962 q 771 1052 749 1029 q 828 1075 794 1075 q 883 1052 861 1075 q 904 996 904 1029 q 883 940 904 962 q 828 918 861 918 q 771 940 794 918 m 488 856 q 325 757 388 856 q 261 457 261 659 q 338 156 261 267 q 533 45 415 45 q 696 149 637 45 q 754 428 754 253 q 679 744 754 632 q 488 856 604 856 m 964 457 q 844 123 964 253 q 505 -14 717 -14 q 186 109 321 -14 q 52 429 52 231 q 164 758 52 625 q 314 873 226 831 q 504 914 401 914 q 831 787 699 914 q 964 457 964 660 z "},"":{"ha":732,"x_min":143,"x_max":591,"o":"m 425 322 l 591 154 l 532 96 l 364 260 l 200 96 l 143 154 l 307 315 l 143 481 l 204 546 l 370 379 l 530 546 l 591 488 l 425 322 z "},"":{"ha":1014,"x_min":52,"x_max":964,"o":"m 122 -62 l 72 -20 l 180 113 q 52 429 52 238 q 164 758 52 625 q 314 873 226 831 q 504 914 401 914 q 769 838 652 914 l 844 930 l 896 890 l 821 798 q 964 457 964 667 q 844 123 964 253 q 505 -14 717 -14 q 360 8 431 -14 q 231 71 290 30 l 122 -62 m 488 856 q 325 757 388 856 q 261 457 261 659 q 269 347 261 399 q 292 250 277 295 l 685 734 q 488 856 612 856 m 716 669 l 321 183 q 413 80 358 116 q 533 45 468 45 q 696 149 637 45 q 754 428 754 253 q 750 519 754 475 q 737 600 745 562 q 716 669 728 637 z "},"":{"ha":1017,"x_min":8,"x_max":1011,"o":"m 315 725 l 315 374 q 318 278 315 315 q 337 193 321 241 q 386 114 354 144 q 551 45 458 45 q 668 66 619 45 q 743 119 717 87 q 785 199 770 150 q 804 288 800 248 q 807 385 807 329 l 807 725 q 803 792 807 770 q 781 828 799 815 q 744 844 762 840 q 679 851 726 847 q 672 875 672 858 q 679 899 672 892 q 856 896 818 896 q 1004 899 868 896 q 1011 875 1011 892 q 1004 851 1011 859 q 937 840 954 846 q 908 808 920 833 q 897 725 897 782 l 897 410 q 810 98 897 210 q 522 -14 724 -14 q 241 45 332 -14 q 121 328 121 124 l 121 725 q 101 828 121 807 q 14 851 81 848 q 8 875 8 858 q 14 899 8 892 q 216 896 153 896 q 443 899 307 896 q 450 875 450 892 q 443 851 450 859 q 337 828 359 848 q 315 725 315 808 m 432 1153 q 342 1076 371 1124 l 346 1060 l 546 979 q 595 970 568 970 q 613 976 604 970 q 623 990 623 982 q 608 1019 623 1008 q 432 1153 546 1074 z "},"":{"ha":1017,"x_min":8,"x_max":1011,"o":"m 315 725 l 315 374 q 318 278 315 315 q 337 193 321 241 q 386 114 354 144 q 551 45 458 45 q 668 66 619 45 q 743 119 717 87 q 785 199 770 150 q 804 288 800 248 q 807 385 807 329 l 807 725 q 803 792 807 770 q 781 828 799 815 q 744 844 762 840 q 679 851 726 847 q 672 875 672 858 q 679 899 672 892 q 856 896 818 896 q 1004 899 868 896 q 1011 875 1011 892 q 1004 851 1011 859 q 937 840 954 846 q 908 808 920 833 q 897 725 897 782 l 897 410 q 810 98 897 210 q 522 -14 724 -14 q 241 45 332 -14 q 121 328 121 124 l 121 725 q 101 828 121 807 q 14 851 81 848 q 8 875 8 858 q 14 899 8 892 q 216 896 153 896 q 443 899 307 896 q 450 875 450 892 q 443 851 450 859 q 337 828 359 848 q 315 725 315 808 m 615 1157 q 705 1080 675 1129 l 701 1064 l 501 983 q 453 974 476 974 q 434 980 444 974 q 425 994 425 986 q 439 1023 425 1011 q 615 1157 501 1078 z "},"":{"ha":1017,"x_min":8,"x_max":1011,"o":"m 315 725 l 315 374 q 318 278 315 315 q 337 193 321 241 q 386 114 354 144 q 551 45 458 45 q 668 66 619 45 q 743 119 717 87 q 785 199 770 150 q 804 288 800 248 q 807 385 807 329 l 807 725 q 803 792 807 770 q 781 828 799 815 q 744 844 762 840 q 679 851 726 847 q 672 875 672 858 q 679 899 672 892 q 856 896 818 896 q 1004 899 868 896 q 1011 875 1011 892 q 1004 851 1011 859 q 937 840 954 846 q 908 808 920 833 q 897 725 897 782 l 897 410 q 810 98 897 210 q 522 -14 724 -14 q 241 45 332 -14 q 121 328 121 124 l 121 725 q 101 828 121 807 q 14 851 81 848 q 8 875 8 858 q 14 899 8 892 q 216 896 153 896 q 443 899 307 896 q 450 875 450 892 q 443 851 450 859 q 337 828 359 848 q 315 725 315 808 m 728 1006 q 705 970 728 979 q 533 1047 586 1006 q 363 970 471 1001 q 343 1007 343 978 q 519 1152 432 1064 l 539 1158 q 728 1006 625 1072 z "},"":{"ha":1017,"x_min":8,"x_max":1011,"o":"m 388 912 q 377 923 388 912 q 366 968 366 935 q 388 1024 366 1002 q 443 1047 410 1047 q 498 1024 476 1047 q 521 968 521 1002 q 498 912 521 935 q 443 890 476 890 q 388 912 410 890 m 620 912 q 609 923 620 912 q 597 968 597 935 q 620 1024 597 1002 q 676 1047 643 1047 q 731 1024 710 1047 q 753 968 753 1002 q 731 912 753 935 q 676 890 710 890 q 620 912 643 890 m 315 725 l 315 374 q 318 278 315 315 q 337 193 321 241 q 386 114 354 144 q 551 45 458 45 q 668 66 619 45 q 743 119 717 87 q 785 199 770 150 q 804 288 800 248 q 807 385 807 329 l 807 725 q 803 807 807 781 q 794 840 799 833 q 777 851 789 846 q 770 875 770 858 q 777 899 770 892 q 856 896 829 896 q 1004 899 868 896 q 1011 875 1011 892 q 1004 851 1011 859 q 937 840 954 846 q 908 808 920 833 q 897 725 897 782 l 897 410 q 810 98 897 210 q 522 -14 724 -14 q 241 45 332 -14 q 121 328 121 124 l 121 725 q 101 828 121 807 q 14 851 81 848 q 8 875 8 858 q 14 899 8 892 q 216 896 153 896 q 346 899 293 896 q 353 875 353 892 q 346 851 353 859 q 321 828 326 848 q 315 725 315 807 z "},"":{"ha":907,"x_min":1,"x_max":867,"o":"m 538 170 q 561 66 538 86 q 672 43 585 46 q 677 19 677 36 q 672 -3 677 3 q 452 0 533 0 q 208 -3 345 0 q 203 19 203 3 q 208 43 203 36 q 319 66 296 45 q 343 170 343 86 l 343 359 q 338 413 343 397 q 315 461 334 429 l 138 760 q 80 831 106 815 q 8 851 55 848 q 1 875 1 858 q 7 899 1 892 q 204 896 90 896 q 376 899 265 896 q 383 875 383 892 q 376 851 383 859 q 312 830 321 848 q 328 774 302 812 l 473 518 q 504 514 490 488 l 647 783 q 645 831 664 814 q 576 851 625 848 q 570 875 570 858 q 576 899 570 892 q 730 896 688 896 q 860 899 777 896 q 867 875 867 892 q 860 851 867 859 q 786 834 810 846 q 739 785 762 823 l 561 488 q 538 372 537 448 l 538 170 m 574 1157 q 664 1080 633 1129 l 660 1064 l 460 983 q 411 974 435 974 q 392 980 401 974 q 383 994 383 986 q 397 1023 383 1011 q 574 1157 460 1078 z "},"":{"ha":855,"x_min":33,"x_max":808,"o":"m 158 726 q 152 793 158 768 q 129 831 146 819 q 95 846 111 843 q 43 851 78 850 q 33 876 33 858 q 43 899 33 893 q 257 896 154 896 q 468 899 357 896 q 478 876 477 893 q 468 851 478 859 q 417 846 433 850 q 383 831 400 843 q 359 794 366 819 q 353 726 353 768 l 353 724 q 489 726 404 726 q 647 702 581 726 q 746 637 713 677 q 794 558 779 597 q 808 476 808 518 q 790 390 808 435 q 733 304 771 346 q 626 235 694 262 q 471 208 558 208 q 353 216 380 208 l 353 170 q 359 102 353 128 q 383 65 366 77 q 417 50 400 53 q 468 45 433 46 q 478 21 477 38 q 468 -3 478 4 q 257 0 357 0 q 43 -3 154 0 q 33 21 33 4 q 43 45 33 39 q 94 50 77 46 q 129 65 111 53 q 152 102 146 77 q 158 170 158 127 l 158 726 m 353 270 q 373 268 361 269 q 405 266 386 267 q 447 265 425 265 q 561 315 524 265 q 599 476 599 366 q 567 619 599 569 q 472 669 534 669 q 415 666 460 669 q 353 663 370 663 l 353 270 z "},"":{"ha":854,"x_min":25,"x_max":798,"o":"m 139 175 l 139 511 q 136 528 139 524 q 118 533 132 532 l 57 541 q 41 547 41 542 l 41 575 q 53 594 41 585 q 81 603 64 603 q 139 669 139 603 q 164 788 139 734 q 227 874 189 842 q 312 929 265 907 q 402 961 359 951 q 479 970 444 970 q 633 942 581 970 q 699 878 675 920 q 724 802 724 836 q 661 648 724 713 q 528 571 629 616 l 528 568 q 718 443 637 531 q 798 240 798 354 q 727 59 798 132 q 559 -14 657 -14 q 438 31 479 -14 q 397 136 397 75 q 415 181 397 159 q 458 203 432 203 q 506 187 485 203 q 526 147 526 171 q 516 111 526 134 q 505 74 505 89 q 523 53 505 62 q 559 45 541 45 q 600 216 600 45 q 564 395 600 318 q 443 536 528 472 l 443 568 q 522 658 507 618 q 536 783 536 697 q 453 911 536 911 q 352 829 384 911 q 319 621 319 747 l 319 178 q 357 45 319 58 q 364 21 363 39 q 357 -3 364 3 q 229 0 325 0 q 32 -3 149 0 q 25 21 25 3 q 32 45 25 39 q 119 70 98 47 q 139 175 139 93 z "},"":{"ha":703,"x_min":61,"x_max":700,"o":"m 410 67 l 401 66 q 313 12 364 37 q 235 -14 262 -14 q 61 132 61 -14 q 121 248 61 208 q 310 328 180 288 l 403 357 q 375 518 403 477 q 296 558 347 558 q 237 527 241 558 q 237 504 236 517 q 241 480 239 492 q 243 461 243 468 q 218 416 243 435 q 157 397 193 397 q 102 416 119 397 q 85 467 85 435 q 111 529 85 500 q 176 577 137 558 q 260 606 216 595 q 343 616 304 616 q 581 376 581 616 l 578 176 q 586 103 578 123 q 616 83 595 83 q 675 103 650 83 q 700 64 700 82 q 518 -14 618 -14 q 410 67 424 -14 m 403 302 l 330 279 q 274 254 296 269 q 242 222 252 240 q 231 190 233 204 q 228 153 228 176 q 247 93 228 117 q 309 69 267 69 q 403 119 340 69 l 403 302 m 300 936 l 396 764 q 408 728 408 741 q 401 712 408 718 q 385 705 395 705 q 336 733 368 705 l 168 879 l 171 895 q 211 923 183 908 q 272 939 239 939 q 300 936 289 939 z "},"":{"ha":703,"x_min":61,"x_max":700,"o":"m 355 936 q 378 939 363 939 q 457 905 431 939 l 471 873 l 304 724 q 252 701 278 701 q 236 708 243 701 q 229 721 229 714 q 240 754 229 738 l 355 936 m 410 67 l 401 66 q 313 12 364 37 q 235 -14 262 -14 q 61 132 61 -14 q 121 248 61 208 q 310 328 180 288 l 403 357 q 375 518 403 477 q 296 558 347 558 q 237 527 241 558 q 237 504 236 517 q 241 480 239 492 q 243 461 243 468 q 218 416 243 435 q 157 397 193 397 q 102 416 119 397 q 85 467 85 435 q 111 529 85 500 q 176 577 137 558 q 260 606 216 595 q 343 616 304 616 q 581 376 581 616 l 578 176 q 586 103 578 123 q 616 83 595 83 q 675 103 650 83 q 700 64 700 82 q 518 -14 618 -14 q 410 67 424 -14 m 403 302 l 330 279 q 274 254 296 269 q 242 222 252 240 q 231 190 233 204 q 228 153 228 176 q 247 93 228 117 q 309 69 267 69 q 403 119 340 69 l 403 302 z "},"":{"ha":703,"x_min":61,"x_max":700,"o":"m 374 921 q 519 734 421 844 l 485 708 q 336 823 392 764 q 189 708 285 770 l 154 734 q 301 921 261 857 l 374 921 m 410 67 l 401 66 q 313 12 364 37 q 235 -14 262 -14 q 61 132 61 -14 q 121 248 61 208 q 310 328 180 288 l 403 357 q 375 518 403 477 q 296 558 347 558 q 237 527 241 558 q 237 504 236 517 q 241 480 239 492 q 243 461 243 468 q 218 416 243 435 q 157 397 193 397 q 102 416 119 397 q 85 467 85 435 q 111 529 85 500 q 176 577 137 558 q 260 606 216 595 q 343 616 304 616 q 581 376 581 616 l 578 176 q 586 103 578 123 q 616 83 595 83 q 675 103 650 83 q 700 64 700 82 q 518 -14 618 -14 q 410 67 424 -14 m 403 302 l 330 279 q 274 254 296 269 q 242 222 252 240 q 231 190 233 204 q 228 153 228 176 q 247 93 228 117 q 309 69 267 69 q 403 119 340 69 l 403 302 z "},"":{"ha":703,"x_min":61,"x_max":700,"o":"m 414 818 q 482 878 458 818 q 509 870 498 878 q 521 850 521 863 q 468 755 503 790 q 395 721 433 721 q 304 750 343 721 q 224 774 269 774 q 195 771 205 774 q 174 756 184 768 q 155 718 163 743 q 119 743 119 718 q 169 836 138 799 q 235 872 200 872 q 338 838 294 872 q 414 818 362 818 m 410 67 l 401 66 q 313 12 364 37 q 235 -14 262 -14 q 61 132 61 -14 q 121 248 61 208 q 310 328 180 288 l 403 357 q 375 518 403 477 q 296 558 347 558 q 237 527 241 558 q 237 504 236 517 q 241 480 239 492 q 243 461 243 468 q 218 416 243 435 q 157 397 193 397 q 102 416 119 397 q 85 467 85 435 q 111 529 85 500 q 176 577 137 558 q 260 606 216 595 q 343 616 304 616 q 581 376 581 616 l 578 176 q 586 103 578 123 q 616 83 595 83 q 675 103 650 83 q 700 64 700 82 q 518 -14 618 -14 q 410 67 424 -14 m 403 302 l 330 279 q 274 254 296 269 q 242 222 252 240 q 231 190 233 204 q 228 153 228 176 q 247 93 228 117 q 309 69 267 69 q 403 119 340 69 l 403 302 z "},"":{"ha":703,"x_min":61,"x_max":700,"o":"m 406 742 q 394 753 406 742 q 383 796 383 764 q 406 850 383 828 q 460 872 428 872 q 514 850 492 872 q 536 796 536 828 q 514 743 536 766 q 460 721 492 721 q 406 742 428 721 m 125 796 q 147 850 125 828 q 201 872 170 872 q 256 850 233 872 q 278 796 278 828 q 256 742 278 764 q 201 721 233 721 q 147 743 170 721 q 125 796 125 766 m 410 67 l 401 66 q 313 12 364 37 q 235 -14 262 -14 q 61 132 61 -14 q 121 248 61 208 q 310 328 180 288 l 403 357 q 375 518 403 477 q 296 558 347 558 q 237 527 241 558 q 237 504 236 517 q 241 480 239 492 q 243 461 243 468 q 218 416 243 435 q 157 397 193 397 q 102 416 119 397 q 85 467 85 435 q 111 529 85 500 q 176 577 137 558 q 260 606 216 595 q 343 616 304 616 q 581 376 581 616 l 578 176 q 586 103 578 123 q 616 83 595 83 q 675 103 650 83 q 700 64 700 82 q 518 -14 618 -14 q 410 67 424 -14 m 403 302 l 330 279 q 274 254 296 269 q 242 222 252 240 q 231 190 233 204 q 228 153 228 176 q 247 93 228 117 q 309 69 267 69 q 403 119 340 69 l 403 302 z "},"":{"ha":703,"x_min":61,"x_max":700,"o":"m 309 876 q 261 857 279 876 q 243 808 243 838 q 261 761 243 781 q 309 741 279 741 q 356 761 338 741 q 375 808 375 781 q 356 858 375 839 q 309 876 336 876 m 225 727 q 208 744 225 727 q 191 808 191 761 q 225 890 191 856 q 309 924 260 924 q 392 890 356 924 q 428 808 428 857 q 392 727 428 761 q 308 693 357 693 q 225 727 260 693 m 410 67 l 401 66 q 313 12 364 37 q 235 -14 262 -14 q 61 132 61 -14 q 121 248 61 208 q 310 328 180 288 l 403 357 q 375 518 403 477 q 296 558 347 558 q 237 527 241 558 q 237 504 236 517 q 241 480 239 492 q 243 461 243 468 q 218 416 243 435 q 157 397 193 397 q 102 416 119 397 q 85 467 85 435 q 111 529 85 500 q 176 577 137 558 q 260 606 216 595 q 343 616 304 616 q 581 376 581 616 l 578 176 q 586 103 578 123 q 616 83 595 83 q 675 103 650 83 q 700 64 700 82 q 518 -14 618 -14 q 410 67 424 -14 m 403 302 l 330 279 q 274 254 296 269 q 242 222 252 240 q 231 190 233 204 q 228 153 228 176 q 247 93 228 117 q 309 69 267 69 q 403 119 340 69 l 403 302 z "},"":{"ha":993,"x_min":52,"x_max":950,"o":"m 697 558 q 581 354 604 558 q 621 357 593 355 q 664 359 650 358 q 701 362 677 359 q 736 367 724 364 q 764 373 749 370 q 789 381 779 376 q 804 393 799 386 q 778 511 804 464 q 697 558 751 558 m 395 129 q 404 290 401 142 q 260 241 310 278 q 210 154 210 204 q 216 100 210 119 q 273 56 232 55 q 341 73 305 56 q 395 129 376 90 m 728 98 q 833 119 775 98 q 929 179 890 139 q 950 136 950 179 q 704 -14 847 -14 q 536 25 591 -14 q 527 32 535 26 q 516 39 518 37 q 507 46 514 40 q 497 54 500 52 q 490 62 494 57 q 481 71 485 66 q 474 81 478 75 q 468 93 471 87 q 360 14 428 41 q 253 -14 292 -14 q 117 16 161 -14 q 70 68 88 36 q 52 138 52 101 q 141 277 52 224 q 404 345 231 330 q 302 558 404 558 q 215 515 215 558 q 220 481 215 500 q 225 456 225 463 q 206 417 225 436 q 146 399 187 399 q 93 420 111 399 q 74 471 74 441 q 150 573 74 530 q 306 616 225 616 q 429 594 371 616 q 511 519 486 571 q 713 616 579 616 q 817 603 772 616 q 886 569 861 589 q 926 519 911 549 q 945 465 941 490 q 950 410 950 439 q 947 370 950 393 q 945 342 945 347 q 614 302 893 307 q 578 301 591 302 q 620 149 579 199 q 728 98 661 98 z "},"":{"ha":633,"x_min":52,"x_max":586,"o":"m 240 -140 l 232 -132 l 293 -11 q 138 58 199 0 q 52 279 52 139 q 142 523 52 429 q 359 616 232 616 q 526 571 465 616 q 586 472 586 525 q 565 417 586 439 q 510 395 543 395 q 451 413 476 395 q 424 460 427 432 q 401 529 420 500 q 347 558 382 558 q 232 328 232 558 q 288 151 232 218 q 425 85 345 85 q 568 164 482 85 q 586 121 587 164 q 480 24 546 62 q 354 -14 415 -14 l 340 -14 l 322 -57 q 451 -174 451 -83 q 404 -262 451 -226 q 289 -298 357 -298 q 267 -298 277 -298 q 247 -294 257 -297 q 234 -290 237 -292 q 217 -283 231 -289 q 200 -275 204 -277 q 214 -239 200 -246 q 294 -258 267 -258 q 364 -201 363 -258 q 240 -140 363 -147 z "},"":{"ha":672,"x_min":52,"x_max":612,"o":"m 319 936 l 415 764 q 428 728 427 741 q 421 712 428 718 q 404 705 414 705 q 355 733 387 705 l 187 879 l 191 895 q 231 923 203 908 q 292 939 258 939 q 319 936 309 939 m 239 382 l 428 382 q 431 411 431 385 q 404 522 431 486 q 342 558 376 558 q 304 546 326 558 q 267 511 282 533 q 239 382 241 473 m 591 179 q 612 136 612 179 q 353 -14 509 -14 q 140 56 216 -14 q 52 275 52 136 q 145 522 52 427 q 357 616 239 616 q 482 595 431 616 q 559 536 533 574 q 596 458 585 498 q 607 370 607 418 q 567 326 607 327 l 233 326 q 233 317 233 323 q 232 304 232 310 q 278 155 232 205 q 407 106 323 106 q 591 179 519 105 z "},"":{"ha":672,"x_min":52,"x_max":612,"o":"m 392 936 q 414 939 400 939 q 493 905 467 939 l 507 873 l 340 724 q 288 701 314 701 q 272 708 279 701 q 265 721 265 714 q 277 754 265 738 l 392 936 m 239 382 l 428 382 q 431 411 431 385 q 404 522 431 486 q 342 558 376 558 q 304 546 326 558 q 267 511 282 533 q 239 382 241 473 m 591 179 q 612 136 612 179 q 353 -14 509 -14 q 140 56 216 -14 q 52 275 52 136 q 145 522 52 427 q 357 616 239 616 q 482 595 431 616 q 559 536 533 574 q 596 458 585 498 q 607 370 607 418 q 567 326 607 327 l 233 326 q 233 317 233 323 q 232 304 232 310 q 278 155 232 205 q 407 106 323 106 q 591 179 519 105 z "},"":{"ha":672,"x_min":52,"x_max":612,"o":"m 374 921 q 519 734 421 844 l 485 708 q 336 823 392 764 q 189 708 285 770 l 154 734 q 301 921 261 857 l 374 921 m 239 382 l 428 382 q 431 411 431 385 q 404 522 431 486 q 342 558 376 558 q 304 546 326 558 q 267 511 282 533 q 239 382 241 473 m 591 179 q 612 136 612 179 q 353 -14 509 -14 q 140 56 216 -14 q 52 275 52 136 q 145 522 52 427 q 357 616 239 616 q 482 595 431 616 q 559 536 533 574 q 596 458 585 498 q 607 370 607 418 q 567 326 607 327 l 233 326 q 233 317 233 323 q 232 304 232 310 q 278 155 232 205 q 407 106 323 106 q 591 179 519 105 z "},"":{"ha":672,"x_min":52,"x_max":612,"o":"m 414 742 q 403 753 414 742 q 392 796 392 764 q 414 850 392 828 q 468 872 436 872 q 522 850 500 872 q 545 796 545 828 q 522 743 545 766 q 468 721 500 721 q 414 742 436 721 m 134 796 q 156 850 134 828 q 210 872 178 872 q 264 850 241 872 q 286 796 286 828 q 264 742 286 764 q 210 721 241 721 q 156 743 178 721 q 134 796 134 766 m 239 387 l 428 387 q 431 416 431 390 q 404 528 431 492 q 342 564 376 564 q 304 551 326 564 q 267 517 282 539 q 239 387 241 479 m 591 184 q 612 142 612 184 q 353 -8 509 -8 q 140 61 216 -8 q 52 281 52 142 q 145 527 52 432 q 357 623 239 623 q 482 601 431 623 q 559 542 533 579 q 596 464 585 504 q 607 375 607 424 q 567 332 607 332 l 233 332 q 233 322 233 329 q 232 310 232 315 q 278 161 232 210 q 407 111 323 111 q 591 184 519 111 z "},"":{"ha":447,"x_min":33,"x_max":428,"o":"m 165 936 l 261 764 q 273 728 273 741 q 267 712 273 718 q 250 705 260 705 q 201 733 233 705 l 33 879 l 36 895 q 76 923 48 908 q 138 939 104 939 q 165 936 155 939 m 322 170 q 339 67 322 86 q 422 45 355 49 q 428 21 428 39 q 422 -3 428 3 q 232 0 303 0 q 41 -3 158 0 q 36 21 36 3 q 41 45 36 39 q 125 68 108 50 q 142 170 142 86 l 142 436 q 126 511 142 494 q 52 533 110 528 q 49 578 43 559 q 296 616 270 607 q 328 593 328 616 q 328 588 328 591 q 327 576 328 585 q 326 557 326 567 q 324 533 325 547 q 323 506 323 519 q 322 476 323 492 q 322 446 322 460 l 322 170 z "},"":{"ha":447,"x_min":36,"x_max":428,"o":"m 243 936 q 265 939 251 939 q 345 905 318 939 l 358 873 l 192 724 q 139 701 165 701 q 124 708 131 701 q 117 721 117 714 q 127 754 117 738 l 243 936 m 322 170 q 339 67 322 86 q 422 45 355 49 q 428 21 428 39 q 422 -3 428 3 q 232 0 303 0 q 41 -3 158 0 q 36 21 36 3 q 41 45 36 39 q 125 68 108 50 q 142 170 142 86 l 142 436 q 126 511 142 494 q 52 533 110 528 q 49 578 43 559 q 296 616 270 607 q 328 593 328 616 q 328 588 328 591 q 327 576 328 585 q 326 557 326 567 q 324 533 325 547 q 323 506 323 519 q 322 476 323 492 q 322 446 322 460 l 322 170 z "},"":{"ha":447,"x_min":29,"x_max":428,"o":"m 249 921 q 395 734 296 844 l 359 708 q 211 823 267 764 q 64 708 159 770 l 29 734 q 176 921 136 857 l 249 921 m 322 170 q 339 67 322 86 q 422 45 355 49 q 428 21 428 39 q 422 -3 428 3 q 232 0 303 0 q 41 -3 158 0 q 36 21 36 3 q 41 45 36 39 q 125 68 108 50 q 142 170 142 86 l 142 436 q 126 511 142 494 q 52 533 110 528 q 49 578 43 559 q 296 616 270 607 q 328 593 328 616 q 328 588 328 591 q 327 576 328 585 q 326 557 326 567 q 324 533 325 547 q 323 506 323 519 q 322 476 323 492 q 322 446 322 460 l 322 170 z "},"":{"ha":447,"x_min":4,"x_max":428,"o":"m 285 742 q 274 753 285 742 q 262 796 262 764 q 285 850 262 828 q 339 872 307 872 q 393 850 371 872 q 415 796 415 828 q 393 743 415 766 q 339 721 371 721 q 285 742 307 721 m 4 796 q 26 850 4 828 q 81 872 49 872 q 135 850 113 872 q 157 796 157 828 q 135 742 157 764 q 81 721 113 721 q 26 743 49 721 q 4 796 4 766 m 322 170 q 339 67 322 86 q 422 45 355 49 q 428 21 428 39 q 422 -3 428 3 q 232 0 303 0 q 41 -3 158 0 q 36 21 36 3 q 41 45 36 39 q 125 68 108 50 q 142 170 142 86 l 142 436 q 126 511 142 494 q 52 533 110 528 q 49 578 43 559 q 296 616 270 607 q 328 593 328 616 q 328 588 328 591 q 327 576 328 585 q 326 557 326 567 q 324 533 325 547 q 323 506 323 519 q 322 476 323 492 q 322 446 322 460 l 322 170 z "},"":{"ha":776,"x_min":49,"x_max":717,"o":"m 49 290 q 160 530 49 440 q 397 616 266 616 q 468 610 429 616 q 358 774 427 705 q 205 671 289 725 l 172 721 l 318 818 q 201 922 243 893 l 236 970 q 397 871 347 910 q 484 929 425 890 q 553 975 542 968 l 586 925 l 449 833 q 629 642 581 714 q 717 332 717 511 q 624 72 717 158 q 374 -14 530 -14 q 142 81 236 -14 q 49 290 49 176 m 396 45 q 484 105 446 45 q 522 313 522 165 q 507 501 522 397 q 395 558 454 558 q 280 483 317 558 q 243 315 243 408 q 289 123 243 201 q 396 45 335 45 z "},"":{"ha":855,"x_min":31,"x_max":844,"o":"m 501 818 q 570 878 546 818 q 597 870 585 878 q 608 850 608 863 q 555 755 590 790 q 482 721 521 721 q 392 750 431 721 q 311 774 356 774 q 282 771 293 774 q 261 756 272 768 q 243 718 250 743 q 207 743 207 718 q 256 836 225 799 q 322 872 288 872 q 425 838 382 872 q 501 818 450 818 m 317 170 q 329 68 317 87 q 389 45 342 49 q 394 21 394 39 q 389 -3 395 3 q 227 0 269 0 q 36 -3 153 0 q 31 21 31 3 q 36 45 31 39 q 119 68 102 50 q 136 170 136 86 l 136 429 q 120 504 136 488 q 46 526 104 521 q 43 571 38 553 q 273 616 161 587 q 306 593 304 616 q 315 503 312 551 q 546 616 480 617 q 730 395 730 616 l 730 178 q 751 70 730 93 q 838 45 771 47 q 844 21 844 39 q 838 -3 844 3 q 640 0 718 0 q 471 -3 587 0 q 464 21 464 3 q 471 45 464 39 q 533 72 517 47 q 550 178 550 96 l 550 410 q 453 514 550 514 q 317 449 412 514 l 317 446 l 317 170 z "},"":{"ha":765,"x_min":52,"x_max":714,"o":"m 339 936 l 435 764 q 447 728 447 741 q 440 712 447 718 q 424 705 433 705 q 375 733 407 705 l 207 879 l 210 895 q 250 923 222 908 q 311 939 278 939 q 339 936 328 939 m 361 558 q 245 318 245 558 q 287 134 245 222 q 404 45 328 45 q 485 94 450 45 q 519 256 519 143 q 476 478 519 397 q 361 558 433 558 m 52 288 q 127 514 52 427 q 383 616 217 617 q 624 528 534 616 q 714 300 714 439 q 619 65 714 150 q 382 -14 530 -14 q 146 70 240 -14 q 52 288 52 153 z "},"":{"ha":765,"x_min":52,"x_max":714,"o":"m 392 936 q 414 939 400 939 q 493 905 467 939 l 507 873 l 340 724 q 288 701 314 701 q 272 708 279 701 q 265 721 265 714 q 277 754 265 738 l 392 936 m 361 558 q 245 318 245 558 q 287 134 245 222 q 404 45 328 45 q 485 94 450 45 q 519 256 519 143 q 476 478 519 397 q 361 558 433 558 m 52 288 q 127 514 52 427 q 383 616 217 617 q 624 528 534 616 q 714 300 714 439 q 619 65 714 150 q 382 -14 530 -14 q 146 70 240 -14 q 52 288 52 153 z "},"":{"ha":765,"x_min":52,"x_max":714,"o":"m 421 921 q 567 734 469 844 l 532 708 q 383 823 439 764 q 236 708 332 770 l 201 734 q 349 921 309 857 l 421 921 m 361 558 q 245 318 245 558 q 287 134 245 222 q 404 45 328 45 q 485 94 450 45 q 519 256 519 143 q 476 478 519 397 q 361 558 433 558 m 52 288 q 127 514 52 427 q 383 616 217 617 q 624 528 534 616 q 714 300 714 439 q 619 65 714 150 q 382 -14 530 -14 q 146 70 240 -14 q 52 288 52 153 z "},"":{"ha":765,"x_min":52,"x_max":714,"o":"m 452 818 q 519 878 496 818 q 547 870 535 878 q 558 850 558 863 q 505 755 540 790 q 432 721 471 721 q 342 750 380 721 q 261 774 306 774 q 233 771 243 774 q 211 756 222 768 q 193 718 200 743 q 157 743 157 718 q 206 836 175 799 q 272 872 237 872 q 375 838 332 872 q 452 818 400 818 m 361 558 q 245 318 245 558 q 287 134 245 222 q 404 45 328 45 q 485 94 450 45 q 519 256 519 143 q 476 478 519 397 q 361 558 433 558 m 52 288 q 127 514 52 427 q 383 616 217 617 q 624 528 534 616 q 714 300 714 439 q 619 65 714 150 q 382 -14 530 -14 q 146 70 240 -14 q 52 288 52 153 z "},"":{"ha":765,"x_min":52,"x_max":714,"o":"m 453 742 q 442 753 453 742 q 431 796 431 764 q 453 850 431 828 q 507 872 475 872 q 561 850 539 872 q 583 796 583 828 q 561 743 583 766 q 507 721 539 721 q 453 742 475 721 m 172 796 q 194 850 172 828 q 249 872 216 872 q 303 850 281 872 q 325 796 325 828 q 303 742 325 764 q 249 721 281 721 q 194 743 216 721 q 172 796 172 766 m 361 558 q 245 318 245 558 q 287 134 245 222 q 404 45 328 45 q 485 94 450 45 q 519 256 519 143 q 476 478 519 397 q 361 558 433 558 m 52 288 q 127 514 52 427 q 383 616 217 617 q 624 528 534 616 q 714 300 714 439 q 619 65 714 150 q 382 -14 530 -14 q 146 70 240 -14 q 52 288 52 153 z "},"":{"ha":749,"x_min":89,"x_max":657,"o":"m 288 534 q 313 593 288 568 q 374 617 338 617 q 433 594 409 617 q 458 536 458 570 q 454 515 458 526 q 446 496 451 505 q 432 479 440 487 q 414 466 424 471 q 394 458 405 461 q 372 455 383 455 q 312 478 336 455 q 288 534 288 501 m 288 117 q 295 150 288 134 q 313 176 302 165 q 341 194 325 187 q 374 200 357 200 q 406 194 391 200 q 433 177 422 188 q 451 151 444 166 q 458 120 458 136 q 446 79 458 98 q 414 50 434 60 q 372 39 394 39 q 312 61 336 39 q 288 117 288 84 m 657 370 l 643 286 l 89 286 l 103 370 l 657 370 z "},"":{"ha":787,"x_min":58,"x_max":721,"o":"m 625 660 l 676 619 l 614 543 q 693 438 666 500 q 721 300 721 375 q 627 65 721 150 q 389 -14 538 -14 q 199 36 281 -14 l 131 -47 l 81 -3 l 146 76 q 58 288 58 159 q 134 514 58 427 q 390 616 224 617 q 559 579 485 616 l 625 660 m 368 558 q 253 318 253 558 q 264 220 253 271 l 480 483 q 368 558 437 558 m 508 414 l 288 145 q 411 45 333 44 q 492 94 457 45 q 526 256 526 143 q 508 414 526 346 z "},"":{"ha":830,"x_min":25,"x_max":802,"o":"m 359 936 l 456 764 q 468 728 468 741 q 461 712 468 718 q 444 705 454 705 q 396 733 427 705 l 228 879 l 231 895 q 271 923 243 908 q 332 939 298 939 q 359 936 349 939 m 708 184 q 726 103 708 125 q 799 77 743 82 q 802 32 807 50 q 571 -14 684 16 q 539 9 541 -14 q 532 71 536 36 q 404 11 469 35 q 301 -14 338 -14 q 123 208 123 -14 l 123 425 q 103 531 123 507 q 31 558 83 555 q 25 582 25 564 q 31 606 25 600 q 214 603 150 603 q 293 606 243 603 q 307 558 307 592 q 306 524 307 553 q 304 425 304 494 l 304 193 q 328 108 304 127 q 401 89 351 89 q 529 126 469 89 q 528 148 528 137 q 528 168 528 158 l 528 425 q 510 531 528 509 q 435 558 492 553 q 428 582 428 564 q 435 606 428 600 q 618 603 554 603 q 697 606 644 603 q 711 558 711 592 q 710 524 711 553 q 708 425 708 494 l 708 184 z "},"":{"ha":830,"x_min":25,"x_max":802,"o":"m 429 936 q 452 939 437 939 q 530 905 505 939 l 545 873 l 378 724 q 325 701 351 701 q 310 708 317 701 q 302 721 302 714 q 314 754 302 738 l 429 936 m 708 184 q 726 103 708 125 q 799 77 743 82 q 802 32 807 50 q 571 -14 684 16 q 539 9 541 -14 q 532 71 536 36 q 404 11 469 35 q 301 -14 338 -14 q 123 208 123 -14 l 123 425 q 103 531 123 507 q 31 558 83 555 q 25 582 25 564 q 31 606 25 600 q 214 603 150 603 q 293 606 243 603 q 307 558 307 592 q 306 524 307 553 q 304 425 304 494 l 304 193 q 328 108 304 127 q 401 89 351 89 q 529 126 469 89 q 528 148 528 137 q 528 168 528 158 l 528 425 q 510 531 528 509 q 435 558 492 553 q 428 582 428 564 q 435 606 428 600 q 618 603 554 603 q 697 606 644 603 q 711 558 711 592 q 710 524 711 553 q 708 425 708 494 l 708 184 z "},"":{"ha":830,"x_min":25,"x_max":802,"o":"m 427 921 q 572 734 474 844 l 538 708 q 389 823 445 764 q 241 708 337 770 l 207 734 q 354 921 314 857 l 427 921 m 708 184 q 726 103 708 125 q 799 77 743 82 q 802 32 807 50 q 571 -14 684 16 q 539 9 541 -14 q 532 71 536 36 q 404 11 469 35 q 301 -14 338 -14 q 123 208 123 -14 l 123 425 q 103 531 123 507 q 31 558 83 555 q 25 582 25 564 q 31 606 25 600 q 214 603 150 603 q 293 606 243 603 q 307 558 307 592 q 306 524 307 553 q 304 425 304 494 l 304 193 q 328 108 304 127 q 401 89 351 89 q 529 126 469 89 q 528 148 528 137 q 528 168 528 158 l 528 425 q 510 531 528 509 q 435 558 492 553 q 428 582 428 564 q 435 606 428 600 q 618 603 554 603 q 697 606 644 603 q 711 558 711 592 q 710 524 711 553 q 708 425 708 494 l 708 184 z "},"":{"ha":830,"x_min":25,"x_max":802,"o":"m 475 742 q 464 753 475 742 q 453 796 453 764 q 475 850 453 828 q 529 872 497 872 q 583 850 561 872 q 606 796 606 828 q 583 743 606 766 q 529 721 561 721 q 475 742 497 721 m 195 796 q 217 850 195 828 q 271 872 239 872 q 325 850 302 872 q 347 796 347 828 q 325 742 347 764 q 271 721 302 721 q 217 743 239 721 q 195 796 195 766 m 708 184 q 726 103 708 125 q 799 77 743 82 q 802 32 807 50 q 571 -14 684 16 q 539 9 541 -14 q 532 71 536 36 q 404 11 469 35 q 301 -14 338 -14 q 123 208 123 -14 l 123 425 q 103 531 123 507 q 31 558 83 555 q 25 582 25 564 q 31 606 25 600 q 214 603 150 603 q 293 606 243 603 q 307 558 307 592 q 306 524 307 553 q 304 425 304 494 l 304 193 q 328 108 304 127 q 401 89 351 89 q 529 126 469 89 q 528 148 528 137 q 528 168 528 158 l 528 425 q 510 531 528 509 q 435 558 492 553 q 428 582 428 564 q 435 606 428 600 q 618 603 554 603 q 697 606 644 603 q 711 558 711 592 q 710 524 711 553 q 708 425 708 494 l 708 184 z "},"":{"ha":774,"x_min":8,"x_max":766,"o":"m 454 936 q 476 939 463 939 q 555 905 529 939 l 570 873 l 403 724 q 350 701 376 701 q 335 708 342 701 q 328 721 328 714 q 339 754 328 738 l 454 936 m 336 -233 q 253 -309 309 -282 q 174 -322 224 -322 q 119 -297 140 -322 q 103 -241 102 -277 q 126 -198 103 -218 q 186 -178 149 -178 q 208 -180 194 -178 q 235 -183 222 -183 q 278 -167 262 -183 q 309 -115 294 -151 l 342 -39 q 345 -24 343 -28 q 340 -8 346 -20 q 330 7 334 3 q 317 25 326 12 q 302 45 307 37 l 123 456 q 78 537 96 521 q 14 558 60 554 q 8 582 8 564 q 14 606 8 600 q 168 603 69 603 q 353 606 250 603 q 358 582 358 600 q 353 558 358 564 q 289 533 294 554 q 307 469 283 511 l 436 179 q 438 174 438 176 q 439 176 438 175 l 582 497 q 588 522 591 511 q 581 539 585 533 q 565 550 578 546 q 542 555 551 554 q 515 558 532 557 q 509 582 509 564 q 515 606 509 600 q 663 603 618 603 q 761 606 692 603 q 766 582 766 600 q 761 558 766 564 q 695 530 725 555 q 648 471 665 504 q 396 -103 528 215 q 336 -233 363 -187 z "},"":{"ha":817,"x_min":36,"x_max":764,"o":"m 322 -153 q 339 -255 322 -236 q 422 -278 355 -273 q 428 -301 428 -283 q 422 -325 428 -319 q 232 -322 303 -322 q 41 -325 158 -322 q 36 -301 36 -319 q 41 -278 36 -283 q 125 -254 108 -273 q 142 -153 142 -236 l 142 789 q 126 862 142 847 q 52 884 110 878 q 48 907 49 890 q 49 930 47 924 q 296 970 270 960 q 328 946 328 970 q 322 799 322 868 l 322 473 l 323 529 l 326 529 q 412 590 363 564 q 490 616 461 616 q 681 547 611 616 q 742 449 720 509 q 764 329 764 389 q 669 81 764 175 q 415 -14 574 -14 q 322 9 368 -14 l 322 -153 m 322 473 l 322 90 q 407 45 365 44 q 530 118 490 45 q 570 292 570 191 q 532 464 570 404 q 446 524 494 524 q 322 473 376 524 z "},"":{"ha":774,"x_min":8,"x_max":766,"o":"m 512 742 q 501 753 512 742 q 490 796 490 764 q 512 850 490 828 q 567 872 534 872 q 621 850 599 872 q 643 796 643 828 q 621 743 643 766 q 567 721 599 721 q 512 742 534 721 m 232 796 q 254 850 232 828 q 309 872 277 872 q 362 850 340 872 q 385 796 385 828 q 362 742 385 764 q 309 721 340 721 q 254 743 277 721 q 232 796 232 766 m 336 -233 q 253 -309 309 -282 q 174 -322 224 -322 q 119 -297 140 -322 q 103 -241 102 -277 q 126 -198 103 -218 q 186 -178 149 -178 q 208 -180 194 -178 q 235 -183 222 -183 q 278 -167 262 -183 q 309 -115 294 -151 l 342 -39 q 345 -24 343 -28 q 340 -8 346 -20 q 330 7 334 3 q 317 25 326 12 q 302 45 307 37 l 123 456 q 78 537 96 521 q 14 558 60 554 q 8 582 8 564 q 14 606 8 600 q 168 603 69 603 q 353 606 250 603 q 358 582 358 600 q 353 558 358 564 q 289 533 294 554 q 307 469 283 511 l 436 179 q 438 174 438 176 q 439 176 438 175 l 582 497 q 588 522 591 511 q 581 539 585 533 q 565 550 578 546 q 542 555 551 554 q 515 558 532 557 q 509 582 509 564 q 515 606 509 600 q 663 603 618 603 q 761 606 692 603 q 766 582 766 600 q 761 558 766 564 q 695 530 725 555 q 648 471 665 504 q 396 -103 528 215 q 336 -233 363 -187 z "},"":{"ha":1027,"x_min":3,"x_max":1019,"o":"m 707 1048 l 326 1048 q 306 1074 305 1048 q 317 1103 306 1087 q 340 1118 328 1118 l 724 1118 q 743 1095 743 1118 q 732 1064 743 1079 q 707 1048 720 1048 m 379 393 l 590 393 l 477 722 l 467 722 l 344 412 q 342 404 342 408 q 345 399 343 401 q 352 395 347 397 q 363 394 357 394 q 379 393 370 393 m 229 110 q 225 86 228 96 q 233 68 222 75 q 249 57 243 61 q 272 50 256 53 q 298 47 289 47 q 325 45 307 46 q 330 21 330 39 q 325 -3 330 3 q 140 0 222 0 q 9 -3 113 0 q 3 21 3 3 q 9 45 3 39 q 66 53 45 47 q 109 79 86 58 q 149 142 132 100 l 450 852 q 603 914 501 852 l 889 119 q 908 84 896 98 q 926 64 920 71 q 956 52 933 57 q 981 47 978 47 q 1014 45 985 47 q 1019 21 1019 39 q 1014 -3 1019 3 q 828 0 911 0 q 590 -3 693 0 q 583 21 583 3 q 590 45 583 39 q 612 45 598 45 q 633 47 625 46 q 651 48 640 47 q 667 51 661 49 q 679 55 672 53 q 690 61 686 57 q 695 71 693 65 q 696 83 697 77 q 693 100 696 90 l 615 326 l 351 326 q 317 321 326 326 q 302 302 309 317 l 229 110 z "},"":{"ha":703,"x_min":61,"x_max":700,"o":"m 498 754 l 118 754 q 97 779 97 754 q 108 808 97 793 q 132 823 119 823 l 515 823 q 534 800 535 823 q 523 769 534 785 q 498 754 512 754 m 410 67 l 401 66 q 313 12 364 37 q 235 -14 262 -14 q 61 132 61 -14 q 121 248 61 208 q 310 328 180 288 l 403 357 q 375 518 403 477 q 296 558 347 558 q 237 527 241 558 q 237 504 236 517 q 241 480 239 492 q 243 461 243 468 q 218 416 243 435 q 157 397 193 397 q 102 416 119 397 q 85 467 85 435 q 111 529 85 500 q 176 577 137 558 q 260 606 216 595 q 343 616 304 616 q 581 376 581 616 l 578 176 q 586 103 578 123 q 616 83 595 83 q 675 103 650 83 q 700 64 700 82 q 518 -14 618 -14 q 410 67 424 -14 m 403 302 l 330 279 q 274 254 296 269 q 242 222 252 240 q 231 190 233 204 q 228 153 228 176 q 247 93 228 117 q 309 69 267 69 q 403 119 340 69 l 403 302 z "},"":{"ha":1027,"x_min":3,"x_max":1019,"o":"m 700 1153 q 638 1030 694 1081 q 513 979 582 979 q 383 1029 437 979 q 323 1153 329 1079 l 363 1157 q 513 1082 378 1082 q 613 1101 570 1082 q 663 1157 656 1120 l 700 1153 m 379 393 l 590 393 l 477 722 l 467 722 l 344 412 q 342 404 342 408 q 345 399 343 401 q 352 395 347 397 q 363 394 357 394 q 379 393 370 393 m 229 110 q 225 86 228 96 q 233 68 222 75 q 249 57 243 61 q 272 50 256 53 q 298 47 289 47 q 325 45 307 46 q 330 21 330 39 q 325 -3 330 3 q 140 0 222 0 q 9 -3 113 0 q 3 21 3 3 q 9 45 3 39 q 66 53 45 47 q 109 79 86 58 q 149 142 132 100 l 450 852 q 603 914 501 852 l 889 119 q 908 84 896 98 q 926 64 920 71 q 956 52 933 57 q 981 47 978 47 q 1014 45 985 47 q 1019 21 1019 39 q 1014 -3 1019 3 q 828 0 911 0 q 590 -3 693 0 q 583 21 583 3 q 590 45 583 39 q 612 45 598 45 q 633 47 625 46 q 651 48 640 47 q 667 51 661 49 q 679 55 672 53 q 690 61 686 57 q 695 71 693 65 q 696 83 697 77 q 693 100 696 90 l 615 326 l 351 326 q 317 321 326 326 q 302 302 309 317 l 229 110 z "},"":{"ha":703,"x_min":61,"x_max":700,"o":"m 410 67 l 401 66 q 313 12 364 37 q 235 -14 262 -14 q 61 132 61 -14 q 121 248 61 208 q 310 328 180 288 l 403 357 q 375 518 403 477 q 296 558 347 558 q 237 527 241 558 q 237 504 236 517 q 241 480 239 492 q 243 461 243 468 q 218 416 243 435 q 157 397 193 397 q 102 416 119 397 q 85 467 85 435 q 111 529 85 500 q 176 577 137 558 q 260 606 216 595 q 343 616 304 616 q 581 376 581 616 l 578 176 q 586 103 578 123 q 616 83 595 83 q 675 103 650 83 q 700 64 700 82 q 518 -14 618 -14 q 410 67 424 -14 m 403 302 l 330 279 q 274 254 296 269 q 242 222 252 240 q 231 190 233 204 q 228 153 228 176 q 247 93 228 117 q 309 69 267 69 q 403 119 340 69 l 403 302 m 186 926 q 228 844 187 872 q 336 817 268 817 q 485 926 479 817 l 529 913 q 460 764 519 814 q 336 714 400 714 q 201 770 254 714 q 140 913 147 827 l 186 926 z "},"":{"ha":1027,"x_min":3,"x_max":1019,"o":"m 940 -245 q 789 -322 884 -322 q 720 -300 754 -322 q 665 -189 665 -264 q 706 -87 665 -140 q 803 0 747 -33 q 590 -3 668 -1 q 583 21 583 3 q 590 45 583 39 q 612 45 598 45 q 633 47 625 46 q 651 48 640 47 q 667 51 661 49 q 679 55 672 53 q 690 61 686 57 q 695 71 693 65 q 696 83 697 77 q 693 100 696 90 l 615 326 l 351 326 q 317 321 326 326 q 302 302 309 317 l 229 110 q 225 86 228 96 q 233 68 222 75 q 249 57 243 61 q 272 50 256 53 q 298 47 289 47 q 325 45 307 46 q 330 21 330 39 q 325 -3 330 3 q 140 0 222 0 q 9 -3 113 0 q 3 21 3 3 q 9 45 3 39 q 66 53 45 47 q 109 79 86 58 q 149 142 132 100 l 450 852 q 603 914 501 852 l 889 119 q 908 84 896 98 q 926 64 920 71 q 956 52 933 57 q 981 47 978 47 q 1014 45 985 47 q 1019 21 1019 39 q 1014 -3 1019 3 q 910 -1 975 -1 q 851 -34 878 -7 q 809 -100 825 -61 q 793 -180 793 -139 q 842 -239 793 -239 q 920 -214 895 -239 l 940 -245 m 379 393 l 590 393 l 477 722 l 467 722 l 344 412 q 342 404 342 408 q 345 399 343 401 q 352 395 347 397 q 363 394 357 394 q 379 393 370 393 z "},"":{"ha":703,"x_min":61,"x_max":700,"o":"m 676 -245 q 604 -302 650 -281 q 515 -322 558 -322 q 424 -290 461 -322 q 387 -203 387 -258 q 526 -14 387 -119 q 518 -14 522 -14 q 410 67 424 -14 l 401 66 q 313 12 364 37 q 235 -14 262 -14 q 61 132 61 -14 q 121 248 61 208 q 310 328 180 288 l 403 357 q 375 518 403 477 q 296 558 347 558 q 237 527 241 558 q 237 504 236 517 q 241 480 239 492 q 243 461 243 468 q 218 416 243 435 q 157 397 193 397 q 102 416 119 397 q 85 467 85 435 q 111 529 85 500 q 176 577 137 558 q 260 606 216 595 q 343 616 304 616 q 581 376 581 616 l 578 176 q 586 103 578 123 q 616 83 595 83 q 675 103 650 83 q 700 64 700 82 q 635 15 667 33 l 636 14 q 555 -77 581 -38 q 529 -174 529 -117 q 543 -213 529 -200 q 578 -225 557 -225 q 656 -200 631 -225 q 676 -245 676 -214 m 403 302 l 330 279 q 274 254 296 269 q 242 222 252 240 q 231 190 233 204 q 228 153 228 176 q 247 93 228 117 q 309 69 267 69 q 403 119 340 69 l 403 302 z "},"":{"ha":980,"x_min":52,"x_max":904,"o":"m 586 1157 q 676 1080 646 1129 l 672 1064 l 472 983 q 424 974 447 974 q 405 980 414 974 q 396 994 396 986 q 410 1023 396 1011 q 586 1157 472 1078 m 904 174 q 551 -14 761 -14 q 220 74 342 -14 q 95 232 139 131 q 52 437 52 334 q 195 786 52 659 q 553 914 339 914 q 748 883 652 914 q 857 851 843 852 q 888 636 881 705 q 828 629 857 619 q 732 796 796 736 q 538 856 668 856 q 338 743 416 856 q 261 464 261 629 q 346 179 261 300 q 550 58 431 58 q 859 203 726 58 q 884 193 869 203 q 904 174 899 183 z "},"":{"ha":633,"x_min":52,"x_max":586,"o":"m 370 936 q 392 939 378 939 q 471 905 445 939 l 485 873 l 318 724 q 265 701 292 701 q 250 708 257 701 q 243 721 243 714 q 254 754 243 738 l 370 936 m 586 121 q 480 24 546 62 q 354 -14 415 -14 q 138 58 214 -14 q 52 279 52 139 q 142 523 52 429 q 359 616 232 616 q 526 571 465 616 q 586 472 586 525 q 565 417 586 439 q 510 395 543 395 q 451 413 476 395 q 424 460 427 432 q 401 529 420 500 q 347 558 382 558 q 232 328 232 558 q 288 151 232 218 q 425 85 345 85 q 568 164 482 85 q 586 121 586 163 z "},"":{"ha":980,"x_min":52,"x_max":904,"o":"m 904 174 q 551 -14 761 -14 q 220 74 342 -14 q 95 232 139 131 q 52 437 52 334 q 195 786 52 659 q 553 914 339 914 q 748 883 652 914 q 857 851 843 852 q 888 636 881 705 q 828 629 857 619 q 732 796 796 736 q 538 856 668 856 q 338 743 416 856 q 261 464 261 629 q 346 179 261 300 q 550 58 431 58 q 859 203 726 58 q 884 193 869 203 q 904 174 899 183 m 732 1006 q 710 970 732 979 q 538 1047 591 1006 q 367 970 475 1001 q 347 1007 347 978 q 524 1152 436 1064 l 543 1158 q 732 1006 629 1072 z "},"":{"ha":633,"x_min":52,"x_max":586,"o":"m 586 121 q 480 24 546 62 q 354 -14 415 -14 q 138 58 214 -14 q 52 279 52 139 q 142 523 52 429 q 359 616 232 616 q 526 571 465 616 q 586 472 586 525 q 565 417 586 439 q 510 395 543 395 q 451 413 476 395 q 424 460 427 432 q 401 529 420 500 q 347 558 382 558 q 232 328 232 558 q 288 151 232 218 q 425 85 345 85 q 568 164 482 85 q 586 121 586 163 m 374 921 q 519 734 421 844 l 485 708 q 336 823 392 764 q 189 708 285 770 l 154 734 q 301 921 261 857 l 374 921 z "},"":{"ha":980,"x_min":52,"x_max":904,"o":"m 463 1010 q 450 1023 463 1010 q 437 1071 437 1036 q 463 1131 437 1105 q 524 1157 489 1157 q 584 1131 558 1157 q 610 1071 610 1105 q 584 1010 610 1036 q 524 985 558 985 q 463 1010 489 985 m 904 174 q 551 -14 761 -14 q 220 74 342 -14 q 95 232 139 131 q 52 437 52 334 q 195 786 52 659 q 553 914 339 914 q 748 883 652 914 q 857 851 843 852 q 888 636 881 705 q 828 629 857 619 q 732 796 796 736 q 538 856 668 856 q 338 743 416 856 q 261 464 261 629 q 346 179 261 300 q 550 58 431 58 q 859 203 726 58 q 884 193 869 203 q 904 174 899 183 z "},"":{"ha":633,"x_min":52,"x_max":586,"o":"m 257 828 q 283 888 257 863 q 354 914 309 914 q 419 886 394 914 q 444 822 444 857 q 416 764 444 791 q 346 736 389 736 q 281 764 306 736 q 257 828 257 792 m 586 121 q 480 24 546 62 q 354 -14 415 -14 q 138 58 214 -14 q 52 279 52 139 q 142 523 52 429 q 359 616 232 616 q 526 571 465 616 q 586 472 586 525 q 565 417 586 439 q 510 395 543 395 q 451 413 476 395 q 424 460 427 432 q 401 529 420 500 q 347 558 382 558 q 232 328 232 558 q 288 151 232 218 q 425 85 345 85 q 568 164 482 85 q 586 121 586 163 z "},"":{"ha":980,"x_min":52,"x_max":904,"o":"m 904 174 q 551 -14 761 -14 q 220 74 342 -14 q 95 232 139 131 q 52 437 52 334 q 195 786 52 659 q 553 914 339 914 q 748 883 652 914 q 857 851 843 852 q 888 636 881 705 q 828 629 857 619 q 732 796 796 736 q 538 856 668 856 q 338 743 416 856 q 261 464 261 629 q 346 179 261 300 q 550 58 431 58 q 859 203 726 58 q 884 193 869 203 q 904 174 899 183 m 346 1122 q 368 1158 346 1149 q 541 1080 488 1122 q 711 1158 603 1126 q 730 1121 731 1150 q 554 977 642 1064 l 534 970 q 346 1122 449 1056 z "},"":{"ha":633,"x_min":52,"x_max":586,"o":"m 366 734 l 296 734 q 154 914 257 795 l 187 939 q 329 822 273 879 q 472 939 378 873 l 505 914 q 366 734 412 808 m 586 121 q 480 24 546 62 q 354 -14 415 -14 q 138 58 214 -14 q 52 279 52 139 q 142 523 52 429 q 359 616 232 616 q 526 571 465 616 q 586 472 586 525 q 565 417 586 439 q 510 395 543 395 q 451 413 476 395 q 424 460 427 432 q 401 529 420 500 q 347 558 382 558 q 232 328 232 558 q 288 151 232 218 q 425 85 345 85 q 568 164 482 85 q 586 121 586 163 z "},"":{"ha":1019,"x_min":33,"x_max":953,"o":"m 277 1122 q 298 1158 277 1149 q 471 1080 418 1122 q 642 1158 533 1126 q 661 1121 661 1150 q 485 977 572 1064 l 465 970 q 277 1122 380 1056 m 353 165 q 381 77 353 99 q 486 56 410 56 q 571 74 529 56 q 653 129 614 92 q 718 236 693 167 q 743 395 743 304 q 738 522 743 467 q 714 640 733 578 q 665 744 696 703 q 576 812 633 785 q 439 839 518 839 q 353 734 353 839 l 353 165 m 257 0 l 43 -3 q 33 21 33 4 q 43 45 33 39 q 94 50 77 46 q 129 65 111 53 q 152 102 146 77 q 158 170 158 127 l 158 726 q 152 793 158 768 q 129 831 146 819 q 95 846 111 843 q 43 851 78 850 q 33 876 33 858 q 43 899 33 893 q 257 896 201 896 q 344 897 282 896 q 444 897 406 897 q 821 765 690 897 q 953 429 953 633 q 922 241 953 325 q 840 114 892 158 q 482 -3 707 -3 q 370 -1 454 -3 q 257 0 285 0 z "},"":{"ha":825,"x_min":52,"x_max":873,"o":"m 790 970 q 850 939 827 970 q 873 868 873 908 q 868 830 873 851 q 848 784 863 810 q 802 741 833 758 q 726 721 771 724 l 721 745 q 783 783 761 753 q 804 840 804 812 q 789 865 804 865 q 725 922 725 865 q 790 970 725 970 m 488 132 q 488 143 488 138 q 488 155 488 149 q 488 167 488 161 l 488 509 q 440 549 465 540 q 383 558 416 558 q 281 498 317 558 q 245 318 246 441 q 280 140 245 201 q 370 78 315 78 q 391 83 376 78 q 424 96 406 88 q 460 114 441 104 q 488 132 478 123 m 492 66 l 481 66 q 391 15 446 43 q 311 -14 336 -14 q 224 -1 257 -14 q 149 45 191 12 q 76 145 100 82 q 52 275 52 208 q 152 515 52 413 q 387 616 253 616 q 488 601 443 616 l 488 782 q 474 866 488 852 q 393 886 460 880 q 389 933 382 906 q 650 970 561 940 q 672 951 672 970 q 668 810 668 900 l 668 184 q 685 103 668 125 q 758 77 703 82 q 761 32 766 50 q 530 -14 643 16 q 498 9 500 -14 q 492 66 495 34 z "},"":{"ha":1019,"x_min":24,"x_max":953,"o":"m 353 165 q 381 77 353 99 q 486 56 410 56 q 571 74 529 56 q 653 129 614 92 q 718 236 693 167 q 743 395 743 304 q 738 522 743 467 q 714 640 733 578 q 665 744 696 703 q 576 812 633 785 q 439 839 518 839 q 353 734 353 839 l 353 454 q 497 458 429 455 l 484 389 q 463 390 473 389 q 442 391 452 391 q 420 392 431 391 q 398 392 409 392 q 375 393 387 393 q 353 393 364 393 l 353 165 m 257 0 l 43 -3 q 33 21 33 4 q 43 45 33 39 q 94 50 77 46 q 129 65 111 53 q 152 102 146 77 q 158 170 158 127 l 158 393 q 24 389 90 392 l 37 458 q 96 456 66 457 q 158 454 127 454 l 158 726 q 152 793 158 768 q 129 831 146 819 q 95 846 111 843 q 43 851 78 850 q 33 876 33 858 q 43 899 33 893 q 257 896 201 896 q 344 897 282 896 q 444 897 406 897 q 821 765 690 897 q 953 429 953 633 q 922 241 953 325 q 840 114 892 158 q 482 -3 707 -3 q 370 -1 454 -3 q 257 0 285 0 z "},"":{"ha":779,"x_min":52,"x_max":771,"o":"m 488 132 q 488 143 488 138 q 488 155 488 149 q 488 167 488 161 l 488 509 q 440 549 465 540 q 383 558 416 558 q 281 498 317 558 q 245 318 246 441 q 280 140 245 201 q 370 78 315 78 q 391 83 376 78 q 424 96 406 88 q 460 114 441 104 q 488 132 478 123 m 492 66 l 481 66 q 391 15 446 43 q 311 -14 336 -14 q 224 -1 257 -14 q 149 45 191 12 q 76 145 100 82 q 52 275 52 208 q 152 515 52 413 q 387 616 253 616 q 488 601 443 616 l 488 728 q 345 722 405 726 l 357 791 q 388 790 372 791 q 420 789 404 789 q 453 787 437 788 q 488 787 470 787 q 486 840 488 823 q 471 868 484 857 q 445 881 459 879 q 393 886 431 883 q 389 933 382 906 q 650 970 561 940 q 672 951 672 970 q 668 810 668 900 l 668 787 q 771 791 722 789 l 758 722 q 715 725 738 724 q 668 726 693 726 l 668 184 q 685 103 668 125 q 758 77 703 82 q 761 32 766 50 q 530 -14 643 16 q 498 9 500 -14 q 492 66 495 34 z "},"":{"ha":838,"x_min":8,"x_max":785,"o":"m 572 1048 l 192 1048 q 171 1074 171 1048 q 182 1103 171 1087 q 205 1118 193 1118 l 589 1118 q 608 1095 608 1118 q 597 1064 608 1079 q 572 1048 586 1048 m 441 507 q 539 524 513 507 q 568 596 566 541 q 599 603 575 603 q 628 596 623 603 q 625 476 625 513 q 628 354 625 451 q 599 347 623 347 q 568 354 575 347 q 538 423 566 403 q 441 443 511 443 l 329 443 l 329 125 q 346 78 329 97 q 386 58 363 58 l 526 58 q 722 236 672 58 q 785 229 758 244 q 776 158 782 208 q 763 67 770 107 q 747 -3 755 28 q 555 0 623 0 l 229 0 q 14 -3 82 -1 q 8 21 8 3 q 14 45 8 39 q 113 67 92 47 q 135 170 135 87 l 135 725 q 113 828 135 808 q 14 851 92 848 q 8 875 8 858 q 14 899 8 892 l 228 896 l 637 896 q 705 901 673 896 q 711 897 711 901 q 715 855 713 893 q 722 768 718 817 q 728 696 725 720 q 668 689 703 684 q 610 804 643 770 q 504 838 576 838 l 386 838 q 346 817 362 838 q 329 770 329 796 l 329 507 l 441 507 z "},"":{"ha":672,"x_min":52,"x_max":612,"o":"m 519 754 l 139 754 q 118 779 118 754 q 129 808 118 793 q 153 823 140 823 l 536 823 q 555 800 556 823 q 544 769 555 785 q 519 754 533 754 m 239 382 l 428 382 q 431 411 431 385 q 404 522 431 486 q 342 558 376 558 q 304 546 326 558 q 267 511 282 533 q 239 382 241 473 m 591 179 q 612 136 612 179 q 353 -14 509 -14 q 140 56 216 -14 q 52 275 52 136 q 145 522 52 427 q 357 616 239 616 q 482 595 431 616 q 559 536 533 574 q 596 458 585 498 q 607 370 607 418 q 567 326 607 327 l 233 326 q 233 317 233 323 q 232 304 232 310 q 278 155 232 205 q 407 106 323 106 q 591 179 519 105 z "},"":{"ha":838,"x_min":8,"x_max":785,"o":"m 603 1153 q 541 1030 597 1081 q 415 979 485 979 q 286 1029 340 979 q 227 1153 232 1079 l 265 1157 q 415 1082 281 1082 q 515 1101 472 1082 q 566 1157 558 1120 l 603 1153 m 441 507 q 539 524 513 507 q 568 596 566 541 q 599 603 575 603 q 628 596 623 603 q 625 476 625 513 q 628 354 625 451 q 599 347 623 347 q 568 354 575 347 q 538 423 566 403 q 441 443 511 443 l 329 443 l 329 125 q 346 78 329 97 q 386 58 363 58 l 526 58 q 722 236 672 58 q 785 229 758 244 q 776 158 782 208 q 763 67 770 107 q 747 -3 755 28 q 555 0 623 0 l 229 0 q 14 -3 82 -1 q 8 21 8 3 q 14 45 8 39 q 113 67 92 47 q 135 170 135 87 l 135 725 q 113 828 135 808 q 14 851 92 848 q 8 875 8 858 q 14 899 8 892 l 228 896 l 637 896 q 705 901 673 896 q 711 897 711 901 q 715 855 713 893 q 722 768 718 817 q 728 696 725 720 q 668 689 703 684 q 610 804 643 770 q 504 838 576 838 l 386 838 q 346 817 362 838 q 329 770 329 796 l 329 507 l 441 507 z "},"":{"ha":672,"x_min":52,"x_max":612,"o":"m 199 926 q 240 844 200 872 q 349 817 281 817 q 497 926 492 817 l 542 913 q 472 764 532 814 q 349 714 412 714 q 213 770 267 714 q 153 913 160 827 l 199 926 m 239 382 l 428 382 q 431 411 431 385 q 404 522 431 486 q 342 558 376 558 q 304 546 326 558 q 267 511 282 533 q 239 382 241 473 m 591 179 q 612 136 612 179 q 353 -14 509 -14 q 140 56 216 -14 q 52 275 52 136 q 145 522 52 427 q 357 616 239 616 q 482 595 431 616 q 559 536 533 574 q 596 458 585 498 q 607 370 607 418 q 567 326 607 327 l 233 326 q 233 317 233 323 q 232 304 232 310 q 278 155 232 205 q 407 106 323 106 q 591 179 519 105 z "},"":{"ha":838,"x_min":8,"x_max":785,"o":"m 366 1010 q 353 1023 366 1010 q 340 1071 340 1036 q 366 1131 340 1105 q 427 1157 392 1157 q 487 1131 461 1157 q 513 1071 513 1105 q 487 1010 513 1036 q 427 985 461 985 q 366 1010 392 985 m 441 507 q 539 524 513 507 q 568 596 566 541 q 599 603 575 603 q 628 596 623 603 q 625 476 625 513 q 628 354 625 451 q 599 347 623 347 q 568 354 575 347 q 538 423 566 403 q 441 443 511 443 l 329 443 l 329 125 q 346 78 329 97 q 386 58 363 58 l 526 58 q 722 236 672 58 q 785 229 758 244 q 776 158 782 208 q 763 67 770 107 q 747 -3 755 28 q 555 0 623 0 l 229 0 q 14 -3 82 -1 q 8 21 8 3 q 14 45 8 39 q 113 67 92 47 q 135 170 135 87 l 135 725 q 113 828 135 808 q 14 851 92 848 q 8 875 8 858 q 14 899 8 892 l 228 896 l 637 896 q 705 901 673 896 q 711 897 711 901 q 715 855 713 893 q 722 768 718 817 q 728 696 725 720 q 668 689 703 684 q 610 804 643 770 q 504 838 576 838 l 386 838 q 346 817 362 838 q 329 770 329 796 l 329 507 l 441 507 z "},"":{"ha":672,"x_min":52,"x_max":612,"o":"m 244 828 q 270 888 244 863 q 342 914 296 914 q 407 886 382 914 q 432 822 432 857 q 404 764 432 791 q 334 736 376 736 q 269 764 294 736 q 244 828 244 792 m 239 382 l 428 382 q 431 411 431 385 q 404 522 431 486 q 342 558 376 558 q 304 546 326 558 q 267 511 282 533 q 239 382 241 473 m 591 179 q 612 136 612 179 q 353 -14 509 -14 q 140 56 216 -14 q 52 275 52 136 q 145 522 52 427 q 357 616 239 616 q 482 595 431 616 q 559 536 533 574 q 596 458 585 498 q 607 370 607 418 q 567 326 607 327 l 233 326 q 233 317 233 323 q 232 304 232 310 q 278 155 232 205 q 407 106 323 106 q 591 179 519 105 z "},"":{"ha":838,"x_min":8,"x_max":785,"o":"m 690 -245 q 539 -322 635 -322 q 469 -300 505 -322 q 415 -189 415 -264 q 456 -87 415 -140 q 553 0 496 -33 l 229 0 q 14 -3 82 -1 q 8 21 8 3 q 14 45 8 39 q 113 67 92 47 q 135 170 135 87 l 135 725 q 113 828 135 808 q 14 851 92 848 q 8 875 8 858 q 14 899 8 892 l 228 896 l 637 896 q 705 901 673 896 q 711 897 711 901 q 715 855 713 893 q 722 768 718 817 q 728 696 725 720 q 668 689 703 684 q 610 804 643 770 q 504 838 576 838 l 386 838 q 346 817 362 838 q 329 770 329 796 l 329 507 l 441 507 q 539 524 513 507 q 568 596 566 541 q 599 603 575 603 q 628 596 623 603 q 625 476 625 513 q 628 354 625 451 q 599 347 623 347 q 568 354 575 347 q 538 423 566 403 q 441 443 511 443 l 329 443 l 329 125 q 346 78 329 97 q 386 58 363 58 l 526 58 q 722 236 672 58 q 785 229 758 244 q 776 158 782 208 q 763 67 770 107 q 747 -3 755 28 q 659 -1 706 -2 q 577 -65 611 -13 q 543 -180 543 -118 q 591 -239 543 -239 q 669 -214 644 -239 l 690 -245 z "},"":{"ha":672,"x_min":52,"x_max":612,"o":"m 239 382 l 428 382 q 431 411 431 385 q 404 522 431 486 q 342 558 376 558 q 304 546 326 558 q 267 511 282 533 q 239 382 241 473 m 591 179 q 612 136 612 179 q 465 9 551 47 q 403 -67 423 -31 q 383 -154 383 -104 q 397 -193 383 -180 q 432 -205 411 -205 q 510 -180 485 -205 q 530 -227 531 -194 q 458 -282 504 -262 q 370 -302 412 -302 q 278 -271 315 -302 q 241 -183 241 -239 q 355 -14 241 -106 l 353 -14 q 140 56 216 -14 q 52 275 52 136 q 145 522 52 427 q 357 616 239 616 q 482 595 431 616 q 559 536 533 574 q 596 458 585 498 q 607 370 607 418 q 567 326 607 327 l 233 326 q 233 317 233 323 q 232 304 232 310 q 278 155 232 205 q 407 106 323 106 q 591 179 519 105 z "},"":{"ha":838,"x_min":8,"x_max":785,"o":"m 235 1122 q 257 1158 235 1149 q 429 1080 376 1122 q 600 1158 492 1126 q 619 1121 620 1150 q 443 977 530 1064 l 424 970 q 235 1122 338 1056 m 441 507 q 539 524 513 507 q 568 596 566 541 q 599 603 575 603 q 628 596 623 603 q 625 476 625 513 q 628 354 625 451 q 599 347 623 347 q 568 354 575 347 q 538 423 566 403 q 441 443 511 443 l 329 443 l 329 125 q 346 78 329 97 q 386 58 363 58 l 526 58 q 722 236 672 58 q 785 229 758 244 q 776 158 782 208 q 763 67 770 107 q 747 -3 755 28 q 555 0 623 0 l 229 0 q 14 -3 82 -1 q 8 21 8 3 q 14 45 8 39 q 113 67 92 47 q 135 170 135 87 l 135 725 q 113 828 135 808 q 14 851 92 848 q 8 875 8 858 q 14 899 8 892 l 228 896 l 637 896 q 705 901 673 896 q 711 897 711 901 q 715 855 713 893 q 722 768 718 817 q 728 696 725 720 q 668 689 703 684 q 610 804 643 770 q 504 838 576 838 l 386 838 q 346 817 362 838 q 329 770 329 796 l 329 507 l 441 507 z "},"":{"ha":672,"x_min":52,"x_max":612,"o":"m 376 714 l 307 714 q 165 893 269 775 l 199 918 q 340 802 285 859 q 484 918 389 853 l 517 893 q 376 714 422 788 m 239 382 l 428 382 q 431 411 431 385 q 404 522 431 486 q 342 558 376 558 q 304 546 326 558 q 267 511 282 533 q 239 382 241 473 m 591 179 q 612 136 612 179 q 353 -14 509 -14 q 140 56 216 -14 q 52 275 52 136 q 145 522 52 427 q 357 616 239 616 q 482 595 431 616 q 559 536 533 574 q 596 458 585 498 q 607 370 607 418 q 567 326 607 327 l 233 326 q 233 317 233 323 q 232 304 232 310 q 278 155 232 205 q 407 106 323 106 q 591 179 519 105 z "},"":{"ha":1048,"x_min":45,"x_max":1022,"o":"m 774 1006 q 751 970 774 979 q 579 1047 632 1006 q 408 970 517 1001 q 389 1007 389 978 q 566 1152 477 1064 l 585 1158 q 774 1006 671 1072 m 566 914 q 770 890 661 914 q 909 865 879 865 q 940 637 925 710 l 879 629 q 767 792 848 729 q 546 856 686 856 q 335 753 414 856 q 254 454 254 647 q 273 312 254 380 q 329 181 292 243 q 434 82 367 119 q 590 45 501 45 q 685 57 647 45 q 757 103 722 69 l 757 310 q 732 360 757 349 q 643 376 708 371 q 636 403 636 383 q 643 428 636 422 q 850 425 774 425 q 1015 428 932 425 q 1022 403 1022 422 q 1015 376 1022 383 q 967 359 983 374 q 951 310 951 345 l 951 147 q 974 109 951 126 q 793 19 905 52 q 558 -14 681 -14 q 197 92 328 -14 q 84 241 123 151 q 45 427 45 330 q 197 785 45 656 q 566 914 348 914 z "},"":{"ha":724,"x_min":16,"x_max":710,"o":"m 372 921 q 518 734 420 844 l 484 708 q 335 823 391 764 q 187 708 283 770 l 153 734 q 300 921 260 857 l 372 921 m 403 400 q 310 564 403 564 q 250 532 269 564 q 231 424 231 500 q 328 250 231 250 q 382 280 361 250 q 403 400 403 310 m 243 -35 q 182 -26 203 -35 q 167 -134 166 -54 q 211 -231 167 -189 q 321 -272 254 -272 q 415 -267 372 -272 q 488 -245 458 -261 q 538 -190 520 -227 q 555 -113 555 -153 q 243 -35 555 -35 m 648 547 q 607 563 625 547 q 583 595 589 578 q 557 611 575 612 q 520 596 546 611 q 486 572 494 582 q 572 404 572 502 q 504 257 572 317 q 321 197 436 197 q 219 212 251 197 q 211 197 218 210 q 202 174 205 184 q 199 154 199 164 q 261 96 199 96 q 478 85 366 96 q 627 50 590 74 q 696 -77 696 3 q 566 -258 696 -185 q 282 -330 436 -330 q 69 -285 135 -330 q 16 -147 15 -248 q 55 -80 16 -127 q 136 -8 94 -33 q 79 31 96 4 q 61 94 61 58 q 97 157 61 114 q 171 233 134 201 q 93 309 122 260 q 64 411 64 359 q 158 572 64 511 q 322 616 226 617 q 439 600 408 616 q 526 656 473 631 q 621 682 578 682 q 684 660 658 682 q 710 615 710 637 q 648 547 709 547 z "},"":{"ha":1048,"x_min":45,"x_max":1022,"o":"m 728 1153 q 666 1030 722 1081 q 541 979 610 979 q 411 1029 465 979 q 351 1153 357 1079 l 390 1157 q 541 1082 406 1082 q 641 1101 597 1082 q 690 1157 684 1120 l 728 1153 m 566 914 q 770 890 661 914 q 909 865 879 865 q 940 637 925 710 l 879 629 q 767 792 848 729 q 546 856 686 856 q 335 753 414 856 q 254 454 254 647 q 273 312 254 380 q 329 181 292 243 q 434 82 367 119 q 590 45 501 45 q 685 57 647 45 q 757 103 722 69 l 757 310 q 732 360 757 349 q 643 376 708 371 q 636 403 636 383 q 643 428 636 422 q 850 425 774 425 q 1015 428 932 425 q 1022 403 1022 422 q 1015 376 1022 383 q 967 359 983 374 q 951 310 951 345 l 951 147 q 974 109 951 126 q 793 19 905 52 q 558 -14 681 -14 q 197 92 328 -14 q 84 241 123 151 q 45 427 45 330 q 197 785 45 656 q 566 914 348 914 z "},"":{"ha":724,"x_min":16,"x_max":710,"o":"m 187 882 q 229 800 189 827 q 338 772 269 772 q 486 882 481 772 l 530 868 q 461 720 521 770 q 338 669 401 669 q 202 726 256 669 q 142 868 149 782 l 187 882 m 403 400 q 310 564 403 564 q 250 532 269 564 q 231 424 231 500 q 328 250 231 250 q 382 280 361 250 q 403 400 403 310 m 243 -35 q 182 -26 203 -35 q 167 -134 166 -54 q 211 -231 167 -189 q 321 -272 254 -272 q 415 -267 372 -272 q 488 -245 458 -261 q 538 -190 520 -227 q 555 -113 555 -153 q 243 -35 555 -35 m 648 547 q 607 563 625 547 q 583 595 589 578 q 557 611 575 612 q 520 596 546 611 q 486 572 494 582 q 572 404 572 502 q 504 257 572 317 q 321 197 436 197 q 219 212 251 197 q 211 197 218 210 q 202 174 205 184 q 199 154 199 164 q 261 96 199 96 q 478 85 366 96 q 627 50 590 74 q 696 -77 696 3 q 566 -258 696 -185 q 282 -330 436 -330 q 69 -285 135 -330 q 16 -147 15 -248 q 55 -80 16 -127 q 136 -8 94 -33 q 79 31 96 4 q 61 94 61 58 q 97 157 61 114 q 171 233 134 201 q 93 309 122 260 q 64 411 64 359 q 158 572 64 511 q 322 616 226 617 q 439 600 408 616 q 526 656 473 631 q 621 682 578 682 q 684 660 658 682 q 710 615 710 637 q 648 547 709 547 z "},"":{"ha":1048,"x_min":45,"x_max":1022,"o":"m 496 1010 q 484 1023 496 1010 q 471 1071 471 1036 q 496 1131 471 1105 q 557 1157 522 1157 q 617 1131 591 1157 q 643 1071 643 1105 q 617 1010 643 1036 q 557 985 591 985 q 496 1010 522 985 m 566 914 q 770 890 661 914 q 909 865 879 865 q 940 637 925 710 l 879 629 q 767 792 848 729 q 546 856 686 856 q 335 753 414 856 q 254 454 254 647 q 273 312 254 380 q 329 181 292 243 q 434 82 367 119 q 590 45 501 45 q 685 57 647 45 q 757 103 722 69 l 757 310 q 732 360 757 349 q 643 376 708 371 q 636 403 636 383 q 643 428 636 422 q 850 425 774 425 q 1015 428 932 425 q 1022 403 1022 422 q 1015 376 1022 383 q 967 359 983 374 q 951 310 951 345 l 951 147 q 974 109 951 126 q 793 19 905 52 q 558 -14 681 -14 q 197 92 328 -14 q 84 241 123 151 q 45 427 45 330 q 197 785 45 656 q 566 914 348 914 z "},"":{"ha":724,"x_min":16,"x_max":710,"o":"m 228 828 q 254 888 228 863 q 325 914 279 914 q 390 886 365 914 q 415 822 415 857 q 387 764 415 791 q 317 736 359 736 q 252 764 277 736 q 228 828 228 792 m 403 400 q 310 564 403 564 q 250 532 269 564 q 231 424 231 500 q 328 250 231 250 q 382 280 361 250 q 403 400 403 310 m 243 -35 q 182 -26 203 -35 q 167 -134 166 -54 q 211 -231 167 -189 q 321 -272 254 -272 q 415 -267 372 -272 q 488 -245 458 -261 q 538 -190 520 -227 q 555 -113 555 -153 q 243 -35 555 -35 m 648 547 q 607 563 625 547 q 583 595 589 578 q 557 611 575 612 q 520 596 546 611 q 486 572 494 582 q 572 404 572 502 q 504 257 572 317 q 321 197 436 197 q 219 212 251 197 q 211 197 218 210 q 202 174 205 184 q 199 154 199 164 q 261 96 199 96 q 478 85 366 96 q 627 50 590 74 q 696 -77 696 3 q 566 -258 696 -185 q 282 -330 436 -330 q 69 -285 135 -330 q 16 -147 15 -248 q 55 -80 16 -127 q 136 -8 94 -33 q 79 31 96 4 q 61 94 61 58 q 97 157 61 114 q 171 233 134 201 q 93 309 122 260 q 64 411 64 359 q 158 572 64 511 q 322 616 226 617 q 439 600 408 616 q 526 656 473 631 q 621 682 578 682 q 684 660 658 682 q 710 615 710 637 q 648 547 709 547 z "},"":{"ha":1048,"x_min":45,"x_max":1022,"o":"m 515 -71 q 585 -95 555 -71 q 615 -179 615 -119 q 569 -277 615 -236 q 449 -330 522 -318 q 440 -292 431 -319 q 505 -259 480 -281 q 530 -218 530 -237 q 528 -204 530 -210 q 519 -195 525 -199 q 509 -191 513 -192 q 498 -187 505 -189 l 490 -186 q 444 -123 444 -176 q 468 -88 444 -105 q 515 -71 492 -71 m 566 914 q 770 890 661 914 q 909 865 879 865 q 940 637 925 710 l 879 629 q 767 792 848 729 q 546 856 686 856 q 335 753 414 856 q 254 454 254 647 q 273 312 254 380 q 329 181 292 243 q 434 82 367 119 q 590 45 501 45 q 685 57 647 45 q 757 103 722 69 l 757 310 q 732 360 757 349 q 643 376 708 371 q 636 403 636 383 q 643 428 636 422 q 850 425 774 425 q 1015 428 932 425 q 1022 403 1022 422 q 1015 376 1022 383 q 967 359 983 374 q 951 310 951 345 l 951 147 q 974 109 951 126 q 793 19 905 52 q 558 -14 681 -14 q 197 92 328 -14 q 84 241 123 151 q 45 427 45 330 q 197 785 45 656 q 566 914 348 914 z "},"":{"ha":724,"x_min":16,"x_max":710,"o":"m 322 705 q 252 730 282 705 q 222 814 222 754 q 269 912 222 871 q 389 965 315 953 q 397 926 407 954 q 332 894 357 916 q 307 852 307 872 q 310 839 307 844 q 319 830 313 833 q 328 825 325 827 q 340 822 332 823 l 347 821 q 393 758 393 810 q 370 723 393 740 q 322 705 346 705 m 403 400 q 310 564 403 564 q 250 532 269 564 q 231 424 231 500 q 328 250 231 250 q 382 280 361 250 q 403 400 403 310 m 243 -35 q 182 -26 203 -35 q 167 -134 166 -54 q 211 -231 167 -189 q 321 -272 254 -272 q 415 -267 372 -272 q 488 -245 458 -261 q 538 -190 520 -227 q 555 -113 555 -153 q 243 -35 555 -35 m 648 547 q 607 563 625 547 q 583 595 589 578 q 557 611 575 612 q 520 596 546 611 q 486 572 494 582 q 572 404 572 502 q 504 257 572 317 q 321 197 436 197 q 219 212 251 197 q 211 197 218 210 q 202 174 205 184 q 199 154 199 164 q 261 96 199 96 q 478 85 366 96 q 627 50 590 74 q 696 -77 696 3 q 566 -258 696 -185 q 282 -330 436 -330 q 69 -285 135 -330 q 16 -147 15 -248 q 55 -80 16 -127 q 136 -8 94 -33 q 79 31 96 4 q 61 94 61 58 q 97 157 61 114 q 171 233 134 201 q 93 309 122 260 q 64 411 64 359 q 158 572 64 511 q 322 616 226 617 q 439 600 408 616 q 526 656 473 631 q 621 682 578 682 q 684 660 658 682 q 710 615 710 637 q 648 547 709 547 z "},"":{"ha":1135,"x_min":33,"x_max":1103,"o":"m 732 1006 q 710 970 732 979 q 538 1047 591 1006 q 367 970 475 1001 q 347 1007 347 978 q 524 1152 436 1064 l 543 1158 q 732 1006 629 1072 m 783 726 q 777 793 783 768 q 753 831 771 819 q 719 846 736 843 q 668 851 703 850 q 659 876 659 858 q 668 899 659 893 q 882 896 779 896 q 1093 899 981 896 q 1103 876 1103 893 q 1093 851 1103 859 q 1042 846 1059 850 q 1007 831 1025 843 q 984 794 990 819 q 978 726 978 768 l 978 170 q 984 102 978 128 q 1007 65 990 77 q 1042 50 1025 53 q 1093 45 1059 46 q 1103 21 1103 39 q 1093 -3 1103 3 q 882 0 982 0 q 668 -3 779 0 q 659 21 659 4 q 668 45 659 37 q 719 50 703 46 q 753 65 736 53 q 777 102 771 77 q 783 170 783 127 l 783 443 l 353 443 l 353 170 q 359 102 353 128 q 383 65 366 77 q 417 50 400 53 q 468 45 433 46 q 478 21 477 38 q 468 -3 478 4 q 257 0 357 0 q 43 -3 154 0 q 33 21 33 4 q 43 45 33 39 q 94 50 77 46 q 129 65 111 53 q 152 102 146 77 q 158 170 158 127 l 158 726 q 152 793 158 768 q 129 831 146 819 q 95 846 111 843 q 43 851 78 850 q 33 876 33 858 q 43 899 33 893 q 257 896 154 896 q 468 899 357 896 q 478 876 477 893 q 468 851 478 859 q 417 846 433 850 q 383 831 400 843 q 359 794 366 819 q 353 726 353 768 l 353 510 l 783 510 l 783 726 z "},"":{"ha":859,"x_min":25,"x_max":847,"o":"m 559 970 q 705 783 607 893 l 671 757 q 522 872 578 812 q 375 757 471 819 l 340 783 q 488 970 448 905 l 559 970 m 733 178 q 753 70 733 93 q 840 45 774 47 q 847 21 847 39 q 840 -3 847 3 q 643 0 721 0 q 473 -3 590 0 q 467 21 467 3 q 473 45 467 39 q 536 72 519 47 q 553 178 553 96 l 553 410 q 449 514 553 514 q 319 460 404 514 l 319 176 q 335 71 319 94 q 399 45 351 47 q 406 21 406 39 q 399 -3 406 3 q 229 0 279 0 q 32 -3 149 0 q 25 21 25 3 q 32 45 25 39 q 119 70 98 47 q 139 176 139 93 l 139 785 q 125 869 139 854 q 45 889 111 884 q 40 933 34 909 q 301 970 212 940 q 323 951 323 970 q 319 810 319 900 l 319 516 q 549 616 479 616 q 733 395 733 616 l 733 178 z "},"":{"ha":1135,"x_min":25,"x_max":1103,"o":"m 783 685 q 706 685 746 685 q 634 686 667 686 q 577 686 602 686 q 538 686 551 686 q 353 686 457 686 l 353 510 l 783 510 l 783 685 m 353 745 q 436 745 395 745 q 506 745 477 745 q 550 745 534 745 q 783 745 649 745 q 774 802 781 781 q 750 833 767 823 q 717 847 733 844 q 668 851 701 850 q 659 876 659 858 q 668 899 659 893 q 882 896 779 896 q 1093 899 981 896 q 1103 876 1103 893 q 1093 851 1103 859 q 1054 848 1067 850 q 1024 841 1040 846 q 1000 824 1008 835 q 986 794 992 813 q 979 748 980 776 q 1016 749 1000 749 q 1040 750 1031 749 l 1028 681 q 978 682 1015 682 l 978 170 q 984 102 978 128 q 1007 65 990 77 q 1042 50 1025 53 q 1093 45 1059 46 q 1103 21 1103 39 q 1093 -3 1103 3 q 882 0 982 0 q 668 -3 779 0 q 659 21 659 4 q 668 45 659 37 q 719 50 703 46 q 753 65 736 53 q 777 102 771 77 q 783 170 783 127 l 783 443 l 353 443 l 353 170 q 359 102 353 128 q 383 65 366 77 q 417 50 400 53 q 468 45 433 46 q 478 21 477 38 q 468 -3 478 4 q 257 0 357 0 q 43 -3 154 0 q 33 21 33 4 q 43 45 33 39 q 94 50 77 46 q 129 65 111 53 q 152 102 146 77 q 158 170 158 127 l 158 684 q 74 682 109 683 q 25 681 39 682 l 37 750 q 158 747 59 749 q 149 803 157 782 q 125 834 142 824 q 92 847 108 844 q 43 851 75 850 q 33 876 33 858 q 43 899 33 893 q 257 896 154 896 q 468 899 357 896 q 478 876 477 893 q 468 851 478 859 q 439 849 450 850 q 415 846 429 848 q 394 839 401 843 q 378 827 386 834 q 365 808 370 819 q 357 781 361 797 q 353 745 354 766 z "},"":{"ha":859,"x_min":21,"x_max":847,"o":"m 733 178 q 753 70 733 93 q 840 45 774 47 q 847 21 847 39 q 840 -3 847 3 q 643 0 721 0 q 473 -3 590 0 q 467 21 467 3 q 473 45 467 39 q 536 72 519 47 q 553 178 553 96 l 553 410 q 449 514 553 514 q 319 460 404 514 l 319 176 q 335 71 319 94 q 399 45 351 47 q 406 21 406 39 q 399 -3 406 3 q 229 0 279 0 q 32 -3 149 0 q 25 21 25 3 q 32 45 25 39 q 119 70 98 47 q 139 176 139 93 l 139 727 q 21 722 70 726 l 33 791 q 139 787 79 788 q 137 842 139 825 q 123 870 136 859 q 97 883 111 881 q 45 889 82 886 q 40 933 34 909 q 301 970 212 940 q 323 951 323 970 q 319 810 319 900 l 319 787 q 447 791 395 788 l 435 722 q 379 725 408 724 q 319 727 351 726 l 319 516 q 549 616 479 616 q 733 395 733 616 l 733 178 z "},"":{"ha":509,"x_min":33,"x_max":478,"o":"m 358 1059 q 427 1118 403 1059 q 454 1111 442 1118 q 465 1090 465 1103 q 412 996 447 1031 q 339 961 378 961 q 249 990 288 961 q 168 1014 213 1014 q 139 1011 150 1014 q 118 996 129 1008 q 100 958 107 983 q 64 983 64 958 q 113 1076 82 1039 q 179 1112 144 1112 q 282 1078 239 1112 q 358 1059 307 1059 m 158 726 q 152 793 158 768 q 129 831 146 819 q 95 846 111 843 q 43 851 78 850 q 33 876 33 858 q 43 899 33 893 q 257 896 154 896 q 468 899 357 896 q 478 876 477 893 q 468 851 478 859 q 417 846 433 850 q 383 831 400 843 q 359 794 366 819 q 353 726 353 768 l 353 170 q 359 102 353 128 q 383 65 366 77 q 417 50 400 53 q 468 45 433 46 q 478 21 477 38 q 468 -3 478 4 q 257 0 357 0 q 43 -3 154 0 q 33 21 33 4 q 43 45 33 39 q 94 50 77 46 q 129 65 111 53 q 152 102 146 77 q 158 170 158 127 l 158 726 z "},"":{"ha":447,"x_min":23,"x_max":428,"o":"m 288 818 q 349 878 328 818 q 384 856 378 878 q 385 850 385 852 q 337 755 369 790 q 271 721 306 721 q 190 750 224 721 q 117 774 157 774 q 92 771 101 774 q 72 756 82 768 q 56 718 62 743 q 33 724 42 718 q 23 743 23 730 q 67 836 39 799 q 127 872 96 872 q 220 838 180 872 q 288 818 242 818 m 322 170 q 339 67 322 86 q 422 45 355 49 q 428 21 428 39 q 422 -3 428 3 q 232 0 303 0 q 41 -3 158 0 q 36 21 36 3 q 41 45 36 39 q 125 68 108 50 q 142 170 142 86 l 142 436 q 126 511 142 494 q 52 533 110 528 q 49 578 43 559 q 296 616 270 607 q 328 593 328 616 q 328 588 328 591 q 327 576 328 585 q 326 557 326 567 q 324 533 325 547 q 323 506 323 519 q 322 476 323 492 q 322 446 322 460 l 322 170 z "},"":{"ha":509,"x_min":33,"x_max":478,"o":"m 435 1048 l 54 1048 q 33 1074 33 1048 q 44 1103 33 1087 q 68 1118 56 1118 l 452 1118 q 471 1095 471 1118 q 459 1064 471 1079 q 435 1048 448 1048 m 158 726 q 152 793 158 768 q 129 831 146 819 q 95 846 111 843 q 43 851 78 850 q 33 876 33 858 q 43 899 33 893 q 257 896 154 896 q 468 899 357 896 q 478 876 477 893 q 468 851 478 859 q 417 846 433 850 q 383 831 400 843 q 359 794 366 819 q 353 726 353 768 l 353 170 q 359 102 353 128 q 383 65 366 77 q 417 50 400 53 q 468 45 433 46 q 478 21 477 38 q 468 -3 478 4 q 257 0 357 0 q 43 -3 154 0 q 33 21 33 4 q 43 45 33 39 q 94 50 77 46 q 129 65 111 53 q 152 102 146 77 q 158 170 158 127 l 158 726 z "},"":{"ha":447,"x_min":20,"x_max":428,"o":"m 381 754 l 39 754 q 20 779 20 754 q 30 808 20 793 q 51 823 39 823 l 396 823 q 413 800 414 823 q 409 780 413 791 q 397 762 405 770 q 381 754 389 754 m 322 170 q 339 67 322 86 q 422 45 355 49 q 428 21 428 39 q 422 -3 428 3 q 232 0 303 0 q 41 -3 158 0 q 36 21 36 3 q 41 45 36 39 q 125 68 108 50 q 142 170 142 86 l 142 436 q 126 511 142 494 q 52 533 110 528 q 49 578 43 559 q 296 616 270 607 q 328 593 328 616 q 328 588 328 591 q 327 576 328 585 q 326 557 326 567 q 324 533 325 547 q 323 506 323 519 q 322 476 323 492 q 322 446 322 460 l 322 170 z "},"":{"ha":509,"x_min":33,"x_max":478,"o":"m 441 1153 q 380 1030 436 1081 q 254 979 323 979 q 125 1029 179 979 q 65 1153 71 1079 l 104 1157 q 254 1082 120 1082 q 354 1101 311 1082 q 404 1157 397 1120 l 441 1153 m 158 726 q 152 793 158 768 q 129 831 146 819 q 95 846 111 843 q 43 851 78 850 q 33 876 33 858 q 43 899 33 893 q 257 896 154 896 q 468 899 357 896 q 478 876 477 893 q 468 851 478 859 q 417 846 433 850 q 383 831 400 843 q 359 794 366 819 q 353 726 353 768 l 353 170 q 359 102 353 128 q 383 65 366 77 q 417 50 400 53 q 468 45 433 46 q 478 21 477 38 q 468 -3 478 4 q 257 0 357 0 q 43 -3 154 0 q 33 21 33 4 q 43 45 33 39 q 94 50 77 46 q 129 65 111 53 q 152 102 146 77 q 158 170 158 127 l 158 726 z "},"":{"ha":447,"x_min":34,"x_max":428,"o":"m 75 926 q 113 844 77 871 q 210 817 149 817 q 302 841 263 817 q 344 926 341 866 l 384 913 q 321 764 375 814 q 210 714 268 714 q 121 740 160 714 q 60 811 83 766 q 34 913 38 856 l 75 926 m 322 170 q 339 67 322 86 q 422 45 355 49 q 428 21 428 39 q 422 -3 428 3 q 232 0 303 0 q 41 -3 158 0 q 36 21 36 3 q 41 45 36 39 q 125 68 108 50 q 142 170 142 86 l 142 436 q 126 511 142 494 q 52 533 110 528 q 49 578 43 559 q 296 616 270 607 q 328 593 328 616 q 328 588 328 591 q 327 576 328 585 q 326 557 326 567 q 324 533 325 547 q 323 506 323 519 q 322 476 323 492 q 322 446 322 460 l 322 170 z "},"":{"ha":509,"x_min":33,"x_max":478,"o":"m 385 -245 q 233 -322 329 -322 q 164 -300 199 -322 q 110 -189 110 -264 q 151 -87 110 -140 q 248 0 191 -33 q 43 -3 150 0 q 33 21 33 4 q 43 45 33 39 q 94 50 77 46 q 129 65 111 53 q 152 102 146 77 q 158 170 158 127 l 158 726 q 152 793 158 768 q 129 831 146 819 q 95 846 111 843 q 43 851 78 850 q 33 876 33 858 q 43 899 33 893 q 257 896 154 896 q 468 899 357 896 q 478 876 477 893 q 468 851 478 859 q 417 846 433 850 q 383 831 400 843 q 359 794 366 819 q 353 726 353 768 l 353 170 q 359 102 353 128 q 383 65 366 77 q 417 50 400 53 q 468 45 433 46 q 478 21 477 38 q 468 -3 478 4 q 354 -1 412 -1 q 272 -64 306 -12 q 237 -180 237 -117 q 286 -239 237 -239 q 364 -214 339 -239 l 385 -245 z "},"":{"ha":447,"x_min":36,"x_max":428,"o":"m 385 -245 q 233 -322 329 -322 q 164 -300 199 -322 q 110 -189 110 -264 q 151 -87 110 -140 q 248 0 191 -33 l 232 0 q 41 -3 158 0 q 36 21 36 3 q 41 45 36 39 q 125 68 108 50 q 142 170 142 86 l 142 436 q 126 511 142 494 q 52 533 110 528 q 49 578 43 559 q 296 616 270 607 q 328 593 328 616 q 328 588 328 591 q 327 576 328 585 q 326 557 326 567 q 324 533 325 547 q 323 506 323 519 q 322 476 323 492 q 322 446 322 460 l 322 170 q 339 67 322 86 q 422 45 355 49 q 428 21 428 39 q 422 -3 428 3 q 352 -1 374 -1 q 271 -65 304 -13 q 237 -180 237 -118 q 286 -239 237 -239 q 364 -214 339 -239 l 385 -245 m 135 828 q 160 888 135 863 q 232 914 186 914 q 297 886 272 914 q 322 822 322 857 q 294 764 322 791 q 224 736 267 736 q 159 764 184 736 q 135 828 135 792 z "},"":{"ha":509,"x_min":33,"x_max":478,"o":"m 194 1010 q 181 1023 194 1010 q 168 1071 168 1036 q 194 1131 168 1105 q 254 1157 220 1157 q 315 1131 289 1157 q 340 1071 340 1105 q 315 1010 340 1036 q 254 985 289 985 q 194 1010 220 985 m 158 726 q 152 793 158 768 q 129 831 146 819 q 95 846 111 843 q 43 851 78 850 q 33 876 33 858 q 43 899 33 893 q 257 896 154 896 q 468 899 357 896 q 478 876 477 893 q 468 851 478 859 q 417 846 433 850 q 383 831 400 843 q 359 794 366 819 q 353 726 353 768 l 353 170 q 359 102 353 128 q 383 65 366 77 q 417 50 400 53 q 468 45 433 46 q 478 21 477 38 q 468 -3 478 4 q 257 0 357 0 q 43 -3 154 0 q 33 21 33 4 q 43 45 33 39 q 94 50 77 46 q 129 65 111 53 q 152 102 146 77 q 158 170 158 127 l 158 726 z "},"":{"ha":447,"x_min":36,"x_max":428,"o":"m 322 170 q 339 67 322 86 q 422 45 355 49 q 428 21 428 39 q 422 -3 428 3 q 232 0 303 0 q 41 -3 158 0 q 36 21 36 3 q 41 45 36 39 q 125 68 108 50 q 142 170 142 86 l 142 436 q 126 511 142 494 q 52 533 110 528 q 49 578 43 559 q 296 616 270 607 q 328 593 328 616 q 328 588 328 591 q 327 576 328 585 q 326 557 326 567 q 324 533 325 547 q 323 506 323 519 q 322 476 323 492 q 322 446 322 460 l 322 170 z "},"":{"ha":1027,"x_min":33,"x_max":1014,"o":"m 900 725 l 900 143 q 887 18 900 73 q 851 -75 875 -37 q 808 -133 827 -113 q 758 -179 789 -154 q 549 -260 664 -260 q 461 -232 510 -260 q 412 -161 412 -204 q 441 -109 412 -134 q 493 -83 471 -83 q 527 -90 513 -83 q 547 -105 542 -97 q 561 -126 553 -113 q 574 -146 570 -140 q 637 -178 599 -178 q 674 -169 661 -178 q 694 -126 686 -160 q 703 -40 701 -92 q 705 113 705 12 l 705 725 q 682 828 705 808 q 571 851 659 848 q 564 875 564 858 q 571 899 564 892 q 802 896 710 896 q 1007 899 871 896 q 1014 875 1014 892 q 1007 851 1014 859 q 920 828 941 848 q 900 725 900 807 m 158 726 q 152 793 158 768 q 129 831 146 819 q 95 846 111 843 q 43 851 78 850 q 33 876 33 858 q 43 899 33 893 q 257 896 154 896 q 468 899 357 896 q 478 876 477 893 q 468 851 478 859 q 417 846 433 850 q 383 831 400 843 q 359 794 366 819 q 353 726 353 768 l 353 170 q 359 102 353 128 q 383 65 366 77 q 417 50 400 53 q 468 45 433 46 q 478 21 477 38 q 468 -3 478 4 q 257 0 357 0 q 43 -3 154 0 q 33 21 33 4 q 43 45 33 39 q 94 50 77 46 q 129 65 111 53 q 152 102 146 77 q 158 170 158 127 l 158 726 z "},"":{"ha":890,"x_min":36,"x_max":785,"o":"m 599 436 q 583 511 599 494 q 509 533 567 528 q 505 578 500 559 q 753 616 726 607 q 785 593 785 616 q 779 446 779 515 l 779 153 q 751 -115 779 -29 q 667 -244 722 -200 q 575 -302 621 -283 q 456 -322 529 -322 q 377 -296 417 -322 q 336 -229 336 -271 q 361 -174 336 -201 q 406 -146 386 -146 q 428 -149 416 -146 q 447 -155 439 -151 q 463 -166 454 -158 q 476 -178 472 -174 q 490 -192 481 -182 q 501 -203 500 -201 q 543 -228 526 -228 q 590 -197 572 -228 q 608 -127 608 -165 q 604 -6 608 -80 q 599 106 599 68 l 599 436 m 589 828 q 614 888 589 863 q 686 914 640 914 q 751 886 726 914 q 777 822 777 857 q 749 764 777 791 q 677 736 721 736 q 613 764 637 736 q 589 828 589 792 m 322 170 q 339 67 322 86 q 422 45 355 49 q 428 21 428 39 q 422 -3 428 3 q 232 0 303 0 q 41 -3 158 0 q 36 21 36 3 q 41 45 36 39 q 125 68 108 50 q 142 170 142 86 l 142 436 q 126 511 142 494 q 52 533 110 528 q 49 578 43 559 q 296 616 270 607 q 328 593 328 616 q 328 588 328 591 q 327 576 328 585 q 326 557 326 567 q 324 533 325 547 q 323 506 323 519 q 322 476 323 492 q 322 446 322 460 l 322 170 m 135 828 q 160 888 135 863 q 232 914 186 914 q 297 886 272 914 q 322 822 322 857 q 294 764 322 791 q 224 736 267 736 q 159 764 184 736 q 135 828 135 792 z "},"":{"ha":517,"x_min":-97,"x_max":503,"o":"m 482 1006 q 460 970 482 979 q 288 1047 340 1006 q 117 970 225 1001 q 97 1007 97 978 q 273 1152 186 1064 l 293 1158 q 482 1006 379 1072 m 390 725 l 390 143 q 378 18 390 73 q 341 -75 366 -37 q 298 -133 317 -113 q 249 -179 279 -154 q 39 -260 155 -260 q -48 -232 0 -260 q -97 -161 -97 -204 q -68 -109 -97 -134 q -17 -83 -39 -83 q 17 -90 3 -83 q 37 -105 32 -97 q 51 -126 43 -113 q 64 -146 60 -140 q 127 -178 89 -178 q 164 -169 151 -178 q 184 -126 176 -160 q 194 -40 192 -92 q 196 113 196 12 l 196 725 q 172 828 196 808 q 61 851 149 848 q 56 875 56 858 q 61 899 56 892 q 292 896 200 896 q 497 899 361 896 q 503 875 503 892 q 497 851 503 859 q 410 828 431 848 q 390 725 390 807 z "},"":{"ha":433,"x_min":-121,"x_max":408,"o":"m 262 921 q 408 734 310 844 l 374 708 q 225 823 281 764 q 78 708 174 770 l 43 734 q 191 921 150 857 l 262 921 m 142 436 q 126 511 142 494 q 52 533 110 528 q 49 578 43 559 q 296 616 270 607 q 328 593 328 616 q 322 446 322 515 l 322 153 q 294 -115 322 -29 q 210 -244 265 -200 q 118 -302 163 -283 q -1 -322 72 -322 q -80 -296 -40 -322 q -121 -229 -121 -271 q -96 -174 -121 -201 q -52 -146 -71 -146 q -30 -149 -41 -146 q -11 -155 -18 -151 q 6 -166 -3 -158 q 20 -178 16 -174 q 33 -192 24 -182 q 45 -203 43 -201 q 86 -228 70 -228 q 133 -197 115 -228 q 151 -127 151 -165 q 146 -6 151 -80 q 142 106 142 68 l 142 436 z "},"":{"ha":980,"x_min":33,"x_max":1008,"o":"m 515 -71 q 585 -95 555 -71 q 615 -179 615 -119 q 569 -277 615 -236 q 449 -330 522 -318 q 440 -292 431 -319 q 505 -259 480 -281 q 530 -218 530 -237 q 528 -204 530 -210 q 519 -195 525 -199 q 509 -191 513 -192 q 498 -187 505 -189 l 490 -186 q 444 -123 444 -176 q 468 -88 444 -105 q 515 -71 492 -71 m 158 726 q 152 793 158 768 q 129 831 146 819 q 95 846 111 843 q 43 851 78 850 q 33 876 33 858 q 43 899 33 893 q 257 896 154 896 q 468 899 357 896 q 478 876 477 893 q 468 851 478 859 q 417 846 433 850 q 383 831 400 843 q 359 794 366 819 q 353 726 353 768 l 353 490 q 397 505 374 493 q 444 537 419 517 q 514 597 469 557 q 663 729 620 685 q 656 851 771 840 q 650 875 650 858 q 656 899 650 892 q 827 896 787 896 q 958 899 828 896 q 964 875 964 892 q 958 851 964 859 q 903 840 928 847 q 851 812 879 832 q 811 784 823 793 q 763 742 800 776 q 717 700 726 708 l 566 566 q 555 555 559 560 q 550 545 551 550 q 548 537 549 541 q 548 530 547 534 q 549 525 549 526 q 590 463 549 513 l 895 103 q 1003 45 936 53 q 1008 21 1008 39 q 1003 -3 1008 3 q 848 0 872 0 q 696 -3 751 0 q 689 5 690 -3 q 639 103 685 44 l 429 376 q 393 415 408 404 q 353 429 378 426 l 353 170 q 359 102 353 128 q 383 65 366 77 q 417 50 400 53 q 468 45 433 46 q 478 21 477 38 q 468 -3 478 4 q 257 0 357 0 q 43 -3 154 0 q 33 21 33 4 q 43 45 33 39 q 94 50 77 46 q 129 65 111 53 q 152 102 146 77 q 158 170 158 127 l 158 726 z "},"":{"ha":851,"x_min":25,"x_max":839,"o":"m 419 -71 q 489 -95 459 -71 q 519 -179 519 -119 q 473 -277 519 -236 q 353 -330 427 -318 q 345 -292 334 -319 q 410 -259 385 -281 q 435 -218 435 -237 q 432 -204 435 -210 q 423 -195 429 -199 q 413 -191 416 -192 q 402 -187 410 -189 l 395 -186 q 349 -123 349 -176 q 372 -88 349 -105 q 419 -71 395 -71 m 139 176 l 139 785 q 125 869 139 854 q 45 889 111 884 q 40 933 34 909 q 301 970 212 940 q 323 951 323 970 q 319 810 319 900 l 319 346 q 389 359 349 346 q 443 385 429 372 q 472 412 457 397 q 502 446 486 427 q 532 485 517 464 q 546 540 559 526 q 475 558 533 554 q 469 582 469 564 q 475 606 469 600 q 643 603 578 603 q 798 606 736 603 q 803 582 803 600 q 798 558 803 564 q 751 551 772 555 q 710 535 730 546 q 682 519 691 524 q 653 496 672 515 q 632 475 635 477 q 609 450 630 473 l 541 374 q 545 346 532 364 l 705 109 q 719 91 712 99 q 733 76 725 82 q 745 65 741 69 q 758 58 750 61 q 771 53 766 54 q 786 50 775 52 q 799 47 796 47 q 815 46 802 47 q 832 45 828 45 q 839 21 839 39 q 832 -3 839 3 q 646 0 729 0 l 534 -3 l 532 0 l 532 36 q 510 109 532 61 q 415 264 486 159 q 319 290 397 290 l 319 176 q 334 72 319 96 q 385 45 349 49 q 392 21 391 39 q 385 -3 392 3 q 229 0 318 0 q 32 -3 149 0 q 25 21 25 3 q 32 45 25 39 q 119 70 98 47 q 139 176 139 93 z "},"":{"ha":837,"x_min":36,"x_max":821,"o":"m 322 170 q 339 67 322 86 q 422 45 355 49 q 428 21 428 39 q 422 -3 428 3 q 232 0 303 0 q 41 -3 158 0 q 36 21 36 3 q 41 45 36 39 q 125 68 108 50 q 142 170 142 86 l 142 436 q 126 511 142 494 q 52 533 110 528 q 49 578 43 559 q 296 616 270 607 q 328 593 328 616 q 328 588 328 591 q 327 576 328 585 q 326 557 326 567 q 324 533 325 547 q 323 506 323 519 q 322 476 323 492 q 322 446 322 460 l 322 346 q 382 359 351 347 q 429 385 414 372 q 470 426 449 402 q 518 485 492 450 q 531 535 539 517 q 503 555 522 554 l 473 558 q 456 572 455 559 l 456 603 l 463 606 q 632 603 583 603 l 791 606 l 796 603 l 796 572 q 794 561 796 564 q 782 558 791 558 l 741 555 q 690 534 722 554 q 631 488 657 514 l 526 374 q 530 346 518 364 l 692 109 q 770 49 728 53 l 810 45 q 821 36 821 43 l 821 0 l 817 -3 q 665 0 720 0 l 521 -3 l 518 0 l 518 36 q 496 109 518 61 q 401 264 472 159 q 322 290 383 290 l 322 170 z "},"":{"ha":801,"x_min":33,"x_max":770,"o":"m 350 1157 q 440 1080 410 1129 l 436 1064 l 236 983 q 187 974 211 974 q 169 980 178 974 q 160 994 160 986 q 174 1023 160 1011 q 350 1157 236 1078 m 485 58 q 636 105 587 58 q 710 236 686 151 q 770 229 745 241 q 733 -3 756 109 q 567 0 607 0 l 256 0 q 43 -3 203 0 q 33 21 33 4 q 43 45 33 39 q 94 50 77 46 q 129 65 111 53 q 152 102 146 77 q 158 170 158 127 l 158 726 q 152 793 158 768 q 129 831 146 819 q 95 846 111 843 q 43 851 78 850 q 33 876 33 858 q 43 899 33 893 q 257 896 201 896 q 308 897 282 896 q 379 898 334 897 q 468 899 424 899 q 478 876 477 893 q 468 851 478 859 q 417 846 433 850 q 383 831 400 843 q 359 794 366 819 q 353 726 353 768 l 353 168 q 401 58 353 58 l 485 58 z "},"":{"ha":451,"x_min":25,"x_max":433,"o":"m 267 1198 q 357 1122 326 1171 l 353 1105 l 153 1025 q 104 1015 127 1015 q 86 1022 95 1015 q 77 1036 77 1028 q 90 1065 77 1053 q 267 1198 153 1119 m 139 176 l 139 785 q 125 869 139 854 q 45 889 111 884 q 40 933 34 909 q 301 970 212 940 q 323 951 323 970 q 319 810 319 900 l 319 176 q 339 70 319 93 q 427 45 359 47 q 433 21 433 39 q 427 -3 433 3 q 229 0 307 0 q 32 -3 149 0 q 25 21 25 3 q 32 45 25 39 q 119 70 98 47 q 139 176 139 93 z "},"":{"ha":801,"x_min":33,"x_max":770,"o":"m 366 -71 q 435 -95 406 -71 q 465 -179 465 -119 q 419 -277 465 -236 q 298 -330 372 -318 q 290 -292 280 -319 q 355 -259 330 -281 q 380 -218 380 -237 q 378 -204 380 -210 q 369 -195 375 -199 q 359 -191 363 -192 q 348 -187 355 -189 l 340 -186 q 294 -123 294 -176 q 318 -88 294 -105 q 366 -71 342 -71 m 485 58 q 636 105 587 58 q 710 236 686 151 q 770 229 745 241 q 733 -3 756 109 q 567 0 607 0 l 256 0 q 43 -3 203 0 q 33 21 33 4 q 43 45 33 39 q 94 50 77 46 q 129 65 111 53 q 152 102 146 77 q 158 170 158 127 l 158 726 q 152 793 158 768 q 129 831 146 819 q 95 846 111 843 q 43 851 78 850 q 33 876 33 858 q 43 899 33 893 q 257 896 201 896 q 308 897 282 896 q 379 898 334 897 q 468 899 424 899 q 478 876 477 893 q 468 851 478 859 q 417 846 433 850 q 383 831 400 843 q 359 794 366 819 q 353 726 353 768 l 353 168 q 401 58 353 58 l 485 58 z "},"":{"ha":451,"x_min":25,"x_max":433,"o":"m 139 176 l 139 785 q 125 869 139 854 q 45 889 111 884 q 40 933 34 909 q 301 970 212 940 q 323 951 323 970 q 319 810 319 900 l 319 176 q 339 70 319 93 q 427 45 359 47 q 433 21 433 39 q 427 -3 433 3 q 229 0 307 0 q 32 -3 149 0 q 25 21 25 3 q 32 45 25 39 q 119 70 98 47 q 139 176 139 93 m 215 -71 q 285 -95 255 -71 q 315 -179 315 -119 q 269 -277 315 -236 q 149 -330 222 -318 q 140 -292 130 -319 q 205 -259 180 -281 q 231 -218 231 -237 q 228 -204 231 -210 q 219 -195 225 -199 q 209 -191 212 -192 q 198 -187 205 -189 l 191 -186 q 144 -123 144 -176 q 168 -88 144 -105 q 215 -71 191 -71 z "},"":{"ha":801,"x_min":33,"x_max":770,"o":"m 597 970 q 658 939 635 970 q 681 868 681 908 q 675 830 681 851 q 655 784 669 810 q 609 741 640 758 q 533 721 578 724 l 528 745 q 589 783 568 753 q 611 840 611 812 q 596 865 611 865 q 532 922 532 865 q 597 970 532 970 m 485 58 q 636 105 587 58 q 710 236 686 151 q 770 229 745 241 q 733 -3 756 109 q 567 0 607 0 l 256 0 q 43 -3 203 0 q 33 21 33 4 q 43 45 33 39 q 94 50 77 46 q 129 65 111 53 q 152 102 146 77 q 158 170 158 127 l 158 726 q 152 793 158 768 q 129 831 146 819 q 95 846 111 843 q 43 851 78 850 q 33 876 33 858 q 43 899 33 893 q 257 896 201 896 q 308 897 282 896 q 379 898 334 897 q 468 899 424 899 q 478 876 477 893 q 468 851 478 859 q 417 846 433 850 q 383 831 400 843 q 359 794 366 819 q 353 726 353 768 l 353 168 q 401 58 353 58 l 485 58 z "},"":{"ha":511,"x_min":25,"x_max":550,"o":"m 467 970 q 527 939 504 970 q 550 868 550 908 q 545 830 550 851 q 525 784 539 810 q 478 741 510 758 q 403 721 447 724 l 397 745 q 459 783 437 753 q 481 840 481 812 q 465 865 481 865 q 401 922 401 865 q 467 970 401 970 m 139 176 l 139 785 q 125 869 139 854 q 45 889 111 884 q 40 933 34 909 q 301 970 212 940 q 323 951 323 970 q 319 810 319 900 l 319 176 q 339 70 319 93 q 427 45 359 47 q 433 21 433 39 q 427 -3 433 3 q 229 0 307 0 q 32 -3 149 0 q 25 21 25 3 q 32 45 25 39 q 119 70 98 47 q 139 176 139 93 z "},"":{"ha":801,"x_min":33,"x_max":770,"o":"m 515 534 q 541 595 515 569 q 612 621 567 621 q 677 592 652 621 q 703 529 703 564 q 675 471 703 498 q 604 443 647 443 q 540 471 564 443 q 515 534 515 498 m 485 58 q 636 105 587 58 q 710 236 686 151 q 770 229 745 241 q 733 -3 756 109 q 567 0 607 0 l 256 0 q 43 -3 203 0 q 33 21 33 4 q 43 45 33 39 q 94 50 77 46 q 129 65 111 53 q 152 102 146 77 q 158 170 158 127 l 158 726 q 152 793 158 768 q 129 831 146 819 q 95 846 111 843 q 43 851 78 850 q 33 876 33 858 q 43 899 33 893 q 257 896 201 896 q 308 897 282 896 q 379 898 334 897 q 468 899 424 899 q 478 876 477 893 q 468 851 478 859 q 417 846 433 850 q 383 831 400 843 q 359 794 366 819 q 353 726 353 768 l 353 168 q 401 58 353 58 l 485 58 z "},"":{"ha":554,"x_min":25,"x_max":551,"o":"m 364 536 q 390 597 364 571 q 461 623 415 623 q 526 594 501 623 q 551 530 551 566 q 524 472 551 500 q 453 444 496 444 q 389 472 413 444 q 364 536 364 500 m 139 176 l 139 785 q 125 869 139 854 q 45 889 111 884 q 40 933 34 909 q 301 970 212 940 q 323 951 323 970 q 319 810 319 900 l 319 176 q 339 70 319 93 q 427 45 359 47 q 433 21 433 39 q 427 -3 433 3 q 229 0 307 0 q 32 -3 149 0 q 25 21 25 3 q 32 45 25 39 q 119 70 98 47 q 139 176 139 93 z "},"":{"ha":801,"x_min":33,"x_max":770,"o":"m 485 58 q 636 105 587 58 q 710 236 686 151 q 770 229 745 241 q 733 -3 756 109 q 567 0 607 0 l 256 0 q 43 -3 203 0 q 33 21 33 4 q 43 45 33 39 q 94 50 77 46 q 129 65 111 53 q 152 102 146 77 q 158 170 158 127 l 158 379 q 59 315 97 341 l 35 381 q 158 450 120 428 l 158 726 q 152 793 158 768 q 129 831 146 819 q 95 846 111 843 q 43 851 78 850 q 33 876 33 858 q 43 899 33 893 q 257 896 201 896 q 308 897 282 896 q 379 898 334 897 q 468 899 424 899 q 478 876 477 893 q 468 851 478 859 q 417 846 433 850 q 383 831 400 843 q 359 794 366 819 q 353 726 353 768 l 353 569 q 380 587 367 578 q 406 604 393 595 q 431 621 418 612 q 453 636 443 629 l 478 570 q 449 554 465 562 q 418 536 434 545 q 386 517 402 527 q 353 498 370 507 l 353 168 q 401 58 353 58 l 485 58 z "},"":{"ha":451,"x_min":21,"x_max":436,"o":"m 319 522 l 319 176 q 339 70 319 93 q 427 45 359 47 q 433 21 433 39 q 427 -3 433 3 q 229 0 307 0 q 32 -3 149 0 q 25 21 25 3 q 32 45 25 39 q 119 70 98 47 q 139 176 139 93 l 139 410 q 45 347 96 381 l 21 413 q 139 481 76 443 l 139 785 q 125 869 139 854 q 45 889 111 884 q 40 933 34 909 q 301 970 212 940 q 323 951 323 970 q 319 810 319 900 l 319 593 q 412 655 367 624 l 436 589 q 319 522 383 560 z "},"":{"ha":1027,"x_min":28,"x_max":997,"o":"m 572 1157 q 663 1080 632 1129 l 659 1064 l 458 983 q 410 974 433 974 q 391 980 400 974 q 382 994 382 986 q 396 1023 382 1011 q 572 1157 458 1078 m 876 0 q 789 -17 842 -17 q 733 45 760 9 l 268 597 q 235 625 245 625 q 224 597 224 625 l 224 184 q 236 93 224 121 q 268 58 248 65 q 345 45 289 50 q 350 21 350 39 q 345 -3 350 3 q 189 0 205 0 q 33 -3 170 0 q 28 21 28 3 q 33 45 28 39 q 110 58 89 50 q 142 94 131 66 q 154 184 154 122 l 154 764 q 117 821 147 794 q 45 851 86 848 q 39 875 39 858 q 45 899 39 892 l 271 896 l 395 750 l 763 316 q 788 297 779 298 q 800 321 798 296 l 800 711 q 788 803 800 775 q 755 838 777 831 q 679 851 734 846 q 672 875 672 858 q 679 899 672 892 q 840 896 818 896 q 990 899 854 896 q 997 875 997 892 q 990 851 997 859 q 914 838 935 846 q 881 802 893 829 q 869 711 869 774 l 869 142 l 876 0 z "},"":{"ha":855,"x_min":31,"x_max":844,"o":"m 453 936 q 475 939 461 939 q 554 905 528 939 l 568 873 l 401 724 q 349 701 375 701 q 333 708 340 701 q 326 721 326 714 q 338 754 326 738 l 453 936 m 317 170 q 329 68 317 87 q 389 45 342 49 q 394 21 394 39 q 389 -3 395 3 q 227 0 269 0 q 36 -3 153 0 q 31 21 31 3 q 36 45 31 39 q 119 68 102 50 q 136 170 136 86 l 136 429 q 120 504 136 488 q 46 526 104 521 q 43 571 38 553 q 273 616 161 587 q 306 593 304 616 q 315 503 312 551 q 546 616 480 617 q 730 395 730 616 l 730 178 q 751 70 730 93 q 838 45 771 47 q 844 21 844 39 q 838 -3 844 3 q 640 0 718 0 q 471 -3 587 0 q 464 21 464 3 q 471 45 464 39 q 533 72 517 47 q 550 178 550 96 l 550 410 q 453 514 550 514 q 317 449 412 514 l 317 446 l 317 170 z "},"":{"ha":1027,"x_min":28,"x_max":997,"o":"m 492 -71 q 562 -95 532 -71 q 591 -179 591 -119 q 545 -277 591 -236 q 425 -330 498 -318 q 416 -292 407 -319 q 482 -259 456 -281 q 507 -218 507 -237 q 504 -204 507 -210 q 495 -195 501 -199 q 486 -191 489 -192 q 474 -187 482 -189 l 467 -186 q 421 -123 420 -176 q 445 -88 421 -105 q 492 -71 468 -71 m 876 0 q 789 -17 842 -17 q 733 45 760 9 l 268 597 q 235 625 245 625 q 224 597 224 625 l 224 184 q 236 93 224 121 q 268 58 248 65 q 345 45 289 50 q 350 21 350 39 q 345 -3 350 3 q 189 0 205 0 q 33 -3 170 0 q 28 21 28 3 q 33 45 28 39 q 110 58 89 50 q 142 94 131 66 q 154 184 154 122 l 154 764 q 117 821 147 794 q 45 851 86 848 q 39 875 39 858 q 45 899 39 892 l 271 896 l 395 750 l 763 316 q 788 297 779 298 q 800 321 798 296 l 800 711 q 788 803 800 775 q 755 838 777 831 q 679 851 734 846 q 672 875 672 858 q 679 899 672 892 q 840 896 818 896 q 990 899 854 896 q 997 875 997 892 q 990 851 997 859 q 914 838 935 846 q 881 802 893 829 q 869 711 869 774 l 869 142 l 876 0 z "},"":{"ha":855,"x_min":31,"x_max":844,"o":"m 399 -71 q 469 -95 439 -71 q 498 -179 498 -119 q 452 -277 498 -236 q 332 -330 406 -318 q 323 -292 313 -319 q 389 -259 363 -281 q 414 -218 414 -237 q 411 -204 414 -210 q 402 -195 408 -199 q 392 -191 396 -192 q 381 -187 389 -189 l 374 -186 q 328 -123 328 -176 q 351 -88 328 -105 q 399 -71 375 -71 m 317 170 q 329 68 317 87 q 389 45 342 49 q 394 21 394 39 q 389 -3 395 3 q 227 0 269 0 q 36 -3 153 0 q 31 21 31 3 q 36 45 31 39 q 119 68 102 50 q 136 170 136 86 l 136 429 q 120 504 136 488 q 46 526 104 521 q 43 571 38 553 q 273 616 161 587 q 306 593 304 616 q 315 503 312 551 q 546 616 480 617 q 730 395 730 616 l 730 178 q 751 70 730 93 q 838 45 771 47 q 844 21 844 39 q 838 -3 844 3 q 640 0 718 0 q 471 -3 587 0 q 464 21 464 3 q 471 45 464 39 q 533 72 517 47 q 550 178 550 96 l 550 410 q 453 514 550 514 q 317 449 412 514 l 317 446 l 317 170 z "},"":{"ha":1027,"x_min":28,"x_max":997,"o":"m 304 1122 q 326 1158 304 1149 q 498 1080 446 1122 q 669 1158 561 1126 q 689 1121 689 1150 q 513 977 600 1064 l 493 970 q 304 1122 408 1056 m 876 0 q 789 -17 842 -17 q 733 45 760 9 l 268 597 q 235 625 245 625 q 224 597 224 625 l 224 184 q 236 93 224 121 q 268 58 248 65 q 345 45 289 50 q 350 21 350 39 q 345 -3 350 3 q 189 0 205 0 q 33 -3 170 0 q 28 21 28 3 q 33 45 28 39 q 110 58 89 50 q 142 94 131 66 q 154 184 154 122 l 154 764 q 117 821 147 794 q 45 851 86 848 q 39 875 39 858 q 45 899 39 892 l 271 896 l 395 750 l 763 316 q 788 297 779 298 q 800 321 798 296 l 800 711 q 788 803 800 775 q 755 838 777 831 q 679 851 734 846 q 672 875 672 858 q 679 899 672 892 q 840 896 818 896 q 990 899 854 896 q 997 875 997 892 q 990 851 997 859 q 914 838 935 846 q 881 802 893 829 q 869 711 869 774 l 869 142 l 876 0 z "},"":{"ha":855,"x_min":31,"x_max":844,"o":"m 456 714 l 386 714 q 244 893 347 775 l 278 918 q 419 802 364 859 q 562 918 468 853 l 596 893 q 456 714 502 788 m 317 170 q 329 68 317 87 q 389 45 342 49 q 394 21 394 39 q 389 -3 395 3 q 227 0 269 0 q 36 -3 153 0 q 31 21 31 3 q 36 45 31 39 q 119 68 102 50 q 136 170 136 86 l 136 429 q 120 504 136 488 q 46 526 104 521 q 43 571 38 553 q 273 616 161 587 q 306 593 304 616 q 315 503 312 551 q 546 616 480 617 q 730 395 730 616 l 730 178 q 751 70 730 93 q 838 45 771 47 q 844 21 844 39 q 838 -3 844 3 q 640 0 718 0 q 471 -3 587 0 q 464 21 464 3 q 471 45 464 39 q 533 72 517 47 q 550 178 550 96 l 550 410 q 453 514 550 514 q 317 449 412 514 l 317 446 l 317 170 z "},"":{"ha":785,"x_min":31,"x_max":861,"o":"m 100 970 q 160 939 137 970 q 183 868 183 908 q 178 830 183 851 q 158 784 172 810 q 112 741 143 758 q 36 721 81 724 l 31 745 q 92 783 71 753 q 114 840 114 812 q 98 865 114 865 q 35 922 35 865 q 100 970 35 970 m 335 170 q 347 68 335 87 q 407 45 359 49 q 414 21 414 39 q 407 -3 414 3 q 244 0 288 0 q 54 -3 170 0 q 47 21 47 3 q 54 45 47 39 q 137 68 121 50 q 154 170 154 86 l 154 429 q 138 504 154 488 q 64 526 122 521 q 61 571 56 553 q 292 616 179 587 q 323 593 322 616 q 332 503 330 551 q 564 616 498 617 q 749 395 748 616 l 749 178 q 769 70 749 93 q 856 45 789 47 q 861 21 861 39 q 856 -3 861 3 q 659 0 736 0 q 489 -3 606 0 q 484 21 484 3 q 489 45 484 39 q 552 72 535 47 q 568 178 568 96 l 568 410 q 471 514 568 514 q 335 449 429 514 l 335 446 l 335 170 z "},"":{"ha":1118,"x_min":20,"x_max":977,"o":"m 977 143 q 964 19 977 74 q 927 -74 951 -36 q 884 -133 903 -113 q 835 -179 865 -154 q 625 -260 741 -260 q 538 -232 587 -260 q 489 -161 489 -204 q 518 -109 489 -134 q 570 -83 547 -83 q 604 -90 589 -83 q 624 -105 618 -97 q 637 -126 629 -113 q 650 -146 646 -140 q 714 -178 675 -178 q 770 -128 759 -178 q 782 113 781 -78 l 782 471 q 724 747 782 663 q 669 806 693 790 q 599 822 644 822 q 367 659 505 822 q 342 606 347 634 l 342 170 q 363 67 342 87 q 463 45 385 47 q 469 21 469 39 q 463 -3 469 3 q 262 0 323 0 q 26 -3 163 0 q 20 21 20 3 q 26 45 20 39 q 126 67 104 47 q 147 170 147 87 l 147 726 q 126 828 147 808 q 26 851 104 848 q 20 875 20 858 q 26 899 20 892 q 261 896 165 896 q 329 899 304 896 q 347 885 347 899 q 342 739 342 829 l 342 713 q 347 716 344 713 q 352 721 350 718 l 354 724 q 498 861 414 807 q 663 914 583 914 q 789 889 728 914 q 888 822 851 864 q 977 457 977 718 l 977 143 z "},"":{"ha":854,"x_min":31,"x_max":724,"o":"m 724 393 l 724 153 q 701 -118 724 -35 q 625 -244 677 -201 q 529 -302 581 -281 q 398 -323 477 -323 q 357 -315 379 -323 q 317 -288 335 -307 q 298 -245 298 -269 q 319 -199 298 -222 q 357 -176 340 -176 q 372 -178 365 -176 q 387 -182 380 -179 q 398 -189 393 -186 q 410 -197 404 -192 q 419 -205 416 -202 q 428 -215 422 -209 q 436 -223 433 -221 q 461 -238 446 -233 q 492 -243 476 -243 q 535 -205 517 -243 q 553 -127 553 -168 q 548 -6 553 -80 q 543 106 543 68 l 543 410 q 511 489 543 464 q 432 514 479 514 q 316 478 374 514 q 317 446 317 460 l 317 170 q 329 68 317 87 q 389 45 342 49 q 394 21 394 39 q 389 -3 395 3 q 227 0 269 0 q 36 -3 153 0 q 31 21 31 3 q 36 45 31 39 q 119 68 102 50 q 136 170 136 86 l 136 429 q 120 504 136 488 q 46 526 104 521 q 43 571 38 553 q 273 616 161 587 q 306 593 304 616 q 313 532 309 566 q 394 574 355 555 q 470 604 433 592 q 532 616 508 616 q 724 393 724 617 z "},"":{"ha":1014,"x_min":52,"x_max":964,"o":"m 688 1048 l 307 1048 q 286 1074 286 1048 q 297 1103 286 1087 q 321 1118 309 1118 l 704 1118 q 724 1095 724 1118 q 712 1064 724 1079 q 688 1048 701 1048 m 488 856 q 325 757 388 856 q 261 457 261 659 q 338 156 261 267 q 533 45 415 45 q 696 149 637 45 q 754 428 754 253 q 679 744 754 632 q 488 856 604 856 m 964 457 q 844 123 964 253 q 505 -14 717 -14 q 186 109 321 -14 q 52 429 52 231 q 164 758 52 625 q 314 873 226 831 q 504 914 401 914 q 831 787 699 914 q 964 457 964 660 z "},"":{"ha":765,"x_min":52,"x_max":714,"o":"m 566 754 l 184 754 q 164 779 163 754 q 175 808 164 793 q 199 823 186 823 l 582 823 q 602 800 602 823 q 590 769 602 785 q 566 754 579 754 m 361 558 q 245 318 245 558 q 287 134 245 222 q 404 45 328 45 q 485 94 450 45 q 519 256 519 143 q 476 478 519 397 q 361 558 433 558 m 52 288 q 127 514 52 427 q 383 616 217 617 q 624 528 534 616 q 714 300 714 439 q 619 65 714 150 q 382 -14 530 -14 q 146 70 240 -14 q 52 288 52 153 z "},"":{"ha":1014,"x_min":52,"x_max":964,"o":"m 686 1153 q 625 1030 681 1081 q 498 979 568 979 q 369 1029 423 979 q 310 1153 315 1079 l 349 1157 q 498 1082 364 1082 q 598 1101 555 1082 q 648 1157 642 1120 l 686 1153 m 488 856 q 325 757 388 856 q 261 457 261 659 q 338 156 261 267 q 533 45 415 45 q 696 149 637 45 q 754 428 754 253 q 679 744 754 632 q 488 856 604 856 m 964 457 q 844 123 964 253 q 505 -14 717 -14 q 186 109 321 -14 q 52 429 52 231 q 164 758 52 625 q 314 873 226 831 q 504 914 401 914 q 831 787 699 914 q 964 457 964 660 z "},"":{"ha":765,"x_min":52,"x_max":714,"o":"m 228 926 q 270 844 229 872 q 378 817 310 817 q 526 926 521 817 l 571 913 q 502 764 562 814 q 378 714 441 714 q 242 770 296 714 q 182 913 189 827 l 228 926 m 361 558 q 245 318 245 558 q 287 134 245 222 q 404 45 328 45 q 485 94 450 45 q 519 256 519 143 q 476 478 519 397 q 361 558 433 558 m 52 288 q 127 514 52 427 q 383 616 217 617 q 624 528 534 616 q 714 300 714 439 q 619 65 714 150 q 382 -14 530 -14 q 146 70 240 -14 q 52 288 52 153 z "},"":{"ha":1014,"x_min":52,"x_max":964,"o":"m 681 1136 q 699 1097 699 1122 q 689 1069 699 1079 l 551 953 q 542 950 549 950 q 529 956 536 950 q 522 968 522 961 q 524 975 522 973 l 610 1133 q 642 1150 621 1150 q 681 1136 664 1149 m 496 1145 q 517 1104 517 1131 q 507 1078 517 1086 l 376 958 q 366 956 368 956 q 354 960 363 956 q 346 975 346 966 q 347 981 346 979 l 427 1140 q 464 1157 436 1157 q 496 1145 480 1157 m 488 856 q 325 757 388 856 q 261 457 261 659 q 338 156 261 267 q 533 45 415 45 q 696 149 637 45 q 754 428 754 253 q 679 744 754 632 q 488 856 604 856 m 964 457 q 844 123 964 253 q 505 -14 717 -14 q 186 109 321 -14 q 52 429 52 231 q 164 758 52 625 q 314 873 226 831 q 504 914 401 914 q 831 787 699 914 q 964 457 964 660 z "},"":{"ha":765,"x_min":52,"x_max":714,"o":"m 611 840 q 607 822 611 829 q 593 806 603 815 l 457 677 q 436 667 446 667 q 421 673 428 667 q 415 688 415 679 q 421 707 415 696 l 515 875 q 554 901 530 900 q 584 892 570 901 q 604 870 597 884 q 611 840 611 857 m 432 857 q 425 835 432 844 l 297 684 q 264 663 279 663 q 246 684 245 663 q 250 703 246 692 l 332 889 q 374 907 340 907 q 415 892 397 907 q 432 857 432 877 m 361 558 q 245 318 245 558 q 287 134 245 222 q 404 45 328 45 q 485 94 450 45 q 519 256 519 143 q 476 478 519 397 q 361 558 433 558 m 52 288 q 127 514 52 427 q 383 616 217 617 q 624 528 534 616 q 714 300 714 439 q 619 65 714 150 q 382 -14 530 -14 q 146 70 240 -14 q 52 288 52 153 z "},"":{"ha":1284,"x_min":60,"x_max":1231,"o":"m 888 510 q 986 525 962 510 q 1014 596 1011 541 q 1043 603 1019 603 q 1074 596 1067 603 q 1071 476 1071 513 q 1074 354 1071 451 q 1043 347 1067 347 q 1014 354 1019 347 q 985 421 1011 403 q 888 440 958 440 l 775 440 l 775 125 q 792 78 775 97 q 832 58 808 58 l 972 58 q 1168 236 1118 58 q 1231 229 1202 244 q 1222 158 1228 208 q 1208 67 1215 107 q 1193 -3 1202 28 q 1002 0 1068 0 l 526 0 q 190 126 319 0 q 60 443 60 252 q 185 767 60 635 q 510 899 310 899 l 673 896 l 1083 896 q 1152 901 1119 896 q 1157 897 1157 901 q 1161 855 1158 893 q 1167 768 1164 817 q 1174 696 1171 720 q 1114 689 1149 684 q 1055 804 1088 770 q 950 838 1022 838 l 832 838 q 792 817 808 838 q 775 770 775 796 l 775 510 l 888 510 m 524 56 l 541 56 q 581 170 581 56 l 581 725 q 541 839 581 839 l 493 839 q 332 748 395 839 q 269 456 269 657 q 343 157 269 258 q 524 56 418 56 z "},"":{"ha":1149,"x_min":52,"x_max":1099,"o":"m 361 558 q 245 318 245 558 q 287 134 245 222 q 404 45 328 45 q 485 94 450 45 q 519 256 519 143 q 476 478 519 397 q 361 558 433 558 m 52 288 q 127 514 52 427 q 383 616 217 617 q 631 521 540 616 q 731 591 675 566 q 843 616 787 616 q 968 595 917 616 q 1045 536 1019 574 q 1082 458 1071 498 q 1093 370 1093 418 q 1053 326 1093 327 l 720 326 q 719 317 720 323 q 718 304 718 310 q 764 155 718 205 q 893 106 810 106 q 1078 179 1006 106 q 1099 136 1099 179 q 839 -14 996 -14 q 627 56 703 -14 q 618 64 622 60 q 382 -14 530 -14 q 146 70 240 -14 q 52 288 52 153 m 725 382 l 914 382 q 917 411 917 385 q 890 522 917 486 q 828 558 863 558 q 790 546 812 558 q 753 511 768 533 q 725 382 728 473 z "},"":{"ha":994,"x_min":33,"x_max":985,"o":"m 530 1157 q 621 1080 590 1129 l 616 1064 l 416 983 q 368 974 391 974 q 350 980 359 974 q 340 994 340 986 q 354 1023 340 1011 q 530 1157 416 1078 m 616 648 q 436 851 616 851 q 368 826 383 851 q 353 728 353 802 l 353 452 l 412 452 q 564 491 512 452 q 616 648 616 530 m 481 908 q 713 863 635 908 q 819 672 820 799 q 772 515 819 575 q 659 428 725 456 l 847 136 q 907 66 879 87 q 981 45 936 45 q 985 20 985 37 q 982 -3 986 4 q 840 -14 960 -14 q 657 110 742 -14 l 494 351 q 455 385 479 376 q 353 393 431 393 l 353 170 q 359 102 353 128 q 383 65 366 77 q 417 50 400 53 q 468 45 433 46 q 478 21 477 38 q 468 -3 478 4 q 257 0 357 0 q 43 -3 154 0 q 33 21 33 4 q 43 45 33 39 q 94 50 77 46 q 129 65 111 53 q 152 102 146 77 q 158 170 158 127 l 158 726 q 152 793 158 768 q 129 831 146 819 q 95 846 111 843 q 43 851 78 850 q 33 876 33 858 q 43 899 33 893 q 262 903 71 899 q 481 908 453 908 z "},"":{"ha":594,"x_min":31,"x_max":578,"o":"m 351 885 q 374 888 359 888 q 453 854 427 888 l 467 822 l 300 672 q 248 650 273 650 q 232 656 239 650 q 225 669 225 663 q 236 703 225 686 l 351 885 m 317 372 l 317 170 q 333 67 317 86 q 416 45 350 49 q 422 21 422 39 q 416 -3 422 3 q 227 0 297 0 q 36 -3 153 0 q 31 21 31 3 q 36 45 31 39 q 119 68 102 50 q 136 170 136 86 l 136 429 q 120 505 136 488 q 46 528 103 522 q 43 571 38 553 q 273 616 123 579 q 306 593 302 616 q 315 484 313 525 l 321 484 q 486 616 414 617 q 550 592 522 616 q 578 539 578 567 q 553 467 578 496 q 498 438 529 438 q 431 461 454 438 q 423 469 428 464 q 416 476 418 473 q 409 482 413 479 q 401 486 405 485 q 394 488 398 488 q 350 464 374 488 q 325 428 334 448 q 317 372 317 407 z "},"":{"ha":994,"x_min":33,"x_max":985,"o":"m 453 -71 q 523 -95 493 -71 q 553 -179 553 -119 q 506 -277 553 -236 q 386 -330 460 -318 q 378 -292 368 -319 q 443 -259 418 -281 q 468 -218 468 -237 q 465 -204 468 -210 q 456 -195 463 -199 q 447 -191 450 -192 q 435 -187 443 -189 l 428 -186 q 382 -123 382 -176 q 406 -88 382 -105 q 453 -71 429 -71 m 616 648 q 436 851 616 851 q 368 826 383 851 q 353 728 353 802 l 353 452 l 412 452 q 564 491 512 452 q 616 648 616 530 m 481 908 q 713 863 635 908 q 819 672 820 799 q 772 515 819 575 q 659 428 725 456 l 847 136 q 907 66 879 87 q 981 45 936 45 q 985 20 985 37 q 982 -3 986 4 q 840 -14 960 -14 q 657 110 742 -14 l 494 351 q 455 385 479 376 q 353 393 431 393 l 353 170 q 359 102 353 128 q 383 65 366 77 q 417 50 400 53 q 468 45 433 46 q 478 21 477 38 q 468 -3 478 4 q 257 0 357 0 q 43 -3 154 0 q 33 21 33 4 q 43 45 33 39 q 94 50 77 46 q 129 65 111 53 q 152 102 146 77 q 158 170 158 127 l 158 726 q 152 793 158 768 q 129 831 146 819 q 95 846 111 843 q 43 851 78 850 q 33 876 33 858 q 43 899 33 893 q 262 903 71 899 q 481 908 453 908 z "},"":{"ha":594,"x_min":31,"x_max":578,"o":"m 212 -71 q 282 -95 252 -71 q 313 -179 313 -119 q 266 -277 313 -236 q 146 -330 220 -318 q 138 -292 127 -319 q 203 -259 178 -281 q 228 -218 228 -237 q 225 -204 228 -210 q 216 -195 222 -199 q 206 -191 210 -192 q 195 -187 203 -189 l 187 -186 q 142 -123 141 -176 q 165 -88 142 -105 q 212 -71 189 -71 m 317 372 l 317 170 q 333 67 317 86 q 416 45 350 49 q 422 21 422 39 q 416 -3 422 3 q 227 0 297 0 q 36 -3 153 0 q 31 21 31 3 q 36 45 31 39 q 119 68 102 50 q 136 170 136 86 l 136 429 q 120 505 136 488 q 46 528 103 522 q 43 571 38 553 q 273 616 123 579 q 306 593 302 616 q 315 484 313 525 l 321 484 q 486 616 414 617 q 550 592 522 616 q 578 539 578 567 q 553 467 578 496 q 498 438 529 438 q 431 461 454 438 q 423 469 428 464 q 416 476 418 473 q 409 482 413 479 q 401 486 405 485 q 394 488 398 488 q 350 464 374 488 q 325 428 334 448 q 317 372 317 407 z "},"":{"ha":994,"x_min":33,"x_max":985,"o":"m 262 1122 q 285 1158 262 1149 q 457 1080 404 1122 q 628 1158 519 1126 q 647 1121 648 1150 q 471 977 558 1064 l 452 970 q 262 1122 366 1056 m 616 648 q 436 851 616 851 q 368 826 383 851 q 353 728 353 802 l 353 452 l 412 452 q 564 491 512 452 q 616 648 616 530 m 481 908 q 713 863 635 908 q 819 672 820 799 q 772 515 819 575 q 659 428 725 456 l 847 136 q 907 66 879 87 q 981 45 936 45 q 985 20 985 37 q 982 -3 986 4 q 840 -14 960 -14 q 657 110 742 -14 l 494 351 q 455 385 479 376 q 353 393 431 393 l 353 170 q 359 102 353 128 q 383 65 366 77 q 417 50 400 53 q 468 45 433 46 q 478 21 477 38 q 468 -3 478 4 q 257 0 357 0 q 43 -3 154 0 q 33 21 33 4 q 43 45 33 39 q 94 50 77 46 q 129 65 111 53 q 152 102 146 77 q 158 170 158 127 l 158 726 q 152 793 158 768 q 129 831 146 819 q 95 846 111 843 q 43 851 78 850 q 33 876 33 858 q 43 899 33 893 q 262 903 71 899 q 481 908 453 908 z "},"":{"ha":594,"x_min":31,"x_max":578,"o":"m 329 714 l 260 714 q 118 893 221 775 l 151 918 q 293 802 237 859 q 436 918 342 853 l 469 893 q 329 714 375 788 m 317 372 l 317 170 q 333 67 317 86 q 416 45 350 49 q 422 21 422 39 q 416 -3 422 3 q 227 0 297 0 q 36 -3 153 0 q 31 21 31 3 q 36 45 31 39 q 119 68 102 50 q 136 170 136 86 l 136 429 q 120 505 136 488 q 46 528 103 522 q 43 571 38 553 q 273 616 123 579 q 306 593 302 616 q 315 484 313 525 l 321 484 q 486 616 414 617 q 550 592 522 616 q 578 539 578 567 q 553 467 578 496 q 498 438 529 438 q 431 461 454 438 q 423 469 428 464 q 416 476 418 473 q 409 482 413 479 q 401 486 405 485 q 394 488 398 488 q 350 464 374 488 q 325 428 334 448 q 317 372 317 407 z "},"":{"ha":700,"x_min":37,"x_max":643,"o":"m 585 876 q 600 665 600 750 q 530 659 576 646 q 508 729 519 700 q 475 791 496 758 q 422 840 454 823 q 349 857 390 857 q 262 824 294 857 q 231 732 231 790 q 280 630 231 679 q 385 553 329 581 q 571 422 511 488 q 643 256 643 343 q 549 62 643 146 q 339 -14 464 -14 q 159 0 229 -14 q 64 14 89 14 q 37 243 37 102 q 107 248 85 255 q 190 100 128 156 q 323 45 252 45 q 428 77 387 45 q 468 160 468 109 q 342 338 468 250 q 272 378 326 347 q 175 441 218 410 q 103 513 132 473 q 57 673 57 574 q 147 847 57 775 q 350 914 231 913 q 502 896 427 914 q 585 876 578 878 m 406 1157 q 496 1080 465 1129 l 492 1064 l 292 983 q 243 974 267 974 q 224 980 233 974 q 215 994 215 986 q 229 1023 215 1011 q 406 1157 292 1078 z "},"":{"ha":593,"x_min":66,"x_max":524,"o":"m 66 203 q 122 205 97 210 q 188 85 143 130 q 281 40 232 40 q 337 58 311 40 q 363 109 363 77 q 292 216 363 185 q 131 332 197 259 q 87 436 88 379 q 135 545 87 496 q 322 616 205 616 q 478 583 401 616 q 496 436 496 519 q 441 429 477 424 q 311 558 389 558 q 263 542 282 558 q 244 500 244 525 q 319 392 244 423 q 481 285 427 345 q 524 165 524 237 q 449 34 524 81 q 283 -14 374 -14 q 90 17 178 -14 q 66 203 76 75 m 332 936 q 354 939 340 939 q 433 905 407 939 l 447 873 l 281 724 q 228 701 254 701 q 213 708 220 701 q 205 721 205 714 q 216 754 205 738 l 332 936 z "},"":{"ha":700,"x_min":37,"x_max":643,"o":"m 549 1006 q 526 970 549 979 q 354 1047 407 1006 q 183 970 292 1001 q 164 1007 163 978 q 340 1152 253 1064 l 359 1158 q 549 1006 446 1072 m 585 876 q 600 665 600 750 q 530 659 576 646 q 508 729 519 700 q 475 791 496 758 q 422 840 454 823 q 349 857 390 857 q 262 824 294 857 q 231 732 231 790 q 280 630 231 679 q 385 553 329 581 q 571 422 511 488 q 643 256 643 343 q 549 62 643 146 q 339 -14 464 -14 q 159 0 229 -14 q 64 14 89 14 q 37 243 37 102 q 107 248 85 255 q 190 100 128 156 q 323 45 252 45 q 428 77 387 45 q 468 160 468 109 q 342 338 468 250 q 272 378 326 347 q 175 441 218 410 q 103 513 132 473 q 57 673 57 574 q 147 847 57 775 q 350 914 231 913 q 502 896 427 914 q 585 876 578 878 z "},"":{"ha":593,"x_min":66,"x_max":524,"o":"m 66 203 q 122 205 97 210 q 188 85 143 130 q 281 40 232 40 q 337 58 311 40 q 363 109 363 77 q 292 216 363 185 q 131 332 197 259 q 87 436 88 379 q 135 545 87 496 q 322 616 205 616 q 478 583 401 616 q 496 436 496 519 q 441 429 477 424 q 311 558 389 558 q 263 542 282 558 q 244 500 244 525 q 319 392 244 423 q 481 285 427 345 q 524 165 524 237 q 449 34 524 81 q 283 -14 374 -14 q 90 17 178 -14 q 66 203 76 75 m 338 921 q 484 734 385 844 l 449 708 q 300 823 356 764 q 153 708 248 770 l 118 734 q 265 921 225 857 l 338 921 z "},"":{"ha":700,"x_min":37,"x_max":643,"o":"m 257 -140 l 249 -132 l 308 -14 q 155 1 217 -12 q 64 14 92 14 q 37 243 37 102 q 107 248 85 255 q 190 100 128 156 q 323 45 252 45 q 428 77 387 45 q 468 160 468 109 q 342 338 468 250 q 272 378 326 347 q 175 441 218 410 q 103 513 132 473 q 57 673 57 574 q 147 847 57 775 q 350 914 231 913 q 502 896 427 914 q 585 876 578 878 q 600 665 600 750 q 530 659 576 646 q 508 729 519 700 q 475 791 496 758 q 422 840 454 823 q 349 857 390 857 q 262 824 294 857 q 231 732 231 790 q 280 630 231 679 q 385 553 329 581 q 571 422 511 488 q 643 256 643 343 q 549 62 643 146 q 461 7 509 26 q 357 -14 414 -11 l 339 -57 q 468 -174 468 -83 q 420 -262 468 -226 q 306 -298 373 -298 q 283 -298 294 -298 q 264 -294 273 -297 q 251 -290 254 -292 q 234 -283 248 -289 q 216 -275 221 -277 q 231 -239 216 -246 q 311 -258 283 -258 q 380 -201 380 -258 q 257 -140 380 -147 z "},"":{"ha":593,"x_min":66,"x_max":524,"o":"m 66 203 q 122 205 97 210 q 188 85 143 130 q 281 40 232 40 q 337 58 311 40 q 363 109 363 77 q 292 216 363 185 q 131 332 197 259 q 87 436 88 379 q 135 545 87 496 q 322 616 205 616 q 478 583 401 616 q 496 436 496 519 q 441 429 477 424 q 311 558 389 558 q 263 542 282 558 q 244 500 244 525 q 319 392 244 423 q 481 285 427 345 q 524 165 524 237 q 411 13 524 64 q 306 -13 361 -9 l 288 -57 q 416 -174 416 -83 q 369 -262 416 -226 q 254 -298 321 -298 q 232 -298 242 -298 q 213 -294 222 -297 q 199 -290 203 -292 q 183 -283 196 -289 q 165 -275 170 -277 q 179 -239 165 -246 q 260 -258 232 -258 q 329 -201 329 -258 q 205 -140 329 -147 l 197 -132 l 256 -13 q 90 17 159 -7 q 66 203 76 75 z "},"":{"ha":700,"x_min":37,"x_max":643,"o":"m 153 1122 q 175 1158 153 1149 q 347 1080 294 1122 q 518 1158 410 1126 q 538 1121 538 1150 q 361 977 449 1064 l 342 970 q 153 1122 256 1056 m 585 876 q 600 665 600 750 q 530 659 576 646 q 508 729 519 700 q 475 791 496 758 q 422 840 454 823 q 349 857 390 857 q 262 824 294 857 q 231 732 231 790 q 280 630 231 679 q 385 553 329 581 q 571 422 511 488 q 643 256 643 343 q 549 62 643 146 q 339 -14 464 -14 q 159 0 229 -14 q 64 14 89 14 q 37 243 37 102 q 107 248 85 255 q 190 100 128 156 q 323 45 252 45 q 428 77 387 45 q 468 160 468 109 q 342 338 468 250 q 272 378 326 347 q 175 441 218 410 q 103 513 132 473 q 57 673 57 574 q 147 847 57 775 q 350 914 231 913 q 502 896 427 914 q 585 876 578 878 z "},"":{"ha":593,"x_min":66,"x_max":524,"o":"m 66 203 q 122 205 97 210 q 188 85 143 130 q 281 40 232 40 q 337 58 311 40 q 363 109 363 77 q 292 216 363 185 q 131 332 197 259 q 87 436 88 379 q 135 545 87 496 q 322 616 205 616 q 478 583 401 616 q 496 436 496 519 q 441 429 477 424 q 311 558 389 558 q 263 542 282 558 q 244 500 244 525 q 319 392 244 423 q 481 285 427 345 q 524 165 524 237 q 449 34 524 81 q 283 -14 374 -14 q 90 17 178 -14 q 66 203 76 75 m 321 714 l 252 714 q 110 893 213 775 l 143 918 q 285 802 229 859 q 428 918 334 853 l 461 893 q 321 714 367 788 z "},"":{"ha":905,"x_min":4,"x_max":897,"o":"m 389 -140 l 380 -132 l 446 0 q 233 -3 368 0 q 228 21 228 3 q 233 45 228 39 q 345 67 321 47 q 368 171 368 87 l 368 703 q 354 805 368 770 q 302 840 339 840 l 235 840 q 122 807 164 840 q 58 693 79 774 q 4 700 22 693 q 39 903 32 819 q 45 907 39 907 q 368 896 185 896 l 564 896 q 875 907 748 896 q 879 903 879 907 q 897 704 880 810 q 843 697 882 697 q 782 808 826 775 q 657 840 737 840 l 627 840 q 576 805 591 840 q 562 699 562 770 l 562 171 q 586 67 562 87 q 697 45 610 47 q 703 21 703 39 q 697 -3 703 3 q 494 0 576 0 l 471 -57 q 600 -174 600 -83 q 553 -262 600 -226 q 437 -298 505 -298 q 415 -298 425 -298 q 396 -294 406 -297 q 382 -290 386 -292 q 366 -283 379 -289 q 349 -275 353 -277 q 363 -239 349 -246 q 443 -258 416 -258 q 513 -201 512 -258 q 389 -140 512 -147 z "},"":{"ha":497,"x_min":29,"x_max":475,"o":"m 183 -140 l 175 -132 l 237 -9 q 211 -1 223 -6 q 186 10 198 3 q 164 25 174 17 q 122 146 123 61 q 126 533 122 351 l 36 533 q 29 542 29 533 l 29 582 q 87 603 53 603 l 126 603 q 142 764 126 743 q 158 774 146 769 q 189 786 171 780 q 215 795 208 791 q 261 810 231 802 q 299 819 292 819 q 310 807 310 819 q 302 650 306 742 l 301 603 l 464 603 q 475 595 475 603 l 475 551 q 441 533 475 533 l 301 533 q 302 329 301 455 q 302 176 302 203 q 320 105 302 127 q 364 83 338 83 q 443 103 418 83 q 468 64 468 82 q 438 36 458 50 q 394 11 418 22 q 340 -6 370 1 q 283 -14 311 -14 l 265 -57 q 394 -174 394 -83 q 347 -262 394 -226 q 232 -298 300 -298 q 210 -298 220 -298 q 190 -294 200 -297 q 177 -290 180 -292 q 160 -283 174 -289 q 143 -275 147 -277 q 157 -239 143 -246 q 237 -258 210 -258 q 307 -201 307 -258 q 183 -140 307 -147 z "},"":{"ha":905,"x_min":4,"x_max":897,"o":"m 268 1122 q 290 1158 268 1149 q 463 1080 410 1122 q 633 1158 525 1126 q 653 1121 653 1150 q 476 977 564 1064 l 457 970 q 268 1122 371 1056 m 562 171 q 586 67 562 87 q 697 45 610 47 q 703 21 703 39 q 697 -3 703 3 q 463 0 558 0 q 233 -3 370 0 q 228 21 228 3 q 233 45 228 39 q 345 67 321 47 q 368 171 368 87 l 368 703 q 354 805 368 770 q 302 840 339 840 l 235 840 q 122 807 164 840 q 58 693 79 774 q 4 700 22 693 q 39 903 32 819 q 45 907 39 907 q 368 896 185 896 l 564 896 q 875 907 748 896 q 879 903 879 907 q 897 704 880 810 q 843 697 882 697 q 782 808 826 775 q 657 840 737 840 l 627 840 q 576 805 591 840 q 562 699 562 770 l 562 171 z "}}}
